{
.appVersion = "939";
DisplayStrings = (
"/men-arm/vo-arm/yiwn-arm/gim-arm"
);
copyright = "Copyright 2011 Google Inc. All Rights Reserved.";
customParameters = (
{
name = license;
value = "Licensed under the Apache License, Version 2.0";
},
{
name = licenseURL;
value = "http://www.apache.org/licenses/LICENSE-2.0";
},
{
name = vendorID;
value = GOOG;
},
{
name = panose;
value = (
2,
0,
0,
0,
0,
0,
0,
0,
0,
0
);
},
{
name = unicodeRanges;
value = (
0,
1,
2,
3,
4,
5,
6,
7,
9,
29,
30,
31,
32,
33,
34,
35,
36,
37,
38,
40,
45,
60,
62,
64,
69
);
},
{
name = codePageRanges;
value = (
1252,
1250,
1251,
1253,
1254,
1257,
1258
);
},
{
name = glyphOrder;
value = (
.notdef,
uni0000,
uni0002,
uni0009,
uni000D,
space,
exclam,
quotedbl,
numbersign,
dollar,
percent,
ampersand,
quotesingle,
parenleft,
parenright,
asterisk,
plus,
comma,
hyphen,
period,
slash,
zero,
one,
two,
three,
four,
five,
six,
seven,
eight,
nine,
colon,
semicolon,
less,
equal,
greater,
question,
at,
A,
B,
C,
D,
E,
F,
G,
H,
I,
J,
K,
L,
M,
N,
O,
P,
Q,
R,
S,
T,
U,
V,
W,
X,
Y,
Z,
bracketleft,
backslash,
bracketright,
asciicircum,
underscore,
grave,
a,
b,
c,
d,
e,
f,
g,
h,
i,
j,
k,
l,
m,
n,
o,
p,
q,
r,
s,
t,
u,
v,
w,
x,
y,
z,
braceleft,
bar,
braceright,
asciitilde,
exclamdown,
cent,
sterling,
currency,
yen,
brokenbar,
section,
dieresis,
copyright,
ordfeminine,
guillemotleft,
logicalnot,
registered,
macron,
degree,
plusminus,
twosuperior,
threesuperior,
acute,
mu,
paragraph,
periodcentered,
cedilla,
onesuperior,
ordmasculine,
guillemotright,
onequarter,
onehalf,
threequarters,
questiondown,
AE,
multiply,
Oslash,
Thorn,
germandbls,
ae,
eth,
divide,
oslash,
thorn,
dcroat,
Hbar,
dotlessi,
kgreenlandic,
Lslash,
lslash,
Eng,
eng,
OE,
oe,
longs,
uni0180,
uni0181,
uni0182,
uni0183,
uni0184,
uni0185,
uni0186,
uni0187,
uni0188,
uni0189,
uni018A,
uni018B,
uni018C,
uni018D,
uni018E,
uni018F,
uni0190,
uni0191,
florin,
uni0193,
uni0194,
uni0195,
uni0197,
uni0198,
uni0199,
uni019A,
uni019B,
uni019C,
uni019D,
Ohorn,
ohorn,
uni01A2,

glyphs = (
{
glyphname = .notdef;
lastChange = "2017-05-19 14:51:26 +0000";
layers = (
{
layerId = "4CEFE409-8F93-4A8D-8E3D-834274A593AF";
paths = (
{
closed = 1;
nodes = (
"808 1456 LINE",
"100 1456 LINE",
"100 0 LINE",
"808 0 LINE"
);
},
{
closed = 1;
nodes = (
"452 796 LINE",
"194 1402 LINE",
"709 1402 LINE"
);
},
{
closed = 1;
nodes = (
"754 84 LINE",
"480 728 LINE",
"754 1372 LINE"
);
},
{
closed = 1;
nodes = (
"154 96 LINE",
"154 1360 LINE",
"422 728 LINE"
);
},
{
closed = 1;
nodes = (
"709 54 LINE",
"194 54 LINE",
"452 660 LINE"
);
}
);
width = 918;
}
);
note = .notdef;
},
{
glyphname = exclam;
lastChange = "2017-05-19 14:51:26 +0000";
layers = (
{
layerId = "4CEFE409-8F93-4A8D-8E3D-834274A593AF";
paths = (
{
closed = 1;
nodes = (
"134 406 LINE",
"243 406 LINE",
"433 1456 LINE",
"309 1456 LINE"
);
},
{
closed = 1;
nodes = (
"53 24 OFFCURVE",
"88 -10 OFFCURVE",
"133 -10 CURVE SMOOTH",
"178 -9 OFFCURVE",
"216 27 OFFCURVE",
"219 71 CURVE SMOOTH",
"223 118 OFFCURVE",
"187 153 OFFCURVE",
"142 152 CURVE SMOOTH",
"89 151 OFFCURVE",
"61 124 OFFCURVE",
"57 71 CURVE SMOOTH"
);
}
);
width = 448;
}
);
note = exclam;
unicode = 0021;
},
{
glyphname = quotedbl;
lastChange = "2017-05-19 14:51:26 +0000";
layers = (
{
layerId = "4CEFE409-8F93-4A8D-8E3D-834274A593AF";
paths = (
{
closed = 1;
nodes = (
"441 1083 LINE",
"523 1083 LINE",
"590 1391 LINE",
"613 1536 LINE",
"516 1536 LINE"
);
},
{
closed = 1;
nodes = (
"212 1083 LINE",
"294 1083 LINE",
"362 1391 LINE",
"385 1536 LINE",
"287 1536 LINE"
);
}
);
width = 571;
}
);
leftKerningGroup = quotedbl;
note = quotedbl;
rightKerningGroup = quotedbl;
unicode = 0022;
},
{
glyphname = numbersign;
lastChange = "2017-05-19 14:51:26 +0000";
layers = (
{
layerId = "4CEFE409-8F93-4A8D-8E3D-834274A593AF";
paths = (
{
closed = 1;
nodes = (
"798 410 LINE",
"1061 410 LINE",
"1078 504 LINE",
"831 504 LINE",
"989 945 LINE",
"1226 945 LINE",
"1243 1040 LINE",
"1022 1040 LINE",
"1171 1456 LINE",
"1069 1456 LINE",
"920 1040 LINE",
"621 1040 LINE",
"770 1456 LINE",
"667 1456 LINE",
"518 1040 LINE",
"232 1040 LINE",
"215 945 LINE",
"485 945 LINE",
"328 504 LINE",
"65 504 LINE",
"48 410 LINE",
"295 410 LINE",
"148 0 LINE",
"251 0 LINE",
"397 410 LINE",
"696 410 LINE",
"549 0 LINE",
"651 0 LINE"
);
},
{
closed = 1;
nodes = (
"886 945 LINE",
"729 504 LINE",
"430 504 LINE",
"588 945 LINE"
);
}
);
width = 1155;
}
);
note = numbersign;
unicode = 0023;
},
{
glyphname = dollar;
lastChange = "2017-05-19 14:51:26 +0000";
layers = (
{
layerId = "4CEFE409-8F93-4A8D-8E3D-834274A593AF";
paths = (
{
closed = 1;
nodes = (
"971 596 OFFCURVE",
"820 702 OFFCURVE",
"625 780 CURVE SMOOTH",
"429 858 OFFCURVE",
"341 926 OFFCURVE",
"358 1091 CURVE SMOOTH",
"377 1264 OFFCURVE",
"516 1375 OFFCURVE",
"689 1371 CURVE SMOOTH",
"882 1366 OFFCURVE",
"946 1197 OFFCURVE",
"930 1028 CURVE",
"1048 1028 LINE",
"1068 1244 OFFCURVE",
"990 1440 OFFCURVE",
"757 1473 CURVE",
"792 1677 LINE",
"690 1677 LINE",
"655 1476 LINE",
"434 1456 OFFCURVE",
"258 1321 OFFCURVE",
"239 1088 CURVE SMOOTH",
"222 856 OFFCURVE",
"382 751 OFFCURVE",
"575 674 CURVE SMOOTH",
"722 615 OFFCURVE",
"855 538 OFFCURVE",
"835 366 CURVE SMOOTH",
"816 187 OFFCURVE",
"655 81 OFFCURVE",
"483 84 CURVE SMOOTH",
"283 88 OFFCURVE",
"186 227 OFFCURVE",
"203 419 CURVE",
"85 419 LINE",
"65 182 OFFCURVE",
"184 7 OFFCURVE",
"425 -18 CURVE",
"392 -208 LINE",
"494 -208 LINE",
"527 -19 LINE",
"751 2 OFFCURVE",
"935 130 OFFCURVE",
"954 369 CURVE SMOOTH"
);
}
);
width = 1102;
}
);
note = dollar;
unicode = 0024;
},
{
glyphname = percent;
lastChange = "2017-05-19 14:51:26 +0000";
layers = (
{
layerId = "4CEFE409-8F93-4A8D-8E3D-834274A593AF";
paths = (
{
closed = 1;
nodes = (
"183 944 OFFCURVE",
"273 803 OFFCURVE",
"438 799 CURVE SMOOTH",
"611 795 OFFCURVE",
"732 936 OFFCURVE",
"751 1099 CURVE SMOOTH",
"758 1176 LINE SMOOTH",
"770 1331 OFFCURVE",
"682 1474 OFFCURVE",
"517 1478 CURVE SMOOTH",
"342 1482 OFFCURVE",
"221 1340 OFFCURVE",
"202 1175 CURVE SMOOTH",
"195 1099 LINE SMOOTH"
);
},
{
closed = 1;
nodes = (
"313 1288 OFFCURVE",
"389 1394 OFFCURVE",
"512 1391 CURVE SMOOTH",
"631 1388 OFFCURVE",
"670 1280 OFFCURVE",
"661 1177 CURVE SMOOTH",
"653 1099 LINE SMOOTH",
"638 988 OFFCURVE",
"566 883 OFFCURVE",
"443 886 CURVE SMOOTH",
"326 889 OFFCURVE",
"284 993 OFFCURVE",
"292 1096 CURVE SMOOTH",
"300 1177 LINE SMOOTH"
);
},
{
closed = 1;
nodes = (
"273 175 LINE",
"346 122 LINE",
"1226 1258 LINE",
"1158 1306 LINE"
);
},
{
closed = 1;
nodes = (
"751 123 OFFCURVE",
"839 -18 OFFCURVE",
"1006 -22 CURVE SMOOTH",
"1181 -26 OFFCURVE",
"1300 115 OFFCURVE",
"1319 279 CURVE SMOOTH",
"1326 357 LINE SMOOTH",
"1338 512 OFFCURVE",
"1250 654 OFFCURVE",
"1085 658 CURVE SMOOTH",
"910 662 OFFCURVE",
"789 521 OFFCURVE",
"770 356 CURVE SMOOTH",
"763 279 LINE SMOOTH"
);
},
{
closed = 1;
nodes = (
"882 470 OFFCURVE",
"956 574 OFFCURVE",
"1080 571 CURVE SMOOTH",
"1200 568 OFFCURVE",
"1238 462 OFFCURVE",
"1229 358 CURVE SMOOTH",
"1221 279 LINE SMOOTH",
"1206 168 OFFCURVE",
"1135 62 OFFCURVE",
"1012 65 CURVE SMOOTH",
"893 66 OFFCURVE",
"853 173 OFFCURVE",
"861 276 CURVE SMOOTH",
"869 358 LINE SMOOTH"
);
}
);
width = 1469;
}
);
note = percent;
unicode = 0025;
},
{
glyphname = ampersand;
lastChange = "2017-05-19 14:51:26 +0000";
layers = (
{
layerId = "4CEFE409-8F93-4A8D-8E3D-834274A593AF";
paths = (
{
closed = 1;
nodes = (
"944 231 LINE",
"1048 345 OFFCURVE",
"1110 485 OFFCURVE",
"1131 652 CURVE",
"1023 652 LINE",
"1002 526 OFFCURVE",
"955 415 OFFCURVE",
"881 318 CURVE",
"569 780 LINE",
"720 885 LINE SMOOTH",
"825 958 OFFCURVE",
"938 1060 OFFCURVE",
"947 1199 CURVE SMOOTH",
"959 1364 OFFCURVE",
"836 1474 OFFCURVE",
"677 1478 CURVE SMOOTH",
"473 1482 OFFCURVE",
"329 1336 OFFCURVE",
"313 1137 CURVE SMOOTH",
"302 1012 OFFCURVE",
"360 902 OFFCURVE",
"421 798 CURVE",
"402 785 LINE SMOOTH",
"327 736 OFFCURVE",
"254 677 OFFCURVE",
"184 610 CURVE SMOOTH",
"44 475 OFFCURVE",
"14 216 OFFCURVE",
"170 83 CURVE SMOOTH",
"325 -50 OFFCURVE",
"607 -79 OFFCURVE",
"867 145 CURVE",
"964 0 LINE",
"1097 0 LINE"
);
},
{
closed = 1;
nodes = (
"446 1267 OFFCURVE",
"535 1379 OFFCURVE",
"670 1376 CURVE SMOOTH",
"771 1375 OFFCURVE",
"842 1303 OFFCURVE",
"833 1200 CURVE SMOOTH",
"822 1093 OFFCURVE",
"740 1020 OFFCURVE",
"657 961 CURVE SMOOTH",
"513 863 LINE",
"465 947 OFFCURVE",
"419 1042 OFFCURVE",
"431 1142 CURVE SMOOTH"
);
},
{
closed = 1;
nodes = (
"206 498 OFFCURVE",
"325 604 OFFCURVE",
"428 680 CURVE SMOOTH",
"479 717 LINE",
"489 701 LINE",
"805 230 LINE",
"708 146 OFFCURVE",
"593 79 OFFCURVE",
"461 82 CURVE SMOOTH",
"296 86 OFFCURVE",
"166 188 OFFCURVE",
"189 363 CURVE SMOOTH"
);
}
);
width = 1223;
}
);
note = ampersand;
unicode = 0026;
},
{
glyphname = quotesingle;
lastChange = "2017-05-19 14:51:26 +0000";
layers = (
{
layerId = "4CEFE409-8F93-4A8D-8E3D-834274A593AF";
paths = (
{
closed = 1;
nodes = (
"191 1091 LINE",
"281 1091 LINE",
"345 1390 LINE",
"368 1536 LINE",
"267 1536 LINE"
);
}
);
width = 339;
}
);
leftKerningGroup = quotedbl;
note = quotesingle;
rightKerningGroup = quotedbl;
unicode = 0027;
},
{
glyphname = parenleft;
lastChange = "2017-05-19 14:51:26 +0000";
layers = (
{
layerId = "4CEFE409-8F93-4A8D-8E3D-834274A593AF";
paths = (
{
closed = 1;
nodes = (
"486 1502 OFFCURVE",
"329 1243 OFFCURVE",
"237 983 CURVE SMOOTH",
"145 722 OFFCURVE",
"104 493 OFFCURVE",
"120 205 CURVE SMOOTH",
"133 -63 OFFCURVE",
"217 -324 OFFCURVE",
"416 -469 CURVE",
"450 -392 LINE",
"285 -255 OFFCURVE",
"230 -5 OFFCURVE",
"231 243 CURVE SMOOTH",
"234 369 LINE SMOOTH",
"241 528 OFFCURVE",
"267 688 OFFCURVE",
"312 847 CURVE SMOOTH",
"401 1166 OFFCURVE",
"541 1407 OFFCURVE",
"754 1551 CURVE",
"734 1634 LINE"
);
}
);
width = 634;
}
);
note = parenleft;
unicode = 0028;
},
{
glyphname = parenright;
lastChange = "2017-05-19 14:51:26 +0000";
layers = (
{
layerId = "4CEFE409-8F93-4A8D-8E3D-834274A593AF";
paths = (
{
closed = 1;
nodes = (
"513 703 OFFCURVE",
"517 825 OFFCURVE",
"510 959 CURVE SMOOTH",
"495 1226 OFFCURVE",
"411 1487 OFFCURVE",
"215 1632 CURVE",
"181 1555 LINE",
"337 1427 OFFCURVE",
"412 1165 OFFCURVE",
"400 832 CURVE SMOOTH",
"394 730 LINE SMOOTH",
"383 583 OFFCURVE",
"355 435 OFFCURVE",
"311 286 CURVE SMOOTH",
"223 -14 OFFCURVE",
"88 -250 OFFCURVE",
"-124 -393 CURVE",
"-103 -471 LINE",
"18 -406 OFFCURVE",
"120 -316 OFFCURVE",
"202 -199 CURVE SMOOTH",
"365 33 OFFCURVE",
"456 323 OFFCURVE",
"495 578 CURVE SMOOTH",
"498 594 LINE"
);
}
);
width = 648;
}
);
note = parenright;
unicode = 0029;
},
{
glyphname = asterisk;
lastChange = "2017-05-19 14:51:26 +0000";
layers = (
{
layerId = "4CEFE409-8F93-4A8D-8E3D-834274A593AF";
paths = (
{
closed = 1;
nodes = (
"483 941 LINE",
"637 636 LINE",
"727 695 LINE",
"560 992 LINE",
"905 1106 LINE",
"890 1213 LINE",
"556 1088 LINE",
"629 1456 LINE",
"524 1456 LINE",
"463 1085 LINE",
"161 1208 LINE",
"113 1111 LINE",
"418 1004 LINE",
"155 705 LINE",
"233 639 LINE"
);
}
);
width = 843;
}
);
note = asterisk;
unicode = 002A;
},
{
glyphname = plus;
lastChange = "2017-05-19 14:51:26 +0000";
layers = (
{
layerId = "4CEFE409-8F93-4A8D-8E3D-834274A593AF";
paths = (
{
closed = 1;
nodes = (
"637 741 LINE",
"718 1206 LINE",
"599 1206 LINE",
"518 741 LINE",
"97 741 LINE",
"77 628 LINE",
"499 628 LINE",
"414 146 LINE",
"534 146 LINE",
"618 628 LINE",
"1048 628 LINE",
"1068 741 LINE"
);
}
);
width = 1121;
}
);
note = plus;
unicode = 002B;
},
{
glyphname = comma;
lastChange = "2017-05-19 14:51:26 +0000";
layers = (
{
layerId = "4CEFE409-8F93-4A8D-8E3D-834274A593AF";
paths = (
{
closed = 1;
nodes = (
"53 45 LINE SMOOTH",
"37 -45 OFFCURVE",
"-8 -133 OFFCURVE",
"-83 -219 CURVE",
"-16 -274 LINE",
"89 -187 OFFCURVE",
"151 -79 OFFCURVE",
"172 50 CURVE SMOOTH",
"195 189 LINE",
"78 189 LINE"
);
}
);
width = 381;
}
);
leftKerningGroup = comma;
note = comma;
rightKerningGroup = comma;
unicode = 002C;
},
{
glyphname = hyphen;
lastChange = "2017-05-19 14:51:26 +0000";
layers = (
{
layerId = "4CEFE409-8F93-4A8D-8E3D-834274A593AF";
paths = (
{
closed = 1;
nodes = (
"44 592 LINE",
"511 592 LINE",
"529 694 LINE",
"62 694 LINE"
);
}
);
width = 568;
}
);
leftKerningGroup = hyphen;
note = hyphen;
unicode = 002D;
},
{
glyphname = period;
lastChange = "2017-05-19 14:51:26 +0000";
layers = (
{
layerId = "4CEFE409-8F93-4A8D-8E3D-834274A593AF";
paths = (
{
closed = 1;
nodes = (
"45 25 OFFCURVE",
"79 -11 OFFCURVE",
"126 -10 CURVE SMOOTH",
"173 -9 OFFCURVE",
"212 28 OFFCURVE",
"216 73 CURVE SMOOTH",
"219 121 OFFCURVE",
"184 158 OFFCURVE",
"136 157 CURVE SMOOTH",
"89 156 OFFCURVE",
"52 118 OFFCURVE",
"49 73 CURVE SMOOTH"
);
}
);
width = 474;
}
);
leftKerningGroup = comma;
note = period;
rightKerningGroup = comma;
unicode = 002E;
},
{
glyphname = slash;
lastChange = "2017-05-19 14:51:26 +0000";
layers = (
{
layerId = "4CEFE409-8F93-4A8D-8E3D-834274A593AF";
paths = (
{
closed = 1;
nodes = (
"-101 -125 LINE",
"13 -125 LINE",
"878 1456 LINE",
"764 1456 LINE"
);
}
);
width = 790;
}
);
note = slash;
unicode = 002F;
},
{
glyphname = zero;
lastChange = "2017-05-19 14:51:26 +0000";
layers = (
{
layerId = "4CEFE409-8F93-4A8D-8E3D-834274A593AF";
paths = (
{
closed = 1;
nodes = (
"1051 1033 OFFCURVE",
"1041 1241 OFFCURVE",
"938 1374 CURVE SMOOTH",
"834 1506 OFFCURVE",
"550 1514 OFFCURVE",
"404 1388 CURVE SMOOTH",
"258 1262 OFFCURVE",
"186 1050 OFFCURVE",
"157 853 CURVE SMOOTH",
"122 621 LINE SMOOTH",
"94 436 OFFCURVE",
"106 219 OFFCURVE",
"210 85 CURVE SMOOTH",
"313 -49 OFFCURVE",
"600 -57 OFFCURVE",
"745 71 CURVE SMOOTH",
"889 198 OFFCURVE",
"958 410 OFFCURVE",
"989 609 CURVE SMOOTH",
"1027 853 LINE SMOOTH"
);
},
{
closed = 1;
nodes = (
"843 424 OFFCURVE",
"789 258 OFFCURVE",
"680 154 CURVE SMOOTH",
"571 50 OFFCURVE",
"351 57 OFFCURVE",
"283 174 CURVE SMOOTH",
"214 291 OFFCURVE",
"220 468 OFFCURVE",
"236 593 CURVE SMOOTH",
"279 869 LINE SMOOTH",
"304 1030 OFFCURVE",
"358 1201 OFFCURVE",
"467 1304 CURVE SMOOTH",
"576 1407 OFFCURVE",
"798 1400 OFFCURVE",
"867 1285 CURVE SMOOTH",
"935 1170 OFFCURVE",
"929 997 OFFCURVE",
"912 869 CURVE SMOOTH",
"871 605 LINE SMOOTH"
);
}
);
width = 1102;
}
);
note = zero;
unicode = 0030;
},
{
glyphname = one;
lastChange = "2017-05-19 14:51:26 +0000";
layers = (
{
layerId = "4CEFE409-8F93-4A8D-8E3D-834274A593AF";
paths = (
{
closed = 1;
nodes = (
"290 1280 LINE",
"269 1162 LINE",
"679 1308 LINE",
"451 0 LINE",
"571 0 LINE",
"820 1462 LINE",
"798 1462 LINE"
);
}
);
width = 1102;
}
);
note = one;
unicode = 0031;
},
{
glyphname = two;
lastChange = "2017-05-19 14:51:26 +0000";
layers = (
{
layerId = "4CEFE409-8F93-4A8D-8E3D-834274A593AF";
paths = (
{
closed = 1;
nodes = (
"671 561 LINE SMOOTH",
"814 701 OFFCURVE",
"1002 881 OFFCURVE",
"1022 1093 CURVE SMOOTH",
"1045 1328 OFFCURVE",
"888 1473 OFFCURVE",
"660 1477 CURVE SMOOTH",
"397 1481 OFFCURVE",
"202 1291 OFFCURVE",
"171 1036 CURVE",
"287 1037 LINE",
"319 1228 OFFCURVE",
"451 1380 OFFCURVE",
"656 1375 CURVE SMOOTH",
"827 1371 OFFCURVE",
"922 1249 OFFCURVE",
"901 1082 CURVE SMOOTH",
"880 905 OFFCURVE",
"713 753 OFFCURVE",
"596 634 CURVE SMOOTH",
"52 98 LINE",
"37 0 LINE",
"925 0 LINE",
"942 102 LINE",
"202 102 LINE"
);
}
);
width = 1102;
}
);
note = two;
unicode = 0032;
},
{
glyphname = three;
lastChange = "2017-05-19 14:51:26 +0000";
layers = (
{
layerId = "4CEFE409-8F93-4A8D-8E3D-834274A593AF";
paths = (
{
closed = 1;
nodes = (
"714 685 OFFCURVE",
"848 597 OFFCURVE",
"831 400 CURVE SMOOTH",
"812 201 OFFCURVE",
"664 77 OFFCURVE",
"467 82 CURVE SMOOTH",
"283 87 OFFCURVE",
"166 212 OFFCURVE",
"182 395 CURVE",
"64 395 LINE",
"45 148 OFFCURVE",
"220 -15 OFFCURVE",
"461 -20 CURVE SMOOTH",
"718 -25 OFFCURVE",
"928 143 OFFCURVE",
"949 404 CURVE SMOOTH",
"961 561 OFFCURVE",
"888 690 OFFCURVE",
"737 743 CURVE",
"885 800 OFFCURVE",
"1016 912 OFFCURVE",
"1031 1080 CURVE SMOOTH",
"1051 1316 OFFCURVE",
"901 1472 OFFCURVE",
"668 1477 CURVE SMOOTH",
"423 1481 OFFCURVE",
"221 1318 OFFCURVE",
"192 1074 CURVE",
"307 1075 LINE",
"339 1255 OFFCURVE",
"475 1379 OFFCURVE",
"662 1375 CURVE SMOOTH",
"837 1371 OFFCURVE",
"929 1256 OFFCURVE",
"912 1084 CURVE SMOOTH",
"892 889 OFFCURVE",
"714 794 OFFCURVE",
"533 793 CURVE SMOOTH",
"420 794 LINE",
"404 691 LINE",
"533 690 LINE SMOOTH"
);
}
);
width = 1102;
}
);
note = three;
unicode = 0033;
},
{
glyphname = four;
lastChange = "2017-05-19 14:51:26 +0000";
layers = (
{
layerId = "4CEFE409-8F93-4A8D-8E3D-834274A593AF";
paths = (
{
closed = 1;
nodes = (
"687 368 LINE",
"623 0 LINE",
"742 0 LINE",
"807 368 LINE",
"1026 368 LINE",
"1044 470 LINE",
"824 470 LINE",
"995 1456 LINE",
"861 1456 LINE",
"36 437 LINE",
"27 368 LINE"
);
},
{
closed = 1;
nodes = (
"848 1289 LINE",
"705 470 LINE",
"190 470 LINE",
"786 1206 LINE"
);
}
);
width = 1102;
}
);
note = four;
unicode = 0034;
},
{
glyphname = five;
lastChange = "2017-05-19 14:51:26 +0000";
layers = (
{
layerId = "4CEFE409-8F93-4A8D-8E3D-834274A593AF";
paths = (
{
closed = 1;
nodes = (
"417 792 OFFCURVE",
"512 827 OFFCURVE",
"612 824 CURVE SMOOTH",
"812 820 OFFCURVE",
"891 650 OFFCURVE",
"874 470 CURVE SMOOTH",
"855 265 OFFCURVE",
"740 76 OFFCURVE",
"513 81 CURVE SMOOTH",
"330 85 OFFCURVE",
"245 211 OFFCURVE",
"242 384 CURVE",
"129 384 LINE",
"130 267 OFFCURVE",
"163 171 OFFCURVE",
"229 96 CURVE SMOOTH",
"360 -55 OFFCURVE",
"684 -75 OFFCURVE",
"851 120 CURVE SMOOTH",
"1018 315 OFFCURVE",
"1039 603 OFFCURVE",
"922 791 CURVE SMOOTH",
"805 978 OFFCURVE",
"526 962 OFFCURVE",
"366 853 CURVE",
"499 1345 LINE",
"1104 1345 LINE",
"1122 1456 LINE",
"412 1456 LINE",
"232 750 LINE",
"328 721 LINE"
);
}
);
width = 1102;
}
);
note = five;
unicode = 0035;
},
{
glyphname = six;
lastChange = "2017-05-19 14:51:26 +0000";
layers = (
{
layerId = "4CEFE409-8F93-4A8D-8E3D-834274A593AF";
paths = (
{
closed = 1;
nodes = (
"990 563 OFFCURVE",
"983 638 OFFCURVE",
"962 709 CURVE SMOOTH",
"918 851 OFFCURVE",
"813 952 OFFCURVE",
"640 956 CURVE SMOOTH",
"493 959 OFFCURVE",
"368 901 OFFCURVE",
"266 782 CURVE",
"358 1109 OFFCURVE",
"557 1361 OFFCURVE",
"918 1364 CURVE SMOOTH",
"941 1364 LINE",
"952 1468 LINE",
"930 1468 LINE SMOOTH",
"768 1467 OFFCURVE",
"632 1429 OFFCURVE",
"521 1354 CURVE SMOOTH",
"299 1202 OFFCURVE",
"173 939 OFFCURVE",
"130 643 CURVE SMOOTH",
"113 515 LINE SMOOTH",
"93 342 OFFCURVE",
"142 169 OFFCURVE",
"263 63 CURVE SMOOTH",
"383 -43 OFFCURVE",
"605 -48 OFFCURVE",
"744 49 CURVE SMOOTH",
"883 145 OFFCURVE",
"966 312 OFFCURVE",
"982 485 CURVE SMOOTH"
);
},
{
closed = 1;
nodes = (
"286 758 OFFCURVE",
"474 858 OFFCURVE",
"615 854 CURVE SMOOTH",
"819 849 OFFCURVE",
"883 656 OFFCURVE",
"864 480 CURVE SMOOTH",
"851 353 OFFCURVE",
"791 219 OFFCURVE",
"688 139 CURVE SMOOTH",
"585 58 OFFCURVE",
"410 61 OFFCURVE",
"327 152 CURVE SMOOTH",
"243 243 OFFCURVE",
"219 385 OFFCURVE",
"232 512 CURVE SMOOTH",
"245 613 LINE"
);
}
);
width = 1102;
}
);
note = six;
unicode = 0036;
},
{
glyphname = seven;
lastChange = "2017-05-19 14:51:26 +0000";
layers = (
{
layerId = "4CEFE409-8F93-4A8D-8E3D-834274A593AF";
paths = (
{
closed = 1;
nodes = (
"191 1354 LINE",
"992 1354 LINE",
"181 0 LINE",
"310 0 LINE",
"1128 1389 LINE",
"1135 1456 LINE",
"207 1456 LINE"
);
}
);
width = 1102;
}
);
note = seven;
unicode = 0037;
},
{
glyphname = eight;
lastChange = "2017-05-19 14:51:26 +0000";
layers = (
{
layerId = "4CEFE409-8F93-4A8D-8E3D-834274A593AF";
paths = (
{
closed = 1;
nodes = (
"976 547 OFFCURVE",
"900 680 OFFCURVE",
"760 744 CURVE",
"912 807 OFFCURVE",
"1034 919 OFFCURVE",
"1049 1091 CURVE SMOOTH",
"1069 1320 OFFCURVE",
"914 1472 OFFCURVE",
"689 1476 CURVE SMOOTH",
"445 1483 OFFCURVE",
"243 1322 OFFCURVE",
"223 1073 CURVE SMOOTH",
"212 940 OFFCURVE",
"271 816 OFFCURVE",
"391 752 CURVE",
"222 691 OFFCURVE",
"81 567 OFFCURVE",
"64 378 CURVE SMOOTH",
"43 130 OFFCURVE",
"221 -16 OFFCURVE",
"457 -20 CURVE SMOOTH",
"713 -25 OFFCURVE",
"941 127 OFFCURVE",
"964 395 CURVE SMOOTH"
);
},
{
closed = 1;
nodes = (
"913 914 OFFCURVE",
"762 793 OFFCURVE",
"587 797 CURVE SMOOTH",
"427 801 OFFCURVE",
"324 913 OFFCURVE",
"340 1073 CURVE SMOOTH",
"359 1252 OFFCURVE",
"502 1379 OFFCURVE",
"682 1375 CURVE SMOOTH",
"842 1371 OFFCURVE",
"946 1248 OFFCURVE",
"930 1091 CURVE SMOOTH"
);
},
{
closed = 1;
nodes = (
"825 195 OFFCURVE",
"655 77 OFFCURVE",
"462 81 CURVE SMOOTH",
"286 85 OFFCURVE",
"164 196 OFFCURVE",
"184 377 CURVE SMOOTH",
"204 573 OFFCURVE",
"375 701 OFFCURVE",
"567 697 CURVE SMOOTH",
"740 692 OFFCURVE",
"863 572 OFFCURVE",
"846 395 CURVE SMOOTH"
);
}
);
width = 1102;
}
);
note = eight;
unicode = 0038;
},
{
glyphname = nine;
lastChange = "2017-05-19 14:51:26 +0000";
layers = (
{
layerId = "4CEFE409-8F93-4A8D-8E3D-834274A593AF";
paths = (
{
closed = 1;
nodes = (
"393 -11 OFFCURVE",
"527 26 OFFCURVE",
"634 97 CURVE SMOOTH",
"849 239 OFFCURVE",
"967 495 OFFCURVE",
"1006 794 CURVE SMOOTH",
"1019 895 LINE SMOOTH",
"1030 986 OFFCURVE",
"1026 1075 OFFCURVE",
"1009 1164 CURVE SMOOTH",
"973 1340 OFFCURVE",
"864 1472 OFFCURVE",
"649 1477 CURVE SMOOTH",
"456 1481 OFFCURVE",
"313 1370 OFFCURVE",
"230 1210 CURVE SMOOTH",
"147 1050 OFFCURVE",
"133 881 OFFCURVE",
"176 735 CURVE SMOOTH",
"219 589 OFFCURVE",
"323 481 OFFCURVE",
"495 477 CURVE SMOOTH",
"650 473 OFFCURVE",
"780 557 OFFCURVE",
"875 674 CURVE",
"791 333 OFFCURVE",
"614 95 OFFCURVE",
"241 92 CURVE SMOOTH",
"210 92 LINE",
"198 -12 LINE",
"233 -12 LINE SMOOTH"
);
},
{
closed = 1;
nodes = (
"288 1094 OFFCURVE",
"349 1231 OFFCURVE",
"456 1315 CURVE SMOOTH",
"563 1398 OFFCURVE",
"750 1396 OFFCURVE",
"827 1295 CURVE SMOOTH",
"904 1194 OFFCURVE",
"917 1036 OFFCURVE",
"905 909 CURVE SMOOTH",
"898 839 LINE",
"863 766 OFFCURVE",
"811 704 OFFCURVE",
"744 653 CURVE SMOOTH",
"609 551 OFFCURVE",
"434 563 OFFCURVE",
"359 644 CURVE SMOOTH",
"284 724 OFFCURVE",
"261 851 OFFCURVE",
"273 963 CURVE SMOOTH"
);
}
);
width = 1102;
}
);
note = nine;
unicode = 0039;
},
{
glyphname = colon;
lastChange = "2017-05-19 14:51:26 +0000";
layers = (
{
layerId = "4CEFE409-8F93-4A8D-8E3D-834274A593AF";
paths = (
{
closed = 1;
nodes = (
"27 25 OFFCURVE",
"61 -11 OFFCURVE",
"108 -10 CURVE SMOOTH",
"155 -9 OFFCURVE",
"194 28 OFFCURVE",
"198 73 CURVE SMOOTH",
"201 121 OFFCURVE",
"166 158 OFFCURVE",
"118 157 CURVE SMOOTH",
"71 156 OFFCURVE",
"34 118 OFFCURVE",
"31 73 CURVE SMOOTH"
);
},
{
closed = 1;
nodes = (
"188 948 OFFCURVE",
"222 912 OFFCURVE",
"269 913 CURVE SMOOTH",
"316 914 OFFCURVE",
"355 951 OFFCURVE",
"359 996 CURVE SMOOTH",
"362 1044 OFFCURVE",
"327 1081 OFFCURVE",
"279 1080 CURVE SMOOTH",
"232 1079 OFFCURVE",
"195 1041 OFFCURVE",
"192 996 CURVE SMOOTH"
);
}
);
width = 427;
}
);
note = colon;
unicode = 003A;
},
{
glyphname = semicolon;
lastChange = "2017-05-19 14:51:26 +0000";
layers = (
{
layerId = "4CEFE409-8F93-4A8D-8E3D-834274A593AF";
paths = (
{
closed = 1;
nodes = (
"178 948 OFFCURVE",
"212 912 OFFCURVE",
"259 913 CURVE SMOOTH",
"306 914 OFFCURVE",
"345 951 OFFCURVE",
"349 996 CURVE SMOOTH",
"352 1044 OFFCURVE",
"317 1081 OFFCURVE",
"269 1080 CURVE SMOOTH",
"222 1079 OFFCURVE",
"185 1041 OFFCURVE",
"182 996 CURVE SMOOTH"
);
},
{
closed = 1;
nodes = (
"53 45 LINE SMOOTH",
"37 -45 OFFCURVE",
"-8 -133 OFFCURVE",
"-83 -219 CURVE",
"-16 -274 LINE",
"89 -187 OFFCURVE",
"151 -79 OFFCURVE",
"172 50 CURVE SMOOTH",
"195 189 LINE",
"78 189 LINE"
);
}
);
width = 397;
}
);
note = semicolon;
unicode = 003B;
},
{
glyphname = less;
lastChange = "2017-05-19 14:51:26 +0000";
layers = (
{
layerId = "4CEFE409-8F93-4A8D-8E3D-834274A593AF";
paths = (
{
closed = 1;
nodes = (
"213 653 LINE",
"941 955 LINE",
"964 1087 LINE",
"93 708 LINE",
"78 609 LINE",
"819 230 LINE",
"837 353 LINE"
);
}
);
width = 1016;
}
);
note = less;
unicode = 003C;
},
{
glyphname = equal;
lastChange = "2017-05-19 14:51:26 +0000";
layers = (
{
layerId = "4CEFE409-8F93-4A8D-8E3D-834274A593AF";
paths = (
{
closed = 1;
nodes = (
"184 829 LINE",
"996 829 LINE",
"1015 935 LINE",
"203 935 LINE"
);
},
{
closed = 1;
nodes = (
"112 418 LINE",
"924 418 LINE",
"943 524 LINE",
"131 524 LINE"
);
}
);
width = 1099;
}
);
note = equal;
unicode = 003D;
},
{
glyphname = greater;
lastChange = "2017-05-19 14:51:26 +0000";
layers = (
{
layerId = "4CEFE409-8F93-4A8D-8E3D-834274A593AF";
paths = (
{
closed = 1;
nodes = (
"821 663 LINE",
"78 359 LINE",
"54 228 LINE",
"942 608 LINE",
"957 708 LINE",
"200 1086 LINE",
"181 965 LINE"
);
}
);
width = 1030;
}
);
note = greater;
unicode = 003E;
},
{
glyphname = question;
lastChange = "2017-05-19 14:51:26 +0000";
layers = (
{
layerId = "4CEFE409-8F93-4A8D-8E3D-834274A593AF";
paths = (
{
closed = 1;
nodes = (
"483 543 OFFCURVE",
"534 622 OFFCURVE",
"609 682 CURVE SMOOTH",
"759 801 OFFCURVE",
"886 926 OFFCURVE",
"905 1111 CURVE SMOOTH",
"924 1318 OFFCURVE",
"807 1472 OFFCURVE",
"595 1477 CURVE SMOOTH",
"371 1482 OFFCURVE",
"203 1335 OFFCURVE",
"171 1116 CURVE",
"287 1117 LINE",
"319 1268 OFFCURVE",
"426 1376 OFFCURVE",
"587 1372 CURVE SMOOTH",
"738 1368 OFFCURVE",
"799 1251 OFFCURVE",
"783 1111 CURVE SMOOTH",
"766 958 OFFCURVE",
"666 870 OFFCURVE",
"545 766 CURVE SMOOTH",
"424 661 OFFCURVE",
"357 564 OFFCURVE",
"334 404 CURVE",
"449 405 LINE",
"458 446 LINE"
);
},
{
closed = 1;
nodes = (
"252 24 OFFCURVE",
"285 -11 OFFCURVE",
"332 -10 CURVE SMOOTH",
"376 -9 OFFCURVE",
"414 27 OFFCURVE",
"418 71 CURVE SMOOTH",
"421 118 OFFCURVE",
"386 152 OFFCURVE",
"341 152 CURVE SMOOTH",
"288 151 OFFCURVE",
"260 124 OFFCURVE",
"256 71 CURVE SMOOTH"
);
}
);
width = 902;
}
);
note = question;
unicode = 003F;
},
{
glyphname = at;
lastChange = "2017-05-19 14:51:26 +0000";
layers = (
{
layerId = "4CEFE409-8F93-4A8D-8E3D-834274A593AF";
paths = (
{
closed = 1;
nodes = (
"930 -338 OFFCURVE",
"818 -364 OFFCURVE",
"702 -363 CURVE SMOOTH",
"387 -360 OFFCURVE",
"232 -171 OFFCURVE",
"189 85 CURVE SMOOTH",
"148 332 OFFCURVE",
"194 618 OFFCURVE",
"353 883 CURVE SMOOTH",
"512 1148 OFFCURVE",
"761 1332 OFFCURVE",
"1082 1327 CURVE SMOOTH",
"1407 1323 OFFCURVE",
"1562 1154 OFFCURVE",
"1602 910 CURVE SMOOTH",
"1632 718 OFFCURVE",
"1611 522 OFFCURVE",
"1539 321 CURVE SMOOTH",
"1487 177 OFFCURVE",
"1395 58 OFFCURVE",
"1247 65 CURVE SMOOTH",
"1204 66 OFFCURVE",
"1174 81 OFFCURVE",
"1157 108 CURVE SMOOTH",
"1124 163 OFFCURVE",
"1128 245 OFFCURVE",
"1139 309 CURVE",
"1276 880 LINE",
"1200 947 OFFCURVE",
"1127 987 OFFCURVE",
"1024 990 CURVE SMOOTH",
"888 993 OFFCURVE",
"785 939 OFFCURVE",
"682 805 CURVE SMOOTH",
"578 671 OFFCURVE",
"499 461 OFFCURVE",
"503 237 CURVE SMOOTH",
"506 101 OFFCURVE",
"558 -16 OFFCURVE",
"707 -21 CURVE SMOOTH",
"847 -25 OFFCURVE",
"948 70 OFFCURVE",
"1024 175 CURVE",
"1027 116 OFFCURVE",
"1048 69 OFFCURVE",
"1085 34 CURVE SMOOTH",
"1159 -35 OFFCURVE",
"1339 -53 OFFCURVE",
"1465 62 CURVE SMOOTH",
"1591 177 OFFCURVE",
"1660 362 OFFCURVE",
"1688 518 CURVE SMOOTH",
"1741 826 OFFCURVE",
"1690 1116 OFFCURVE",
"1497 1289 CURVE SMOOTH",
"1304 1461 OFFCURVE",
"889 1469 OFFCURVE",
"613 1290 CURVE SMOOTH",
"336 1110 OFFCURVE",
"153 801 OFFCURVE",
"94 472 CURVE SMOOTH",
"39 168 OFFCURVE",
"92 -133 OFFCURVE",
"287 -314 CURVE SMOOTH",
"482 -495 OFFCURVE",
"863 -485 OFFCURVE",
"1062 -366 CURVE",
"1038 -285 LINE"
);
},
{
closed = 1;
nodes = (
"631 506 OFFCURVE",
"706 710 OFFCURVE",
"818 821 CURVE SMOOTH",
"930 932 OFFCURVE",
"1090 913 OFFCURVE",
"1169 850 CURVE",
"1039 330 LINE",
"998 207 OFFCURVE",
"878 68 OFFCURVE",
"737 76 CURVE SMOOTH",
"628 83 OFFCURVE",
"602 181 OFFCURVE",
"609 286 CURVE SMOOTH",
"614 347 LINE SMOOTH"
);
}
);
width = 1815;
}
);
note = at;
unicode = 0040;
},
{
glyphname = A;
lastChange = "2017-05-19 14:51:26 +0000";
layers = (
{
layerId = "4CEFE409-8F93-4A8D-8E3D-834274A593AF";
paths = (
{
closed = 1;
nodes = (
"270 408 LINE",
"909 408 LINE",
"984 0 LINE",
"1105 0 LINE",
"824 1456 LINE",
"707 1456 LINE",
"-79 0 LINE",
"53 0 LINE"
);
},
{
closed = 1;
nodes = (
"890 513 LINE",
"325 513 LINE",
"745 1304 LINE"
);
}
);
width = 1242;
}
);
leftKerningGroup = A;
note = A;
rightKerningGroup = A;
unicode = 0041;
},
{
glyphname = B;
lastChange = "2017-05-19 14:51:26 +0000";
layers = (
{
layerId = "4CEFE409-8F93-4A8D-8E3D-834274A593AF";
paths = (
{
closed = 1;
nodes = (
"1087 569 OFFCURVE",
"1012 711 OFFCURVE",
"863 756 CURVE",
"1014 811 OFFCURVE",
"1126 917 OFFCURVE",
"1141 1084 CURVE SMOOTH",
"1164 1345 OFFCURVE",
"973 1450 OFFCURVE",
"737 1455 CURVE SMOOTH",
"327 1456 LINE",
"74 0 LINE",
"572 0 LINE SMOOTH",
"829 1 OFFCURVE",
"1054 143 OFFCURVE",
"1075 418 CURVE SMOOTH"
);
},
{
closed = 1;
nodes = (
"907 1346 OFFCURVE",
"1038 1278 OFFCURVE",
"1018 1087 CURVE SMOOTH",
"997 884 OFFCURVE",
"823 804 OFFCURVE",
"638 803 CURVE SMOOTH",
"336 804 LINE",
"431 1351 LINE",
"736 1350 LINE SMOOTH"
);
},
{
closed = 1;
nodes = (
"930 209 OFFCURVE",
"761 103 OFFCURVE",
"564 103 CURVE SMOOTH",
"214 104 LINE",
"318 701 LINE",
"690 700 LINE SMOOTH",
"862 695 OFFCURVE",
"973 593 OFFCURVE",
"953 416 CURVE SMOOTH"
);
}
);
width = 1217;
}
);
note = B;
rightKerningGroup = B;
unicode = 0042;
},
{
glyphname = C;
lastChange = "2017-05-19 14:51:26 +0000";
layers = (
{
layerId = "4CEFE409-8F93-4A8D-8E3D-834274A593AF";
paths = (
{
closed = 1;
nodes = (
"998 338 OFFCURVE",
"944 247 OFFCURVE",
"869 180 CURVE SMOOTH",
"720 44 OFFCURVE",
"446 60 OFFCURVE",
"350 178 CURVE SMOOTH",
"253 296 OFFCURVE",
"234 479 OFFCURVE",
"257 636 CURVE SMOOTH",
"284 815 LINE SMOOTH",
"298 908 OFFCURVE",
"326 997 OFFCURVE",
"369 1083 CURVE SMOOTH",
"453 1255 OFFCURVE",
"595 1377 OFFCURVE",
"802 1372 CURVE SMOOTH",
"1029 1365 OFFCURVE",
"1126 1214 OFFCURVE",
"1127 1001 CURVE",
"1248 1000 LINE",
"1249 1139 OFFCURVE",
"1211 1253 OFFCURVE",
"1136 1341 CURVE SMOOTH",
"984 1516 OFFCURVE",
"664 1512 OFFCURVE",
"485 1386 CURVE SMOOTH",
"305 1260 OFFCURVE",
"198 1043 OFFCURVE",
"162 819 CURVE SMOOTH",
"134 637 LINE SMOOTH",
"121 534 OFFCURVE",
"125 433 OFFCURVE",
"148 334 CURVE SMOOTH",
"193 134 OFFCURVE",
"323 -15 OFFCURVE",
"562 -20 CURVE SMOOTH",
"870 -27 OFFCURVE",
"1084 161 OFFCURVE",
"1149 454 CURVE",
"1031 453 LINE"
);
}
);
width = 1290;
}
);
leftKerningGroup = C;
note = C;
rightKerningGroup = C;
unicode = 0043;
},
{
glyphname = D;
lastChange = "2017-05-19 14:51:26 +0000";
layers = (
{
layerId = "4CEFE409-8F93-4A8D-8E3D-834274A593AF";
paths = (
{
closed = 1;
nodes = (
"849 4 OFFCURVE",
"1132 272 OFFCURVE",
"1192 673 CURVE SMOOTH",
"1210 795 LINE SMOOTH",
"1225 909 OFFCURVE",
"1216 1016 OFFCURVE",
"1184 1115 CURVE SMOOTH",
"1119 1314 OFFCURVE",
"960 1450 OFFCURVE",
"715 1455 CURVE SMOOTH",
"327 1456 LINE",
"74 0 LINE",
"484 0 LINE SMOOTH"
);
},
{
closed = 1;
nodes = (
"815 1347 OFFCURVE",
"896 1319 OFFCURVE",
"955 1265 CURVE SMOOTH",
"1074 1157 OFFCURVE",
"1114 979 OFFCURVE",
"1089 798 CURVE SMOOTH",
"1068 655 LINE SMOOTH",
"1017 348 OFFCURVE",
"800 102 OFFCURVE",
"473 103 CURVE SMOOTH",
"214 104 LINE",
"431 1351 LINE",
"712 1350 LINE SMOOTH"
);
}
);
width = 1302;
}
);
note = D;
rightKerningGroup = D;
unicode = 0044;
},
{
glyphname = E;
lastChange = "2017-05-19 14:51:26 +0000";
layers = (
{
layerId = "4CEFE409-8F93-4A8D-8E3D-834274A593AF";
paths = (
{
closed = 1;
nodes = (
"973 104 LINE",
"214 104 LINE",
"318 698 LINE",
"977 698 LINE",
"996 803 LINE",
"335 803 LINE",
"431 1351 LINE",
"1184 1351 LINE",
"1203 1456 LINE",
"327 1456 LINE",
"74 0 LINE",
"955 0 LINE"
);
}
);
width = 1130;
}
);
note = E;
rightKerningGroup = E;
unicode = 0045;
},
{
glyphname = F;
lastChange = "2017-05-19 14:51:26 +0000";
layers = (
{
layerId = "4CEFE409-8F93-4A8D-8E3D-834274A593AF";
paths = (
{
closed = 1;
nodes = (
"314 680 LINE",
"971 680 LINE",
"990 786 LINE",
"332 786 LINE",
"430 1351 LINE",
"1185 1351 LINE",
"1204 1456 LINE",
"326 1456 LINE",
"73 0 LINE",
"195 0 LINE"
);
}
);
width = 1117;
}
);
note = F;
unicode = 0046;
},
{
glyphname = G;
lastChange = "2017-05-19 14:51:26 +0000";
layers = (
{
layerId = "4CEFE409-8F93-4A8D-8E3D-834274A593AF";
paths = (
{
closed = 1;
nodes = (
"696 587 LINE",
"1075 587 LINE",
"1009 211 LINE",
"956 162 OFFCURVE",
"895 129 OFFCURVE",
"824 111 CURVE SMOOTH",
"683 74 OFFCURVE",
"490 59 OFFCURVE",
"383 175 CURVE SMOOTH",
"275 291 OFFCURVE",
"248 476 OFFCURVE",
"271 644 CURVE SMOOTH",
"298 818 LINE SMOOTH",
"313 913 OFFCURVE",
"342 1003 OFFCURVE",
"385 1088 CURVE SMOOTH",
"471 1259 OFFCURVE",
"615 1376 OFFCURVE",
"823 1371 CURVE SMOOTH",
"1027 1366 OFFCURVE",
"1145 1246 OFFCURVE",
"1154 1045 CURVE",
"1274 1045 LINE",
"1270 1178 OFFCURVE",
"1228 1282 OFFCURVE",
"1147 1358 CURVE SMOOTH",
"986 1510 OFFCURVE",
"684 1511 OFFCURVE",
"502 1388 CURVE SMOOTH",
"320 1265 OFFCURVE",
"211 1051 OFFCURVE",
"176 822 CURVE SMOOTH",
"148 645 LINE SMOOTH",
"134 537 OFFCURVE",
"140 433 OFFCURVE",
"167 332 CURVE SMOOTH",
"220 130 OFFCURVE",
"364 -16 OFFCURVE",
"609 -20 CURVE SMOOTH",
"789 -23 OFFCURVE",
"1012 22 OFFCURVE",
"1131 174 CURVE",
"1215 692 LINE",
"714 692 LINE"
);
}
);
width = 1359;
}
);
leftKerningGroup = C;
note = G;
unicode = 0047;
},
{
glyphname = H;
lastChange = "2017-05-19 14:51:26 +0000";
layers = (
{
layerId = "4CEFE409-8F93-4A8D-8E3D-834274A593AF";
paths = (
{
closed = 1;
nodes = (
"1375 1456 LINE",
"1252 1456 LINE",
"1139 803 LINE",
"334 803 LINE",
"448 1456 LINE",
"326 1456 LINE",
"73 0 LINE",
"195 0 LINE",
"317 698 LINE",
"1121 698 LINE",
"999 0 LINE",
"1121 0 LINE"
);
}
);
width = 1406;
}
);
note = H;
rightKerningGroup = H;
unicode = 0048;
},
{
glyphname = I;
lastChange = "2017-05-19 14:51:26 +0000";
layers = (
{
layerId = "4CEFE409-8F93-4A8D-8E3D-834274A593AF";
paths = (
{
closed = 1;
nodes = (
"100 0 LINE",
"222 0 LINE",
"475 1456 LINE",
"353 1456 LINE"
);
}
);
width = 530;
}
);
note = I;
rightKerningGroup = H;
unicode = 0049;
},
{
glyphname = J;
lastChange = "2017-05-19 14:51:26 +0000";
layers = (
{
layerId = "4CEFE409-8F93-4A8D-8E3D-834274A593AF";
paths = (
{
closed = 1;
nodes = (
"747 241 OFFCURVE",
"616 78 OFFCURVE",
"408 83 CURVE SMOOTH",
"215 88 OFFCURVE",
"140 221 OFFCURVE",
"157 402 CURVE",
"35 402 LINE",
"11 151 OFFCURVE",
"144 -16 OFFCURVE",
"400 -21 CURVE SMOOTH",
"676 -28 OFFCURVE",
"860 171 OFFCURVE",
"897 434 CURVE SMOOTH",
"1072 1456 LINE",
"950 1456 LINE",
"775 433 LINE SMOOTH"
);
}
);
width = 1094;
}
);
leftKerningGroup = J;
note = J;
rightKerningGroup = J;
unicode = 004A;
},
{
glyphname = K;
lastChange = "2017-05-19 14:51:26 +0000";
layers = (
{
layerId = "4CEFE409-8F93-4A8D-8E3D-834274A593AF";
paths = (
{
closed = 1;
nodes = (
"615 803 LINE",
"1326 1456 LINE",
"1163 1456 LINE",
"550 895 LINE",
"313 682 LINE",
"448 1456 LINE",
"326 1456 LINE",
"73 0 LINE",
"195 0 LINE",
"285 517 LINE",
"522 721 LINE",
"973 0 LINE",
"1110 0 LINE"
);
}
);
width = 1253;
}
);
note = K;
rightKerningGroup = K;
unicode = 004B;
},
{
glyphname = L;
lastChange = "2017-05-19 14:51:26 +0000";
layers = (
{
layerId = "4CEFE409-8F93-4A8D-8E3D-834274A593AF";
paths = (
{
closed = 1;
nodes = (
"450 1456 LINE",
"327 1456 LINE",
"74 0 LINE",
"894 0 LINE",
"912 104 LINE",
"215 104 LINE"
);
}
);
width = 1048;
}
);
note = L;
rightKerningGroup = L;
unicode = 004C;
},
{
glyphname = M;
lastChange = "2017-05-19 14:51:26 +0000";
layers = (
{
layerId = "4CEFE409-8F93-4A8D-8E3D-834274A593AF";
paths = (
{
closed = 1;
nodes = (
"326 1456 LINE",
"73 0 LINE",
"195 0 LINE",
"305 634 LINE",
"407 1280 LINE",
"709 0 LINE",
"803 0 LINE",
"1545 1271 LINE",
"1425 640 LINE",
"1314 0 LINE",
"1436 0 LINE",
"1689 1456 LINE",
"1524 1456 LINE",
"781 175 LINE",
"483 1456 LINE"
);
}
);
width = 1719;
}
);
note = M;
rightKerningGroup = H;
unicode = 004D;
},
{
glyphname = N;
lastChange = "2017-05-19 14:51:26 +0000";
layers = (
{
layerId = "4CEFE409-8F93-4A8D-8E3D-834274A593AF";
paths = (
{
closed = 1;
nodes = (
"1041 208 LINE",
"444 1456 LINE",
"326 1456 LINE",
"73 0 LINE",
"196 0 LINE",
"413 1248 LINE",
"1009 0 LINE",
"1128 0 LINE",
"1380 1456 LINE",
"1258 1456 LINE"
);
}
);
width = 1411;
}
);
note = N;
rightKerningGroup = H;
unicode = 004E;
},
{
glyphname = O;
lastChange = "2017-05-19 14:51:26 +0000";
layers = (
{
layerId = "4CEFE409-8F93-4A8D-8E3D-834274A593AF";
paths = (
{
closed = 1;
nodes = (
"1286 1019 OFFCURVE",
"1242 1238 OFFCURVE",
"1102 1372 CURVE SMOOTH",
"962 1506 OFFCURVE",
"668 1512 OFFCURVE",
"485 1384 CURVE SMOOTH",
"301 1255 OFFCURVE",
"191 1034 OFFCURVE",
"155 806 CURVE SMOOTH",
"132 650 LINE SMOOTH",
"103 438 OFFCURVE",
"148 219 OFFCURVE",
"288 85 CURVE SMOOTH",
"428 -49 OFFCURVE",
"723 -56 OFFCURVE",
"906 72 CURVE SMOOTH",
"1089 200 OFFCURVE",
"1198 420 OFFCURVE",
"1234 651 CURVE SMOOTH",
"1257 806 LINE SMOOTH"
);
},
{
closed = 1;
nodes = (
"1081 456 OFFCURVE",
"998 273 OFFCURVE",
"852 165 CURVE SMOOTH",
"706 56 OFFCURVE",
"457 63 OFFCURVE",
"355 180 CURVE SMOOTH",
"253 297 OFFCURVE",
"231 484 OFFCURVE",
"254 649 CURVE SMOOTH",
"278 808 LINE SMOOTH",
"306 993 OFFCURVE",
"391 1181 OFFCURVE",
"538 1291 CURVE SMOOTH",
"685 1401 OFFCURVE",
"934 1393 OFFCURVE",
"1037 1277 CURVE SMOOTH",
"1140 1161 OFFCURVE",
"1160 977 OFFCURVE",
"1137 809 CURVE SMOOTH",
"1112 644 LINE SMOOTH"
);
}
);
width = 1345;
}
);
leftKerningGroup = C;
note = O;
rightKerningGroup = D;
unicode = 004F;
},
{
glyphname = P;
lastChange = "2017-05-19 14:51:26 +0000";
layers = (
{
layerId = "4CEFE409-8F93-4A8D-8E3D-834274A593AF";
paths = (
{
closed = 1;
nodes = (
"946 592 OFFCURVE",
"1181 733 OFFCURVE",
"1209 1029 CURVE SMOOTH",
"1233 1296 OFFCURVE",
"1057 1448 OFFCURVE",
"800 1455 CURVE SMOOTH",
"326 1456 LINE",
"73 0 LINE",
"195 0 LINE",
"298 593 LINE",
"666 592 LINE SMOOTH"
);
},
{
closed = 1;
nodes = (
"992 1345 OFFCURVE",
"1110 1225 OFFCURVE",
"1087 1028 CURVE SMOOTH",
"1060 807 OFFCURVE",
"883 697 OFFCURVE",
"672 697 CURVE SMOOTH",
"316 698 LINE",
"430 1351 LINE",
"797 1350 LINE SMOOTH"
);
}
);
width = 1223;
}
);
note = P;
rightKerningGroup = P;
unicode = 0050;
},
{
glyphname = Q;
lastChange = "2017-05-19 14:51:26 +0000";
layers = (
{
layerId = "4CEFE409-8F93-4A8D-8E3D-834274A593AF";
paths = (
{
closed = 1;
nodes = (
"1079 174 OFFCURVE",
"1190 401 OFFCURVE",
"1229 650 CURVE SMOOTH",
"1253 806 LINE SMOOTH",
"1281 1019 OFFCURVE",
"1237 1238 OFFCURVE",
"1097 1372 CURVE SMOOTH",
"957 1506 OFFCURVE",
"662 1512 OFFCURVE",
"479 1384 CURVE SMOOTH",
"295 1255 OFFCURVE",
"185 1034 OFFCURVE",
"149 806 CURVE SMOOTH",
"126 650 LINE SMOOTH",
"112 545 OFFCURVE",
"117 441 OFFCURVE",
"142 339 CURVE SMOOTH",
"190 135 OFFCURVE",
"325 -15 OFFCURVE",
"570 -19 CURVE SMOOTH",
"621 -20 OFFCURVE",
"676 -13 OFFCURVE",
"734 2 CURVE",
"976 -255 LINE",
"1067 -183 LINE",
"851 51 LINE"
);
},
{
closed = 1;
nodes = (
"1075 457 OFFCURVE",
"993 273 OFFCURVE",
"847 165 CURVE SMOOTH",
"701 56 OFFCURVE",
"452 63 OFFCURVE",
"350 180 CURVE SMOOTH",
"248 297 OFFCURVE",
"226 484 OFFCURVE",
"249 649 CURVE SMOOTH",
"274 814 LINE SMOOTH",
"305 999 OFFCURVE",
"389 1183 OFFCURVE",
"535 1292 CURVE SMOOTH",
"681 1400 OFFCURVE",
"930 1393 OFFCURVE",
"1032 1278 CURVE SMOOTH",
"1134 1162 OFFCURVE",
"1154 978 OFFCURVE",
"1131 810 CURVE SMOOTH",
"1106 644 LINE SMOOTH"
);
}
);
width = 1345;
}
);
leftKerningGroup = C;
note = Q;
unicode = 0051;
},
{
glyphname = R;
lastChange = "2017-05-19 14:51:26 +0000";
layers = (
{
layerId = "4CEFE409-8F93-4A8D-8E3D-834274A593AF";
paths = (
{
closed = 1;
nodes = (
"1077 14 LINE",
"830 630 LINE",
"1023 686 OFFCURVE",
"1170 828 OFFCURVE",
"1189 1035 CURVE SMOOTH",
"1214 1304 OFFCURVE",
"1032 1448 OFFCURVE",
"776 1455 CURVE SMOOTH",
"324 1456 LINE",
"71 0 LINE",
"193 0 LINE",
"299 607 LINE",
"711 607 LINE",
"945 0 LINE",
"1076 0 LINE"
);
},
{
closed = 1;
nodes = (
"967 1345 OFFCURVE",
"1091 1235 OFFCURVE",
"1068 1036 CURVE SMOOTH",
"1044 833 OFFCURVE",
"873 711 OFFCURVE",
"677 710 CURVE SMOOTH",
"317 711 LINE",
"428 1351 LINE",
"776 1350 LINE SMOOTH"
);
}
);
width = 1262;
}
);
note = R;
unicode = 0052;
},
{
glyphname = S;
lastChange = "2017-05-19 14:51:26 +0000";
layers = (
{
layerId = "4CEFE409-8F93-4A8D-8E3D-834274A593AF";
paths = (
{
closed = 1;
nodes = (
"910 163 OFFCURVE",
"703 80 OFFCURVE",
"522 83 CURVE SMOOTH",
"318 87 OFFCURVE",
"156 196 OFFCURVE",
"177 416 CURVE",
"54 416 LINE",
"30 135 OFFCURVE",
"256 -16 OFFCURVE",
"517 -20 CURVE SMOOTH",
"680 -23 OFFCURVE",
"852 29 OFFCURVE",
"964 145 CURVE SMOOTH",
"1075 261 OFFCURVE",
"1084 459 OFFCURVE",
"1019 564 CURVE SMOOTH",
"954 669 OFFCURVE",
"829 737 OFFCURVE",
"646 797 CURVE SMOOTH",
"555 826 OFFCURVE",
"488 856 OFFCURVE",
"445 885 CURVE SMOOTH",
"359 944 OFFCURVE",
"329 1005 OFFCURVE",
"341 1096 CURVE SMOOTH",
"365 1291 OFFCURVE",
"564 1375 OFFCURVE",
"740 1371 CURVE SMOOTH",
"939 1367 OFFCURVE",
"1065 1241 OFFCURVE",
"1045 1041 CURVE",
"1167 1041 LINE",
"1190 1302 OFFCURVE",
"999 1471 OFFCURVE",
"746 1476 CURVE SMOOTH",
"587 1479 OFFCURVE",
"419 1425 OFFCURVE",
"311 1310 CURVE SMOOTH",
"202 1195 OFFCURVE",
"196 1012 OFFCURVE",
"250 917 CURVE SMOOTH",
"304 821 OFFCURVE",
"421 749 OFFCURVE",
"621 683 CURVE SMOOTH",
"721 650 OFFCURVE",
"793 618 OFFCURVE",
"836 587 CURVE SMOOTH",
"922 526 OFFCURVE",
"947 462 OFFCURVE",
"935 366 CURVE SMOOTH"
);
}
);
width = 1177;
}
);
leftKerningGroup = S;
note = S;
unicode = 0053;
},
{
glyphname = T;
lastChange = "2017-05-19 14:51:26 +0000";
layers = (
{
layerId = "4CEFE409-8F93-4A8D-8E3D-834274A593AF";
paths = (
{
closed = 1;
nodes = (
"429 0 LINE",
"550 0 LINE",
"785 1351 LINE",
"1268 1351 LINE",
"1287 1456 LINE",
"198 1456 LINE",
"179 1351 LINE",
"664 1351 LINE"
);
}
);
width = 1186;
}
);
leftKerningGroup = T;
note = T;
rightKerningGroup = T;
unicode = 0054;
},
{
glyphname = U;
lastChange = "2017-05-19 14:51:26 +0000";
layers = (
{
layerId = "4CEFE409-8F93-4A8D-8E3D-834274A593AF";
paths = (
{
closed = 1;
nodes = (
"969 230 OFFCURVE",
"801 77 OFFCURVE",
"564 84 CURVE SMOOTH",
"339 91 OFFCURVE",
"234 254 OFFCURVE",
"259 469 CURVE",
"427 1456 LINE",
"306 1456 LINE",
"137 470 LINE",
"102 185 OFFCURVE",
"269 -16 OFFCURVE",
"558 -21 CURVE SMOOTH",
"865 -26 OFFCURVE",
"1088 172 OFFCURVE",
"1133 472 CURVE SMOOTH",
"1302 1456 LINE",
"1180 1456 LINE",
"1009 458 LINE SMOOTH"
);
}
);
width = 1307;
}
);
leftKerningGroup = U;
note = U;
rightKerningGroup = J;
unicode = 0055;
},
{
glyphname = V;
lastChange = "2017-05-19 14:51:26 +0000";
layers = (
{
layerId = "4CEFE409-8F93-4A8D-8E3D-834274A593AF";
paths = (
{
closed = 1;
nodes = (
"551 181 LINE",
"538 150 LINE",
"535 181 LINE",
"293 1456 LINE",
"165 1456 LINE",
"462 0 LINE",
"579 0 LINE",
"1333 1456 LINE",
"1196 1456 LINE"
);
}
);
width = 1226;
}
);
leftKerningGroup = V;
note = V;
rightKerningGroup = V;
unicode = 0056;
},
{
glyphname = W;
lastChange = "2017-05-19 14:51:26 +0000";
layers = (
{
layerId = "4CEFE409-8F93-4A8D-8E3D-834274A593AF";
paths = (
{
closed = 1;
nodes = (
"1319 398 LINE",
"1237 172 LINE",
"1220 381 LINE",
"1085 1456 LINE",
"975 1456 LINE",
"503 388 LINE",
"416 174 LINE",
"408 389 LINE",
"315 1456 LINE",
"193 1456 LINE",
"328 0 LINE",
"445 0 LINE",
"948 1136 LINE",
"1006 1278 LINE",
"1017 1144 LINE",
"1161 0 LINE",
"1278 0 LINE",
"1867 1456 LINE",
"1739 1456 LINE"
);
}
);
width = 1781;
}
);
leftKerningGroup = W;
note = W;
rightKerningGroup = W;
unicode = 0057;
},
{
glyphname = X;
lastChange = "2017-05-19 14:51:26 +0000";
layers = (
{
layerId = "4CEFE409-8F93-4A8D-8E3D-834274A593AF";
paths = (
{
closed = 1;
nodes = (
"557 745 LINE",
"-45 0 LINE",
"106 0 LINE",
"618 634 LINE",
"929 0 LINE",
"1066 0 LINE",
"702 733 LINE",
"1287 1456 LINE",
"1134 1456 LINE",
"642 842 LINE",
"342 1456 LINE",
"204 1456 LINE"
);
}
);
width = 1216;
}
);
leftKerningGroup = X;
note = X;
rightKerningGroup = X;
unicode = 0058;
},
{
glyphname = Y;
lastChange = "2017-05-19 14:51:26 +0000";
layers = (
{
layerId = "4CEFE409-8F93-4A8D-8E3D-834274A593AF";
paths = (
{
closed = 1;
nodes = (
"525 556 LINE",
"428 0 LINE",
"550 0 LINE",
"644 543 LINE",
"1317 1456 LINE",
"1168 1456 LINE",
"600 664 LINE",
"311 1456 LINE",
"174 1456 LINE"
);
}
);
width = 1190;
}
);
leftKerningGroup = Y;
note = Y;
rightKerningGroup = Y;
unicode = 0059;
},
{
glyphname = Z;
lastChange = "2017-05-19 14:51:26 +0000";
layers = (
{
layerId = "4CEFE409-8F93-4A8D-8E3D-834274A593AF";
paths = (
{
closed = 1;
nodes = (
"-1 99 LINE",
"-18 0 LINE",
"1001 0 LINE",
"1020 104 LINE",
"152 104 LINE",
"1207 1362 LINE",
"1223 1456 LINE",
"261 1456 LINE",
"242 1352 LINE",
"1052 1352 LINE"
);
}
);
width = 1188;
}
);
leftKerningGroup = Z;
note = Z;
rightKerningGroup = Z;
unicode = 005A;
},
{
glyphname = bracketleft;
lastChange = "2017-05-19 14:51:26 +0000";
layers = (
{
layerId = "4CEFE409-8F93-4A8D-8E3D-834274A593AF";
paths = (
{
closed = 1;
nodes = (
"15 -312 LINE",
"338 -312 LINE",
"355 -210 LINE",
"151 -210 LINE",
"427 1562 LINE",
"631 1562 LINE",
"647 1664 LINE",
"324 1664 LINE"
);
}
);
width = 476;
}
);
note = bracketleft;
unicode = 005B;
},
{
glyphname = backslash;
lastChange = "2017-05-19 14:51:26 +0000";
layers = (
{
layerId = "4CEFE409-8F93-4A8D-8E3D-834274A593AF";
paths = (
{
closed = 1;
nodes = (
"307 1456 LINE",
"197 1456 LINE",
"512 -125 LINE",
"623 -125 LINE"
);
}
);
width = 783;
}
);
note = backslash;
unicode = 005C;
},
{
glyphname = bracketright;
lastChange = "2017-05-19 14:51:26 +0000";
layers = (
{
layerId = "4CEFE409-8F93-4A8D-8E3D-834274A593AF";
paths = (
{
closed = 1;
nodes = (
"77 -210 LINE",
"-127 -210 LINE",
"-143 -312 LINE",
"180 -312 LINE",
"489 1664 LINE",
"166 1664 LINE",
"150 1562 LINE",
"354 1562 LINE"
);
}
);
width = 476;
}
);
note = bracketright;
unicode = 005D;
},
{
glyphname = asciicircum;
lastChange = "2017-05-19 14:51:26 +0000";
layers = (
{
layerId = "4CEFE409-8F93-4A8D-8E3D-834274A593AF";
paths = (
{
closed = 1;
nodes = (
"532 1295 LINE",
"653 729 LINE",
"762 729 LINE",
"599 1456 LINE",
"507 1455 LINE",
"98 730 LINE",
"212 730 LINE"
);
}
);
width = 827;
}
);
note = asciicircum;
unicode = 005E;
},
{
glyphname = underscore;
lastChange = "2017-05-19 14:51:26 +0000";
layers = (
{
layerId = "4CEFE409-8F93-4A8D-8E3D-834274A593AF";
paths = (
{
closed = 1;
nodes = (
"-122 -102 LINE",
"735 -102 LINE",
"754 0 LINE",
"-104 0 LINE"
);
}
);
width = 858;
}
);
note = underscore;
unicode = 005F;
},
{
glyphname = grave;
lastChange = "2017-05-19 14:51:26 +0000";
layers = (
{
layerId = "4CEFE409-8F93-4A8D-8E3D-834274A593AF";
paths = (
{
closed = 1;
nodes = (
"426 1257 LINE",
"526 1257 LINE",
"384 1536 LINE",
"249 1536 LINE"
);
}
);
width = 567;
}
);
note = grave;
unicode = 0060;
},
{
glyphname = a;
lastChange = "2017-05-19 14:51:26 +0000";
layers = (
{
layerId = "4CEFE409-8F93-4A8D-8E3D-834274A593AF";
paths = (
{
closed = 1;
nodes = (
"841 13 LINE",
"833 48 OFFCURVE",
"830 84 OFFCURVE",
"833 120 CURVE SMOOTH",
"841 207 LINE",
"931 750 LINE",
"954 969 OFFCURVE",
"811 1099 OFFCURVE",
"599 1103 CURVE SMOOTH",
"403 1107 OFFCURVE",
"184 995 OFFCURVE",
"155 784 CURVE",
"272 784 LINE",
"304 929 OFFCURVE",
"445 1006 OFFCURVE",
"588 1003 CURVE SMOOTH",
"741 999 OFFCURVE",
"829 906 OFFCURVE",
"812 753 CURVE SMOOTH",
"794 630 LINE",
"574 631 LINE SMOOTH",
"499 631 OFFCURVE",
"421 620 OFFCURVE",
"342 599 CURVE SMOOTH",
"182 556 OFFCURVE",
"56 458 OFFCURVE",
"43 279 CURVE SMOOTH",
"31 98 OFFCURVE",
"169 -16 OFFCURVE",
"342 -20 CURVE SMOOTH",
"490 -23 OFFCURVE",
"621 43 OFFCURVE",
"721 151 CURVE",
"713 76 LINE SMOOTH",
"711 51 OFFCURVE",
"712 25 OFFCURVE",
"716 0 CURVE",
"839 0 LINE"
);
},
{
closed = 1;
nodes = (
"302 87 OFFCURVE",
"253 106 OFFCURVE",
"214 142 CURVE SMOOTH",
"134 214 OFFCURVE",
"151 372 OFFCURVE",
"245 444 CURVE SMOOTH",
"339 516 OFFCURVE",
"477 539 OFFCURVE",
"588 539 CURVE SMOOTH",
"779 538 LINE",
"738 298 LINE",
"655 167 OFFCURVE",
"520 81 OFFCURVE",
"361 85 CURVE SMOOTH"
);
}
);
width = 1065;
}
);
leftKerningGroup = a;
note = a;
rightKerningGroup = a;
unicode = 0061;
},
{
glyphname = b;
lastChange = "2017-05-19 14:51:26 +0000";
layers = (
{
layerId = "4CEFE409-8F93-4A8D-8E3D-834274A593AF";
paths = (
{
closed = 1;
nodes = (
"602 -23 OFFCURVE",
"686 4 OFFCURVE",
"753 59 CURVE SMOOTH",
"880 163 OFFCURVE",
"958 328 OFFCURVE",
"989 553 CURVE SMOOTH",
"1006 712 OFFCURVE",
"986 894 OFFCURVE",
"889 1011 CURVE SMOOTH",
"792 1127 OFFCURVE",
"504 1166 OFFCURVE",
"317 926 CURVE",
"430 1536 LINE",
"311 1536 LINE",
"44 0 LINE",
"156 0 LINE",
"191 150 LINE",
"255 35 OFFCURVE",
"372 -18 OFFCURVE",
"501 -21 CURVE SMOOTH"
);
},
{
closed = 1;
nodes = (
"718 997 OFFCURVE",
"774 971 OFFCURVE",
"809 922 CURVE SMOOTH",
"877 823 OFFCURVE",
"882 673 OFFCURVE",
"867 553 CURVE SMOOTH",
"865 533 LINE",
"846 394 OFFCURVE",
"793 241 OFFCURVE",
"688 149 CURVE SMOOTH",
"583 56 OFFCURVE",
"296 23 OFFCURVE",
"215 287 CURVE",
"297 778 LINE",
"370 909 OFFCURVE",
"481 1004 OFFCURVE",
"640 999 CURVE SMOOTH"
);
}
);
width = 1101;
}
);
note = b;
rightKerningGroup = b;
unicode = 0062;
},
{
glyphname = c;
lastChange = "2017-05-19 14:51:26 +0000";
layers = (
{
layerId = "4CEFE409-8F93-4A8D-8E3D-834274A593AF";
paths = (
{
closed = 1;
nodes = (
"381 84 OFFCURVE",
"321 108 OFFCURVE",
"281 153 CURVE SMOOTH",
"200 244 OFFCURVE",
"184 387 OFFCURVE",
"197 518 CURVE SMOOTH",
"202 560 LINE SMOOTH",
"211 632 OFFCURVE",
"231 702 OFFCURVE",
"262 771 CURVE SMOOTH",
"325 907 OFFCURVE",
"435 1005 OFFCURVE",
"600 1000 CURVE SMOOTH",
"763 996 OFFCURVE",
"853 874 OFFCURVE",
"849 718 CURVE",
"961 717 LINE",
"965 827 OFFCURVE",
"935 918 OFFCURVE",
"870 990 CURVE SMOOTH",
"740 1134 OFFCURVE",
"487 1132 OFFCURVE",
"340 1029 CURVE SMOOTH",
"193 925 OFFCURVE",
"106 748 OFFCURVE",
"85 560 CURVE SMOOTH",
"81 517 LINE SMOOTH",
"72 430 OFFCURVE",
"79 345 OFFCURVE",
"100 264 CURVE SMOOTH",
"143 101 OFFCURVE",
"255 -17 OFFCURVE",
"455 -21 CURVE SMOOTH",
"672 -25 OFFCURVE",
"864 119 OFFCURVE",
"901 335 CURVE",
"790 334 LINE",
"750 179 OFFCURVE",
"624 77 OFFCURVE",
"461 81 CURVE SMOOTH"
);
}
);
width = 1024;
}
);
leftKerningGroup = c;
note = c;
rightKerningGroup = c;
unicode = 0063;
},
{
glyphname = d;
lastChange = "2017-05-19 14:51:26 +0000";
layers = (
{
layerId = "4CEFE409-8F93-4A8D-8E3D-834274A593AF";
paths = (
{
closed = 1;
nodes = (
"1114 1536 LINE",
"995 1536 LINE",
"886 930 LINE",
"855 987 OFFCURVE",
"813 1030 OFFCURVE",
"760 1058 CURVE SMOOTH",
"654 1114 OFFCURVE",
"465 1134 OFFCURVE",
"329 1023 CURVE SMOOTH",
"201 920 OFFCURVE",
"122 754 OFFCURVE",
"91 527 CURVE SMOOTH",
"74 372 OFFCURVE",
"96 189 OFFCURVE",
"195 72 CURVE SMOOTH",
"294 -45 OFFCURVE",
"576 -83 OFFCURVE",
"763 144 CURVE",
"736 0 LINE",
"847 0 LINE"
);
},
{
closed = 1;
nodes = (
"207 400 OFFCURVE",
"208 470 OFFCURVE",
"215 549 CURVE",
"234 689 OFFCURVE",
"289 841 OFFCURVE",
"396 934 CURVE SMOOTH",
"503 1026 OFFCURVE",
"783 1060 OFFCURVE",
"864 792 CURVE",
"777 278 LINE",
"701 158 OFFCURVE",
"589 79 OFFCURVE",
"442 84 CURVE SMOOTH",
"287 88 OFFCURVE",
"225 201 OFFCURVE",
"213 337 CURVE SMOOTH"
);
}
);
width = 1104;
}
);
leftKerningGroup = c;
note = d;
unicode = 0064;
},
{
glyphname = e;
lastChange = "2017-05-19 14:51:26 +0000";
layers = (
{
layerId = "4CEFE409-8F93-4A8D-8E3D-834274A593AF";
paths = (
{
closed = 1;
nodes = (
"700 127 OFFCURVE",
"595 79 OFFCURVE",
"479 82 CURVE SMOOTH",
"404 84 OFFCURVE",
"344 107 OFFCURVE",
"299 151 CURVE SMOOTH",
"209 239 OFFCURVE",
"176 379 OFFCURVE",
"193 510 CURVE SMOOTH",
"196 534 LINE",
"945 534 LINE",
"954 607 LINE SMOOTH",
"969 770 OFFCURVE",
"930 930 OFFCURVE",
"822 1027 CURVE SMOOTH",
"714 1123 OFFCURVE",
"491 1133 OFFCURVE",
"341 1025 CURVE SMOOTH",
"191 916 OFFCURVE",
"98 733 OFFCURVE",
"78 552 CURVE SMOOTH",
"74 508 LINE SMOOTH",
"67 421 OFFCURVE",
"76 337 OFFCURVE",
"102 257 CURVE SMOOTH",
"154 97 OFFCURVE",
"277 -16 OFFCURVE",
"470 -20 CURVE SMOOTH",
"633 -23 OFFCURVE",
"764 41 OFFCURVE",
"865 170 CURVE",
"793 228 LINE"
);
},
{
closed = 1;
nodes = (
"785 995 OFFCURVE",
"860 817 OFFCURVE",
"839 650 CURVE SMOOTH",
"837 635 LINE",
"210 636 LINE",
"263 817 OFFCURVE",
"385 1008 OFFCURVE",
"597 1000 CURVE SMOOTH"
);
}
);
width = 1027;
}
);
leftKerningGroup = c;
note = e;
rightKerningGroup = e;
unicode = 0065;
},
{
glyphname = f;
lastChange = "2017-05-19 14:51:26 +0000";
layers = (
{
layerId = "4CEFE409-8F93-4A8D-8E3D-834274A593AF";
paths = (
{
closed = 1;
nodes = (
"436 1082 LINE",
"455 1211 LINE SMOOTH",
"475 1350 OFFCURVE",
"558 1456 OFFCURVE",
"703 1456 CURVE SMOOTH",
"736 1456 OFFCURVE",
"772 1451 OFFCURVE",
"811 1441 CURVE",
"832 1540 LINE",
"782 1552 OFFCURVE",
"738 1559 OFFCURVE",
"700 1560 CURVE SMOOTH",
"488 1563 OFFCURVE",
"364 1417 OFFCURVE",
"337 1217 CURVE SMOOTH",
"318 1082 LINE",
"144 1082 LINE",
"126 984 LINE",
"301 984 LINE",
"130 0 LINE",
"249 0 LINE",
"420 984 LINE",
"670 984 LINE",
"688 1082 LINE"
);
}
);
width = 658;
}
);
note = f;
unicode = 0066;
},
{
glyphname = g;
lastChange = "2017-05-19 14:51:26 +0000";
layers = (
{
layerId = "4CEFE409-8F93-4A8D-8E3D-834274A593AF";
paths = (
{
closed = 1;
nodes = (
"925 1082 LINE",
"888 926 LINE",
"858 985 OFFCURVE",
"816 1028 OFFCURVE",
"763 1057 CURVE SMOOTH",
"655 1114 OFFCURVE",
"468 1133 OFFCURVE",
"333 1026 CURVE SMOOTH",
"204 925 OFFCURVE",
"124 758 OFFCURVE",
"93 527 CURVE SMOOTH",
"76 372 OFFCURVE",
"98 190 OFFCURVE",
"196 72 CURVE SMOOTH",
"294 -46 OFFCURVE",
"573 -80 OFFCURVE",
"761 141 CURVE",
"735 14 LINE SMOOTH",
"718 -85 OFFCURVE",
"679 -168 OFFCURVE",
"617 -235 CURVE SMOOTH",
"492 -369 OFFCURVE",
"229 -379 OFFCURVE",
"92 -172 CURVE",
"18 -243 LINE",
"94 -360 OFFCURVE",
"223 -428 OFFCURVE",
"363 -432 CURVE SMOOTH",
"638 -440 OFFCURVE",
"817 -241 OFFCURVE",
"854 19 CURVE SMOOTH",
"1036 1082 LINE"
);
},
{
closed = 1;
nodes = (
"225 618 OFFCURVE",
"245 688 OFFCURVE",
"274 759 CURVE SMOOTH",
"332 899 OFFCURVE",
"436 1004 OFFCURVE",
"601 999 CURVE SMOOTH",
"738 995 OFFCURVE",
"828 914 OFFCURVE",
"864 785 CURVE",
"779 283 LINE",
"694 146 OFFCURVE",
"582 79 OFFCURVE",
"443 84 CURVE SMOOTH",
"366 86 OFFCURVE",
"310 112 OFFCURVE",
"275 161 CURVE SMOOTH",
"206 260 OFFCURVE",
"199 409 OFFCURVE",
"214 528 CURVE SMOOTH",
"216 549 LINE SMOOTH"
);
}
);
width = 1103;
}
);
leftKerningGroup = c;
note = g;
unicode = 0067;
},
{
glyphname = h;
lastChange = "2017-05-19 14:51:26 +0000";
layers = (
{
layerId = "4CEFE409-8F93-4A8D-8E3D-834274A593AF";
paths = (
{
closed = 1;
nodes = (
"823 996 OFFCURVE",
"856 859 OFFCURVE",
"839 706 CURVE",
"721 0 LINE",
"840 0 LINE",
"958 705 LINE",
"982 914 OFFCURVE",
"916 1098 OFFCURVE",
"681 1102 CURVE SMOOTH",
"528 1106 OFFCURVE",
"403 1021 OFFCURVE",
"314 901 CURVE",
"431 1536 LINE",
"312 1536 LINE",
"45 0 LINE",
"164 0 LINE",
"293 745 LINE",
"365 880 OFFCURVE",
"482 1004 OFFCURVE",
"647 1000 CURVE SMOOTH"
);
}
);
width = 1091;
}
);
note = h;
rightKerningGroup = h;
unicode = 0068;
},
{
glyphname = i;
lastChange = "2017-05-19 14:51:26 +0000";
layers = (
{
layerId = "4CEFE409-8F93-4A8D-8E3D-834274A593AF";
paths = (
{
closed = 1;
nodes = (
"279 1350 OFFCURVE",
"304 1323 OFFCURVE",
"358 1315 CURVE",
"404 1324 OFFCURVE",
"433 1351 OFFCURVE",
"444 1395 CURVE",
"439 1442 OFFCURVE",
"414 1469 OFFCURVE",
"367 1477 CURVE",
"312 1466 OFFCURVE",
"284 1438 OFFCURVE",
"282 1395 CURVE SMOOTH"
);
},
{
closed = 1;
nodes = (
"60 0 LINE",
"179 0 LINE",
"367 1082 LINE",
"249 1082 LINE"
);
}
);
width = 446;
}
);
note = i;
unicode = 0069;
},
{
glyphname = j;
lastChange = "2017-05-19 14:51:26 +0000";
layers = (
{
layerId = "4CEFE409-8F93-4A8D-8E3D-834274A593AF";
paths = (
{
closed = 1;
nodes = (
"273 1350 OFFCURVE",
"308 1315 OFFCURVE",
"353 1315 CURVE SMOOTH",
"397 1316 OFFCURVE",
"435 1351 OFFCURVE",
"439 1395 CURVE SMOOTH",
"442 1442 OFFCURVE",
"407 1477 OFFCURVE",
"362 1477 CURVE SMOOTH",
"317 1476 OFFCURVE",
"280 1439 OFFCURVE",
"277 1395 CURVE SMOOTH"
);
},
{
closed = 1;
nodes = (
"19 -246 OFFCURVE",
"-47 -340 OFFCURVE",
"-175 -336 CURVE SMOOTH",
"-196 -336 OFFCURVE",
"-225 -331 OFFCURVE",
"-262 -320 CURVE",
"-272 -421 LINE",
"-231 -433 OFFCURVE",
"-195 -440 OFFCURVE",
"-164 -441 CURVE SMOOTH",
"31 -444 OFFCURVE",
"133 -309 OFFCURVE",
"157 -129 CURVE",
"362 1082 LINE",
"243 1082 LINE",
"36 -129 LINE SMOOTH"
);
}
);
width = 454;
}
);
note = j;
unicode = 006A;
},
{
glyphname = k;
lastChange = "2017-05-19 14:51:26 +0000";
layers = (
{
layerId = "4CEFE409-8F93-4A8D-8E3D-834274A593AF";
paths = (
{
closed = 1;
nodes = (
"485 620 LINE",
"1016 1082 LINE",
"857 1082 LINE",
"384 677 LINE",
"261 563 LINE",
"431 1536 LINE",
"313 1536 LINE",
"46 0 LINE",
"164 0 LINE",
"235 409 LINE",
"395 543 LINE",
"725 0 LINE",
"857 0 LINE"
);
}
);
width = 974;
}
);
note = k;
unicode = 006B;
},
{
glyphname = l;
lastChange = "2017-05-19 14:51:26 +0000";
layers = (
{
layerId = "4CEFE409-8F93-4A8D-8E3D-834274A593AF";
paths = (
{
closed = 1;
nodes = (
"60 0 LINE",
"179 0 LINE",
"446 1536 LINE",
"327 1536 LINE"
);
}
);
width = 446;
}
);
note = l;
unicode = 006C;
},
{
glyphname = m;
lastChange = "2017-05-19 14:51:26 +0000";
layers = (
{
layerId = "4CEFE409-8F93-4A8D-8E3D-834274A593AF";
paths = (
{
closed = 1;
nodes = (
"806 996 OFFCURVE",
"852 873 OFFCURVE",
"836 717 CURVE",
"716 0 LINE",
"835 0 LINE",
"959 716 LINE",
"995 877 OFFCURVE",
"1148 1003 OFFCURVE",
"1313 1000 CURVE SMOOTH",
"1490 997 OFFCURVE",
"1531 866 OFFCURVE",
"1514 707 CURVE",
"1396 0 LINE",
"1514 0 LINE",
"1633 705 LINE",
"1656 920 OFFCURVE",
"1583 1098 OFFCURVE",
"1346 1102 CURVE SMOOTH",
"1183 1105 OFFCURVE",
"1051 1020 OFFCURVE",
"958 893 CURVE",
"931 1036 OFFCURVE",
"814 1099 OFFCURVE",
"677 1102 CURVE SMOOTH",
"522 1106 OFFCURVE",
"397 1028 OFFCURVE",
"308 907 CURVE",
"343 1082 LINE",
"227 1082 LINE",
"39 0 LINE",
"158 0 LINE",
"286 744 LINE",
"331 891 OFFCURVE",
"483 1004 OFFCURVE",
"634 1000 CURVE SMOOTH"
);
}
);
width = 1762;
}
);
leftKerningGroup = m;
note = m;
rightKerningGroup = h;
unicode = 006D;
},
{
glyphname = n;
lastChange = "2017-05-19 14:51:26 +0000";
layers = (
{
layerId = "4CEFE409-8F93-4A8D-8E3D-834274A593AF";
paths = (
{
closed = 1;
nodes = (
"823 996 OFFCURVE",
"856 861 OFFCURVE",
"839 706 CURVE",
"721 0 LINE",
"840 0 LINE",
"959 705 LINE",
"982 914 OFFCURVE",
"917 1098 OFFCURVE",
"682 1102 CURVE SMOOTH",
"526 1106 OFFCURVE",
"401 1020 OFFCURVE",
"312 899 CURVE",
"348 1082 LINE",
"233 1082 LINE",
"45 0 LINE",
"164 0 LINE",
"292 745 LINE",
"364 881 OFFCURVE",
"482 1004 OFFCURVE",
"646 1000 CURVE SMOOTH"
);
}
);
width = 1092;
}
);
leftKerningGroup = m;
note = n;
rightKerningGroup = h;
unicode = 006E;
},
{
glyphname = o;
lastChange = "2017-05-19 14:51:26 +0000";
layers = (
{
layerId = "4CEFE409-8F93-4A8D-8E3D-834274A593AF";
paths = (
{
closed = 1;
nodes = (
"60 341 OFFCURVE",
"110 167 OFFCURVE",
"232 62 CURVE SMOOTH",
"354 -43 OFFCURVE",
"585 -49 OFFCURVE",
"738 50 CURVE SMOOTH",
"890 149 OFFCURVE",
"988 322 OFFCURVE",
"1013 511 CURVE SMOOTH",
"1019 560 LINE SMOOTH",
"1035 737 OFFCURVE",
"988 914 OFFCURVE",
"865 1020 CURVE SMOOTH",
"742 1126 OFFCURVE",
"506 1132 OFFCURVE",
"351 1028 CURVE SMOOTH",
"196 923 OFFCURVE",
"103 742 OFFCURVE",
"80 551 CURVE SMOOTH",
"77 518 LINE SMOOTH"
);
},
{
closed = 1;
nodes = (
"220 702 OFFCURVE",
"290 849 OFFCURVE",
"407 938 CURVE SMOOTH",
"524 1026 OFFCURVE",
"713 1020 OFFCURVE",
"800 928 CURVE SMOOTH",
"887 836 OFFCURVE",
"913 691 OFFCURVE",
"900 559 CURVE SMOOTH",
"897 527 LINE",
"878 382 OFFCURVE",
"809 232 OFFCURVE",
"690 144 CURVE SMOOTH",
"571 56 OFFCURVE",
"383 63 OFFCURVE",
"296 153 CURVE SMOOTH",
"209 243 OFFCURVE",
"183 386 OFFCURVE",
"196 518 CURVE SMOOTH",
"201 557 LINE SMOOTH"
);
}
);
width = 1114;
}
);
leftKerningGroup = o;
note = o;
rightKerningGroup = o;
unicode = 006F;
},
{
glyphname = p;
lastChange = "2017-05-19 14:51:26 +0000";
layers = (
{
layerId = "4CEFE409-8F93-4A8D-8E3D-834274A593AF";
paths = (
{
closed = 1;
nodes = (
"601 -23 OFFCURVE",
"686 4 OFFCURVE",
"755 61 CURVE SMOOTH",
"880 164 OFFCURVE",
"957 328 OFFCURVE",
"988 553 CURVE SMOOTH",
"1005 712 OFFCURVE",
"985 895 OFFCURVE",
"888 1011 CURVE SMOOTH",
"791 1127 OFFCURVE",
"506 1168 OFFCURVE",
"315 929 CURVE",
"343 1082 LINE",
"232 1082 LINE",
"-28 -416 LINE",
"91 -416 LINE",
"191 137 LINE",
"259 30 OFFCURVE",
"375 -18 OFFCURVE",
"500 -21 CURVE SMOOTH"
);
},
{
closed = 1;
nodes = (
"713 997 OFFCURVE",
"770 971 OFFCURVE",
"805 922 CURVE SMOOTH",
"876 823 OFFCURVE",
"881 673 OFFCURVE",
"868 553 CURVE SMOOTH",
"843 372 OFFCURVE",
"783 231 OFFCURVE",
"678 144 CURVE SMOOTH",
"573 56 OFFCURVE",
"299 26 OFFCURVE",
"212 269 CURVE",
"300 792 LINE",
"373 917 OFFCURVE",
"484 1003 OFFCURVE",
"635 999 CURVE SMOOTH"
);
}
);
width = 1101;
}
);
leftKerningGroup = m;
note = p;
rightKerningGroup = b;
unicode = 0070;
},
{
glyphname = q;
lastChange = "2017-05-19 14:51:26 +0000";
layers = (
{
layerId = "4CEFE409-8F93-4A8D-8E3D-834274A593AF";
paths = (
{
closed = 1;
nodes = (
"888 935 LINE",
"856 990 OFFCURVE",
"814 1032 OFFCURVE",
"761 1059 CURVE SMOOTH",
"655 1114 OFFCURVE",
"470 1132 OFFCURVE",
"334 1027 CURVE SMOOTH",
"203 926 OFFCURVE",
"122 759 OFFCURVE",
"91 527 CURVE SMOOTH",
"74 371 OFFCURVE",
"96 188 OFFCURVE",
"195 71 CURVE SMOOTH",
"294 -46 OFFCURVE",
"573 -79 OFFCURVE",
"758 134 CURVE",
"656 -416 LINE",
"774 -416 LINE",
"1034 1082 LINE",
"922 1082 LINE"
);
},
{
closed = 1;
nodes = (
"234 689 OFFCURVE",
"290 842 OFFCURVE",
"398 935 CURVE SMOOTH",
"506 1028 OFFCURVE",
"778 1060 OFFCURVE",
"866 799 CURVE",
"776 269 LINE",
"737 212 OFFCURVE",
"689 166 OFFCURVE",
"634 131 CURVE SMOOTH",
"522 61 OFFCURVE",
"343 60 OFFCURVE",
"274 160 CURVE SMOOTH",
"205 259 OFFCURVE",
"198 409 OFFCURVE",
"213 528 CURVE SMOOTH",
"215 549 LINE"
);
}
);
width = 1109;
}
);
leftKerningGroup = c;
note = q;
unicode = 0071;
},
{
glyphname = r;
lastChange = "2017-05-19 14:51:26 +0000";
layers = (
{
layerId = "4CEFE409-8F93-4A8D-8E3D-834274A593AF";
paths = (
{
closed = 1;
nodes = (
"723 1091 LINE",
"693 1099 OFFCURVE",
"665 1103 OFFCURVE",
"640 1104 CURVE SMOOTH",
"497 1108 OFFCURVE",
"390 1030 OFFCURVE",
"315 913 CURVE",
"350 1082 LINE",
"233 1082 LINE",
"45 0 LINE",
"164 0 LINE",
"292 747 LINE",
"335 891 OFFCURVE",
"481 992 OFFCURVE",
"629 991 CURVE",
"706 982 LINE"
);
}
);
width = 669;
}
);
note = r;
rightKerningGroup = r;
unicode = 0072;
},
{
glyphname = s;
lastChange = "2017-05-19 14:51:26 +0000";
layers = (
{
layerId = "4CEFE409-8F93-4A8D-8E3D-834274A593AF";
paths = (
{
closed = 1;
nodes = (
"713 139 OFFCURVE",
"557 81 OFFCURVE",
"430 82 CURVE SMOOTH",
"287 83 OFFCURVE",
"170 152 OFFCURVE",
"170 304 CURVE",
"53 305 LINE",
"40 89 OFFCURVE",
"232 -16 OFFCURVE",
"425 -20 CURVE SMOOTH",
"553 -23 OFFCURVE",
"689 20 OFFCURVE",
"777 112 CURVE SMOOTH",
"864 204 OFFCURVE",
"865 354 OFFCURVE",
"820 430 CURVE SMOOTH",
"775 505 OFFCURVE",
"687 557 OFFCURVE",
"508 605 CURVE SMOOTH",
"329 653 OFFCURVE",
"272 706 OFFCURVE",
"284 806 CURVE SMOOTH",
"300 943 OFFCURVE",
"441 1001 OFFCURVE",
"565 1000 CURVE SMOOTH",
"697 997 OFFCURVE",
"809 919 OFFCURVE",
"801 779 CURVE",
"920 779 LINE",
"932 988 OFFCURVE",
"765 1099 OFFCURVE",
"570 1102 CURVE SMOOTH",
"447 1105 OFFCURVE",
"318 1061 OFFCURVE",
"235 971 CURVE SMOOTH",
"151 881 OFFCURVE",
"144 723 OFFCURVE",
"209 646 CURVE SMOOTH",
"272 571 OFFCURVE",
"377 533 OFFCURVE",
"490 505 CURVE SMOOTH",
"602 476 OFFCURVE",
"746 424 OFFCURVE",
"730 283 CURVE SMOOTH"
);
}
);
width = 1007;
}
);
leftKerningGroup = s;
note = s;
unicode = 0073;
},
{
glyphname = t;
lastChange = "2017-05-19 14:51:26 +0000";
layers = (
{
layerId = "4CEFE409-8F93-4A8D-8E3D-834274A593AF";
paths = (
{
closed = 1;
nodes = (
"427 90 OFFCURVE",
"395 87 OFFCURVE",
"378 88 CURVE SMOOTH",
"278 91 OFFCURVE",
"273 180 OFFCURVE",
"281 263 CURVE",
"401 984 LINE",
"617 984 LINE",
"634 1082 LINE",
"418 1082 LINE",
"467 1360 LINE",
"346 1360 LINE",
"297 1082 LINE",
"106 1082 LINE",
"88 984 LINE",
"281 984 LINE",
"162 264 LINE",
"155 192 OFFCURVE",
"165 127 OFFCURVE",
"190 70 CURVE SMOOTH",
"240 -45 OFFCURVE",
"398 -24 OFFCURVE",
"469 -4 CURVE",
"475 96 LINE"
);
}
);
width = 639;
}
);
note = t;
unicode = 0074;
},
{
glyphname = u;
lastChange = "2017-05-19 14:51:26 +0000";
layers = (
{
layerId = "4CEFE409-8F93-4A8D-8E3D-834274A593AF";
paths = (
{
closed = 1;
nodes = (
"1026 1082 LINE",
"906 1082 LINE",
"771 296 LINE",
"726 151 OFFCURVE",
"559 79 OFFCURVE",
"419 84 CURVE SMOOTH",
"248 89 OFFCURVE",
"217 242 OFFCURVE",
"233 387 CURVE",
"348 1082 LINE",
"229 1082 LINE",
"113 390 LINE",
"102 283 OFFCURVE",
"116 189 OFFCURVE",
"157 107 CURVE SMOOTH",
"237 -57 OFFCURVE",
"577 -80 OFFCURVE",
"752 137 CURVE",
"723 0 LINE",
"838 0 LINE"
);
}
);
width = 1091;
}
);
leftKerningGroup = u;
note = u;
unicode = 0075;
},
{
glyphname = v;
lastChange = "2017-05-19 14:51:26 +0000";
layers = (
{
layerId = "4CEFE409-8F93-4A8D-8E3D-834274A593AF";
paths = (
{
closed = 1;
nodes = (
"409 169 LINE",
"231 1082 LINE",
"113 1082 LINE",
"337 0 LINE",
"437 0 LINE",
"993 1081 LINE",
"871 1082 LINE"
);
}
);
width = 955;
}
);
leftKerningGroup = v;
note = v;
rightKerningGroup = v;
unicode = 0076;
},
{
glyphname = w;
lastChange = "2017-05-19 14:51:26 +0000";
layers = (
{
layerId = "4CEFE409-8F93-4A8D-8E3D-834274A593AF";
paths = (
{
closed = 1;
nodes = (
"1031 257 LINE",
"991 153 LINE",
"984 256 LINE",
"878 1082 LINE",
"775 1082 LINE",
"380 256 LINE",
"342 166 LINE",
"342 244 LINE",
"263 1082 LINE",
"145 1082 LINE",
"261 0 LINE",
"363 0 LINE",
"777 858 LINE",
"801 918 LINE",
"801 859 LINE",
"921 0 LINE",
"1023 0 LINE",
"1517 1082 LINE",
"1389 1082 LINE"
);
}
);
width = 1499;
}
);
note = w;
unicode = 0077;
},
{
glyphname = x;
lastChange = "2017-05-19 14:51:26 +0000";
layers = (
{
layerId = "4CEFE409-8F93-4A8D-8E3D-834274A593AF";
paths = (
{
closed = 1;
nodes = (
"410 557 LINE",
"-53 0 LINE",
"95 0 LINE",
"463 456 LINE",
"690 0 LINE",
"821 0 LINE",
"539 545 LINE",
"983 1082 LINE",
"835 1082 LINE",
"484 646 LINE",
"271 1082 LINE",
"139 1082 LINE"
);
}
);
width = 967;
}
);
leftKerningGroup = x;
note = x;
rightKerningGroup = x;
unicode = 0078;
},
{
glyphname = y;
lastChange = "2017-05-19 14:51:26 +0000";
layers = (
{
layerId = "4CEFE409-8F93-4A8D-8E3D-834274A593AF";
paths = (
{
closed = 1;
nodes = (
"871 1082 LINE",
"409 176 LINE",
"241 1082 LINE",
"117 1082 LINE",
"327 17 LINE",
"248 -138 LINE SMOOTH",
"192 -251 OFFCURVE",
"117 -339 OFFCURVE",
"-16 -334 CURVE",
"-76 -326 LINE",
"-88 -425 LINE",
"-53 -434 OFFCURVE",
"-21 -439 OFFCURVE",
"8 -440 CURVE SMOOTH",
"180 -443 OFFCURVE",
"275 -314 OFFCURVE",
"343 -175 CURVE SMOOTH",
"1004 1082 LINE"
);
}
);
width = 945;
}
);
leftKerningGroup = v;
note = y;
rightKerningGroup = v;
unicode = 0079;
},
{
glyphname = z;
lastChange = "2017-05-19 14:51:26 +0000";
layers = (
{
layerId = "4CEFE409-8F93-4A8D-8E3D-834274A593AF";
paths = (
{
closed = 1;
nodes = (
"-3 95 LINE",
"-20 0 LINE",
"808 0 LINE",
"827 102 LINE",
"149 102 LINE",
"936 988 LINE",
"953 1082 LINE",
"187 1082 LINE",
"169 979 LINE",
"781 979 LINE"
);
}
);
width = 967;
}
);
leftKerningGroup = z;
note = z;
rightKerningGroup = z;
unicode = 007A;
},
{
glyphname = braceleft;
lastChange = "2017-05-19 14:51:26 +0000";
layers = (
{
layerId = "4CEFE409-8F93-4A8D-8E3D-834274A593AF";
paths = (
{
closed = 1;
nodes = (
"183 -153 OFFCURVE",
"260 -330 OFFCURVE",
"469 -403 CURVE",
"503 -324 LINE",
"340 -259 OFFCURVE",
"306 -103 OFFCURVE",
"326 58 CURVE SMOOTH",
"356 285 LINE SMOOTH",
"368 405 OFFCURVE",
"342 530 OFFCURVE",
"230 591 CURVE",
"361 649 OFFCURVE",
"437 754 OFFCURVE",
"458 905 CURVE SMOOTH",
"488 1119 LINE SMOOTH",
"518 1331 OFFCURVE",
"617 1464 OFFCURVE",
"785 1517 CURVE",
"760 1601 LINE",
"537 1529 OFFCURVE",
"408 1378 OFFCURVE",
"373 1147 CURVE SMOOTH",
"341 911 LINE SMOOTH",
"318 741 OFFCURVE",
"228 653 OFFCURVE",
"71 646 CURVE",
"59 542 LINE",
"211 531 OFFCURVE",
"253 427 OFFCURVE",
"238 286 CURVE SMOOTH",
"207 59 LINE SMOOTH"
);
}
);
width = 657;
}
);
note = braceleft;
unicode = 007B;
},
{
glyphname = bar;
lastChange = "2017-05-19 14:51:26 +0000";
layers = (
{
layerId = "4CEFE409-8F93-4A8D-8E3D-834274A593AF";
paths = (
{
closed = 1;
nodes = (
"35 -270 LINE",
"137 -270 LINE",
"407 1456 LINE",
"305 1456 LINE"
);
}
);
width = 439;
}
);
note = bar;
unicode = 007C;
},
{
glyphname = braceright;
lastChange = "2017-05-19 14:51:26 +0000";
layers = (
{
layerId = "4CEFE409-8F93-4A8D-8E3D-834274A593AF";
paths = (
{
closed = 1;
nodes = (
"472 1345 OFFCURVE",
"397 1522 OFFCURVE",
"186 1595 CURVE",
"154 1518 LINE",
"319 1454 OFFCURVE",
"349 1294 OFFCURVE",
"329 1133 CURVE SMOOTH",
"299 905 LINE SMOOTH",
"286 782 OFFCURVE",
"316 656 OFFCURVE",
"435 599 CURVE",
"298 545 OFFCURVE",
"219 443 OFFCURVE",
"197 292 CURVE SMOOTH",
"167 73 LINE SMOOTH",
"139 -132 OFFCURVE",
"38 -265 OFFCURVE",
"-136 -326 CURVE",
"-115 -407 LINE",
"118 -336 OFFCURVE",
"251 -181 OFFCURVE",
"284 59 CURVE SMOOTH",
"312 272 LINE SMOOTH",
"335 447 OFFCURVE",
"426 538 OFFCURVE",
"584 545 CURVE",
"596 650 LINE",
"444 659 OFFCURVE",
"401 763 OFFCURVE",
"417 904 CURVE SMOOTH",
"447 1132 LINE SMOOTH"
);
}
);
width = 657;
}
);
note = braceright;
unicode = 007D;
},
{
glyphname = asciitilde;
lastChange = "2017-05-19 14:51:26 +0000";
layers = (
{
layerId = "4CEFE409-8F93-4A8D-8E3D-834274A593AF";
paths = (
{
closed = 1;
nodes = (
"1119 645 OFFCURVE",
"1056 526 OFFCURVE",
"919 529 CURVE SMOOTH",
"846 530 OFFCURVE",
"797 566 OFFCURVE",
"720 643 CURVE SMOOTH",
"643 720 OFFCURVE",
"558 787 OFFCURVE",
"443 790 CURVE SMOOTH",
"246 793 OFFCURVE",
"138 627 OFFCURVE",
"117 450 CURVE",
"222 451 LINE",
"243 570 OFFCURVE",
"301 685 OFFCURVE",
"438 682 CURVE SMOOTH",
"513 681 OFFCURVE",
"561 645 OFFCURVE",
"638 568 CURVE SMOOTH",
"715 491 OFFCURVE",
"800 423 OFFCURVE",
"913 422 CURVE SMOOTH",
"1109 418 OFFCURVE",
"1218 590 OFFCURVE",
"1237 766 CURVE",
"1140 764 LINE"
);
}
);
width = 1361;
}
);
note = asciitilde;
unicode = 007E;
},
{
glyphname = exclamdown;
lastChange = "2017-05-19 14:51:26 +0000";
layers = (
{
layerId = "4CEFE409-8F93-4A8D-8E3D-834274A593AF";
paths = (
{
closed = 1;
nodes = (
"375 1070 OFFCURVE",
"340 1103 OFFCURVE",
"295 1103 CURVE SMOOTH",
"242 1102 OFFCURVE",
"213 1075 OFFCURVE",
"209 1023 CURVE SMOOTH",
"206 976 OFFCURVE",
"239 940 OFFCURVE",
"286 941 CURVE SMOOTH",
"331 942 OFFCURVE",
"368 979 OFFCURVE",
"371 1023 CURVE SMOOTH"
);
},
{
closed = 1;
nodes = (
"295 690 LINE",
"184 690 LINE",
"-5 -360 LINE",
"118 -360 LINE"
);
}
);
width = 439;
}
);
note = exclamdown;
unicode = 00A1;
},
{
glyphname = cent;
lastChange = "2017-05-19 14:51:26 +0000";
layers = (
{
layerId = "4CEFE409-8F93-4A8D-8E3D-834274A593AF";
paths = (
{
closed = 1;
nodes = (
"787 256 OFFCURVE",
"747 194 OFFCURVE",
"687 148 CURVE SMOOTH",
"567 55 OFFCURVE",
"373 62 OFFCURVE",
"296 154 CURVE SMOOTH",
"219 245 OFFCURVE",
"204 389 OFFCURVE",
"219 518 CURVE SMOOTH",
"223 551 LINE SMOOTH",
"232 624 OFFCURVE",
"252 695 OFFCURVE",
"285 766 CURVE SMOOTH",
"350 907 OFFCURVE",
"462 1005 OFFCURVE",
"629 1000 CURVE SMOOTH",
"793 996 OFFCURVE",
"881 873 OFFCURVE",
"874 718 CURVE",
"986 717 LINE",
"995 909 OFFCURVE",
"894 1062 OFFCURVE",
"701 1097 CURVE",
"744 1318 LINE",
"624 1318 LINE",
"582 1099 LINE",
"298 1063 OFFCURVE",
"143 831 OFFCURVE",
"108 560 CURVE SMOOTH",
"103 517 LINE SMOOTH",
"95 441 OFFCURVE",
"98 365 OFFCURVE",
"112 290 CURVE SMOOTH",
"139 138 OFFCURVE",
"224 17 OFFCURVE",
"396 -15 CURVE",
"352 -245 LINE",
"472 -245 LINE",
"515 -17 LINE",
"715 8 OFFCURVE",
"883 130 OFFCURVE",
"920 334 CURVE",
"808 334 LINE"
);
}
);
width = 1082;
}
);
note = cent;
unicode = 00A2;
},
{
glyphname = sterling;
lastChange = "2017-05-19 14:51:26 +0000";
layers = (
{
layerId = "4CEFE409-8F93-4A8D-8E3D-834274A593AF";
paths = (
{
closed = 1;
nodes = (
"977 104 LINE",
"252 102 LINE",
"311 167 OFFCURVE",
"348 254 OFFCURVE",
"363 361 CURVE SMOOTH",
"402 645 LINE",
"733 645 LINE",
"752 750 LINE",
"417 750 LINE",
"455 1039 LINE SMOOTH",
"478 1211 OFFCURVE",
"586 1380 OFFCURVE",
"777 1373 CURVE SMOOTH",
"945 1368 OFFCURVE",
"1013 1244 OFFCURVE",
"998 1088 CURVE",
"1119 1088 LINE",
"1140 1307 OFFCURVE",
"1019 1470 OFFCURVE",
"791 1477 CURVE SMOOTH",
"532 1484 OFFCURVE",
"364 1283 OFFCURVE",
"333 1039 CURVE SMOOTH",
"295 750 LINE",
"115 750 LINE",
"97 645 LINE",
"280 645 LINE",
"242 366 LINE SMOOTH",
"230 274 OFFCURVE",
"203 141 OFFCURVE",
"106 101 CURVE",
"5 103 LINE",
"-8 0 LINE",
"959 0 LINE"
);
}
);
width = 1135;
}
);
note = sterling;
unicode = 00A3;
},
{
glyphname = currency;
lastChange = "2017-05-19 14:51:26 +0000";
layers = (
{
layerId = "4CEFE409-8F93-4A8D-8E3D-834274A593AF";
paths = (
{
closed = 1;
nodes = (
"1320 452 OFFCURVE",
"1352 759 OFFCURVE",
"1237 1002 CURVE",
"1435 1172 LINE",
"1360 1265 LINE",
"1165 1093 LINE",
"976 1276 OFFCURVE",
"677 1283 OFFCURVE",
"429 1096 CURVE",
"298 1265 LINE",
"206 1184 LINE",
"339 1009 LINE",
"116 773 OFFCURVE",
"88 462 OFFCURVE",
"195 223 CURVE",
"12 66 LINE",
"85 -26 LINE",
"265 132 LINE",
"452 -65 OFFCURVE",
"764 -76 OFFCURVE",
"1024 131 CURVE",
"1146 -28 LINE",
"1241 54 LINE",
"1112 223 LINE"
);
},
{
closed = 1;
nodes = (
"276 780 OFFCURVE",
"386 953 OFFCURVE",
"546 1053 CURVE SMOOTH",
"706 1153 OFFCURVE",
"914 1146 OFFCURVE",
"1033 1045 CURVE SMOOTH",
"1152 944 OFFCURVE",
"1205 779 OFFCURVE",
"1184 616 CURVE SMOOTH",
"1160 435 OFFCURVE",
"1050 261 OFFCURVE",
"890 161 CURVE SMOOTH",
"730 60 OFFCURVE",
"522 68 OFFCURVE",
"403 169 CURVE SMOOTH",
"283 270 OFFCURVE",
"231 436 OFFCURVE",
"252 599 CURVE SMOOTH"
);
}
);
width = 1437;
}
);
note = currency;
unicode = 00A4;
},
{
glyphname = yen;
lastChange = "2017-05-19 14:51:26 +0000";
layers = (
{
layerId = "4CEFE409-8F93-4A8D-8E3D-834274A593AF";
paths = (
{
closed = 1;
nodes = (
"538 413 LINE",
"574 617 LINE",
"921 617 LINE",
"937 706 LINE",
"636 706 LINE",
"1153 1456 LINE",
"1011 1456 LINE",
"532 734 LINE",
"305 1456 LINE",
"174 1456 LINE",
"431 706 LINE",
"123 706 LINE",
"107 617 LINE",
"451 617 LINE",
"415 413 LINE",
"72 413 LINE",
"56 324 LINE",
"400 324 LINE",
"343 0 LINE",
"467 0 LINE",
"524 324 LINE",
"870 324 LINE",
"886 413 LINE"
);
}
);
width = 1025;
}
);
note = yen;
unicode = 00A5;
},
{
glyphname = brokenbar;
lastChange = "2017-05-19 14:51:26 +0000";
layers = (
{
layerId = "4CEFE409-8F93-4A8D-8E3D-834274A593AF";
paths = (
{
closed = 1;
nodes = (
"170 698 LINE",
"289 698 LINE",
"421 1456 LINE",
"302 1456 LINE"
);
},
{
closed = 1;
nodes = (
"136 501 LINE",
"2 -270 LINE",
"121 -270 LINE",
"256 501 LINE"
);
}
);
width = 432;
}
);
note = brokenbar;
unicode = 00A6;
},
{
glyphname = section;
lastChange = "2017-05-19 14:51:26 +0000";
layers = (
{
layerId = "4CEFE409-8F93-4A8D-8E3D-834274A593AF";
paths = (
{
closed = 1;
nodes = (
"926 -6 OFFCURVE",
"883 89 OFFCURVE",
"786 155 CURVE",
"854 178 OFFCURVE",
"915 211 OFFCURVE",
"969 256 CURVE SMOOTH",
"1076 344 OFFCURVE",
"1088 539 OFFCURVE",
"1011 637 CURVE SMOOTH",
"934 735 OFFCURVE",
"793 786 OFFCURVE",
"657 830 CURVE SMOOTH",
"610 845 OFFCURVE",
"561 863 OFFCURVE",
"512 884 CURVE SMOOTH",
"412 924 OFFCURVE",
"343 991 OFFCURVE",
"359 1116 CURVE SMOOTH",
"382 1305 OFFCURVE",
"571 1379 OFFCURVE",
"740 1375 CURVE SMOOTH",
"935 1370 OFFCURVE",
"1044 1234 OFFCURVE",
"1024 1045 CURVE",
"1142 1045 LINE",
"1167 1310 OFFCURVE",
"1009 1471 OFFCURVE",
"745 1476 CURVE SMOOTH",
"592 1479 OFFCURVE",
"430 1430 OFFCURVE",
"327 1322 CURVE SMOOTH",
"223 1213 OFFCURVE",
"177 963 OFFCURVE",
"360 830 CURVE",
"292 806 OFFCURVE",
"233 771 OFFCURVE",
"182 726 CURVE SMOOTH",
"81 635 OFFCURVE",
"67 444 OFFCURVE",
"144 344 CURVE SMOOTH",
"213 253 OFFCURVE",
"317 204 OFFCURVE",
"506 144 CURVE SMOOTH",
"600 114 OFFCURVE",
"666 86 OFFCURVE",
"705 59 CURVE SMOOTH",
"782 6 OFFCURVE",
"807 -50 OFFCURVE",
"796 -134 CURVE SMOOTH",
"773 -321 OFFCURVE",
"583 -397 OFFCURVE",
"415 -393 CURVE SMOOTH",
"212 -389 OFFCURVE",
"85 -269 OFFCURVE",
"105 -62 CURVE",
"-14 -64 LINE",
"-27 -202 OFFCURVE",
"8 -308 OFFCURVE",
"90 -381 CURVE SMOOTH",
"253 -529 OFFCURVE",
"490 -509 OFFCURVE",
"639 -460 CURVE SMOOTH",
"788 -412 OFFCURVE",
"901 -304 OFFCURVE",
"916 -131 CURVE SMOOTH"
);
},
{
closed = 1;
nodes = (
"276 346 OFFCURVE",
"200 413 OFFCURVE",
"217 546 CURVE SMOOTH",
"234 687 OFFCURVE",
"347 753 OFFCURVE",
"478 773 CURVE",
"507 762 OFFCURVE",
"545 750 OFFCURVE",
"592 735 CURVE SMOOTH",
"639 720 OFFCURVE",
"693 702 OFFCURVE",
"753 679 CURVE SMOOTH",
"872 633 OFFCURVE",
"955 562 OFFCURVE",
"939 435 CURVE SMOOTH",
"919 294 OFFCURVE",
"786 230 OFFCURVE",
"659 213 CURVE",
"403 299 LINE SMOOTH"
);
}
);
width = 1203;
}
);
note = section;
unicode = 00A7;
},
{
glyphname = dieresis;
lastChange = "2017-05-19 14:51:26 +0000";
layers = (
{
layerId = "4CEFE409-8F93-4A8D-8E3D-834274A593AF";
paths = (
{
closed = 1;
nodes = (
"254 1350 OFFCURVE",
"289 1316 OFFCURVE",
"334 1316 CURVE SMOOTH",
"379 1317 OFFCURVE",
"416 1353 OFFCURVE",
"420 1397 CURVE SMOOTH",
"423 1444 OFFCURVE",
"387 1478 OFFCURVE",
"342 1478 CURVE SMOOTH",
"289 1477 OFFCURVE",
"261 1450 OFFCURVE",
"257 1397 CURVE SMOOTH"
);
},
{
closed = 1;
nodes = (
"678 1349 OFFCURVE",
"713 1316 OFFCURVE",
"758 1316 CURVE SMOOTH",
"811 1317 OFFCURVE",
"840 1344 OFFCURVE",
"844 1396 CURVE SMOOTH",
"847 1443 OFFCURVE",
"813 1478 OFFCURVE",
"766 1478 CURVE SMOOTH",
"721 1477 OFFCURVE",
"684 1440 OFFCURVE",
"681 1396 CURVE SMOOTH"
);
}
);
width = 855;
}
);
note = dieresis;
unicode = 00A8;
},
{
glyphname = copyright;
lastChange = "2017-05-19 14:51:26 +0000";
layers = (
{
layerId = "4CEFE409-8F93-4A8D-8E3D-834274A593AF";
paths = (
{
closed = 1;
nodes = (
"94 475 OFFCURVE",
"183 235 OFFCURVE",
"367 91 CURVE SMOOTH",
"550 -54 OFFCURVE",
"853 -61 OFFCURVE",
"1084 82 CURVE SMOOTH",
"1315 225 OFFCURVE",
"1470 471 OFFCURVE",
"1501 735 CURVE SMOOTH",
"1530 983 OFFCURVE",
"1440 1222 OFFCURVE",
"1257 1366 CURVE SMOOTH",
"1073 1509 OFFCURVE",
"770 1516 OFFCURVE",
"540 1374 CURVE SMOOTH",
"310 1232 OFFCURVE",
"153 987 OFFCURVE",
"122 722 CURVE SMOOTH"
);
},
{
closed = 1;
nodes = (
"238 954 OFFCURVE",
"378 1172 OFFCURVE",
"583 1299 CURVE SMOOTH",
"787 1426 OFFCURVE",
"1055 1419 OFFCURVE",
"1212 1291 CURVE SMOOTH",
"1369 1162 OFFCURVE",
"1443 951 OFFCURVE",
"1415 736 CURVE SMOOTH",
"1386 504 OFFCURVE",
"1245 285 OFFCURVE",
"1041 158 CURVE SMOOTH",
"837 30 OFFCURVE",
"568 37 OFFCURVE",
"412 166 CURVE SMOOTH",
"255 295 OFFCURVE",
"181 507 OFFCURVE",
"209 722 CURVE SMOOTH"
);
},
{
closed = 1;
nodes = (
"969 473 OFFCURVE",
"900 379 OFFCURVE",
"753 383 CURVE SMOOTH",
"594 390 OFFCURVE",
"561 550 OFFCURVE",
"573 679 CURVE SMOOTH",
"584 779 LINE SMOOTH",
"601 923 OFFCURVE",
"686 1079 OFFCURVE",
"851 1075 CURVE SMOOTH",
"990 1072 OFFCURVE",
"1038 979 OFFCURVE",
"1027 851 CURVE",
"1125 851 LINE",
"1140 1034 OFFCURVE",
"1044 1161 OFFCURVE",
"855 1165 CURVE SMOOTH",
"634 1169 OFFCURVE",
"505 978 OFFCURVE",
"482 777 CURVE SMOOTH",
"473 680 LINE SMOOTH",
"457 492 OFFCURVE",
"536 299 OFFCURVE",
"749 292 CURVE SMOOTH",
"949 287 OFFCURVE",
"1065 416 OFFCURVE",
"1089 607 CURVE",
"994 606 LINE"
);
}
);
width = 1589;
}
);
note = copyright;
unicode = 00A9;
},
{
glyphname = ordfeminine;
lastChange = "2017-05-19 14:51:26 +0000";
layers = (
{
layerId = "4CEFE409-8F93-4A8D-8E3D-834274A593AF";
paths = (
{
closed = 1;
nodes = (
"752 761 OFFCURVE",
"753 821 OFFCURVE",
"764 886 CURVE SMOOTH",
"813 1200 LINE",
"826 1355 OFFCURVE",
"746 1473 OFFCURVE",
"585 1477 CURVE SMOOTH",
"433 1481 OFFCURVE",
"290 1403 OFFCURVE",
"269 1244 CURVE",
"374 1238 LINE",
"399 1335 OFFCURVE",
"467 1383 OFFCURVE",
"579 1380 CURVE SMOOTH",
"684 1377 OFFCURVE",
"715 1297 OFFCURVE",
"703 1202 CURVE SMOOTH",
"694 1141 LINE",
"558 1142 LINE SMOOTH",
"399 1142 OFFCURVE",
"214 1088 OFFCURVE",
"206 901 CURVE SMOOTH",
"199 768 OFFCURVE",
"296 690 OFFCURVE",
"424 690 CURVE SMOOTH",
"507 690 OFFCURVE",
"583 726 OFFCURVE",
"652 798 CURVE",
"649 766 OFFCURVE",
"650 734 OFFCURVE",
"653 703 CURVE",
"759 704 LINE"
);
},
{
closed = 1;
nodes = (
"369 785 OFFCURVE",
"306 821 OFFCURVE",
"315 906 CURVE SMOOTH",
"328 1027 OFFCURVE",
"456 1058 OFFCURVE",
"559 1059 CURVE SMOOTH",
"685 1058 LINE",
"655 889 LINE",
"603 832 OFFCURVE",
"528 785 OFFCURVE",
"448 785 CURVE SMOOTH"
);
}
);
width = 880;
}
);
note = ordfeminine;
unicode = 00AA;
},
{
glyphname = guillemotleft;
lastChange = "2017-05-19 14:51:26 +0000";
layers = (
{
layerId = "4CEFE409-8F93-4A8D-8E3D-834274A593AF";
paths = (
{
closed = 1;
nodes = (
"230 530 LINE",
"571 925 LINE",
"457 925 LINE",
"108 544 LINE",
"106 525 LINE",
"334 148 LINE",
"427 148 LINE"
);
},
{
closed = 1;
nodes = (
"530 530 LINE",
"871 925 LINE",
"757 925 LINE",
"408 544 LINE",
"406 525 LINE",
"634 148 LINE",
"727 148 LINE"
);
}
);
width = 915;
}
);
note = guillemotleft;
unicode = 00AB;
},
{
glyphname = logicalnot;
lastChange = "2017-05-19 14:51:26 +0000";
layers = (
{
layerId = "4CEFE409-8F93-4A8D-8E3D-834274A593AF";
paths = (
{
closed = 1;
nodes = (
"803 670 LINE",
"753 386 LINE",
"872 386 LINE",
"940 776 LINE",
"150 776 LINE",
"131 670 LINE"
);
}
);
width = 1084;
}
);
note = logicalnot;
unicode = 00AC;
},
{
glyphname = registered;
lastChange = "2017-05-19 14:51:26 +0000";
layers = (
{
layerId = "4CEFE409-8F93-4A8D-8E3D-834274A593AF";
paths = (
{
closed = 1;
nodes = (
"90 475 OFFCURVE",
"179 234 OFFCURVE",
"363 90 CURVE SMOOTH",
"546 -54 OFFCURVE",
"850 -61 OFFCURVE",
"1080 82 CURVE SMOOTH",
"1310 225 OFFCURVE",
"1466 471 OFFCURVE",
"1497 735 CURVE SMOOTH",
"1525 983 OFFCURVE",
"1436 1222 OFFCURVE",
"1253 1366 CURVE SMOOTH",
"1069 1509 OFFCURVE",
"766 1515 OFFCURVE",
"536 1374 CURVE SMOOTH",
"306 1233 OFFCURVE",
"149 987 OFFCURVE",
"118 722 CURVE SMOOTH"
);
},
{
closed = 1;
nodes = (
"234 955 OFFCURVE",
"374 1174 OFFCURVE",
"578 1300 CURVE SMOOTH",
"782 1426 OFFCURVE",
"1051 1419 OFFCURVE",
"1208 1291 CURVE SMOOTH",
"1365 1162 OFFCURVE",
"1439 951 OFFCURVE",
"1411 736 CURVE SMOOTH",
"1382 504 OFFCURVE",
"1241 285 OFFCURVE",
"1037 158 CURVE SMOOTH",
"833 30 OFFCURVE",
"564 37 OFFCURVE",
"407 166 CURVE SMOOTH",
"250 294 OFFCURVE",
"176 507 OFFCURVE",
"203 722 CURVE SMOOTH"
);
},
{
closed = 1;
nodes = (
"922 661 OFFCURVE",
"964 609 OFFCURVE",
"955 510 CURVE SMOOTH",
"944 394 LINE",
"943 370 OFFCURVE",
"944 346 OFFCURVE",
"947 322 CURVE",
"1045 322 LINE",
"1047 338 LINE",
"1046 401 LINE SMOOTH",
"1045 423 OFFCURVE",
"1047 459 OFFCURVE",
"1054 510 CURVE",
"1063 611 OFFCURVE",
"1033 678 OFFCURVE",
"963 712 CURVE",
"1051 756 OFFCURVE",
"1122 816 OFFCURVE",
"1129 920 CURVE SMOOTH",
"1141 1087 OFFCURVE",
"1016 1156 OFFCURVE",
"865 1160 CURVE SMOOTH",
"622 1161 LINE",
"490 322 LINE",
"588 322 LINE",
"643 667 LINE",
"829 666 LINE"
);
},
{
closed = 1;
nodes = (
"972 1065 OFFCURVE",
"1050 1035 OFFCURVE",
"1035 918 CURVE SMOOTH",
"1022 811 OFFCURVE",
"926 760 OFFCURVE",
"826 757 CURVE",
"656 758 LINE",
"706 1070 LINE",
"869 1069 LINE SMOOTH"
);
}
);
width = 1593;
}
);
note = registered;
unicode = 00AE;
},
{
glyphname = macron;
lastChange = "2017-05-19 14:51:26 +0000";
layers = (
{
layerId = "4CEFE409-8F93-4A8D-8E3D-834274A593AF";
paths = (
{
closed = 1;
nodes = (
"247 1344 LINE",
"851 1344 LINE",
"867 1441 LINE",
"262 1441 LINE"
);
}
);
width = 849;
}
);
note = macron;
unicode = 00AF;
},
{
glyphname = degree;
lastChange = "2017-05-19 14:51:26 +0000";
layers = (
{
layerId = "4CEFE409-8F93-4A8D-8E3D-834274A593AF";
paths = (
{
closed = 1;
nodes = (
"242 1093 OFFCURVE",
"334 980 OFFCURVE",
"463 979 CURVE SMOOTH",
"603 978 OFFCURVE",
"714 1100 OFFCURVE",
"721 1236 CURVE SMOOTH",
"726 1359 OFFCURVE",
"638 1474 OFFCURVE",
"510 1477 CURVE SMOOTH",
"370 1480 OFFCURVE",
"254 1355 OFFCURVE",
"247 1218 CURVE SMOOTH"
);
},
{
closed = 1;
nodes = (
"344 1307 OFFCURVE",
"416 1387 OFFCURVE",
"507 1387 CURVE SMOOTH",
"591 1387 OFFCURVE",
"639 1313 OFFCURVE",
"632 1234 CURVE SMOOTH",
"624 1147 OFFCURVE",
"556 1070 OFFCURVE",
"465 1070 CURVE SMOOTH",
"382 1070 OFFCURVE",
"330 1140 OFFCURVE",
"337 1219 CURVE SMOOTH"
);
}
);
width = 751;
}
);
note = degree;
unicode = 00B0;
},
{
glyphname = plusminus;
lastChange = "2017-05-19 14:51:26 +0000";
layers = (
{
layerId = "4CEFE409-8F93-4A8D-8E3D-834274A593AF";
paths = (
{
closed = 1;
nodes = (
"628 829 LINE",
"697 1267 LINE",
"586 1267 LINE",
"517 829 LINE",
"116 829 LINE",
"100 728 LINE",
"502 728 LINE",
"433 289 LINE",
"543 289 LINE",
"613 728 LINE",
"991 728 LINE",
"1008 829 LINE"
);
},
{
closed = 1;
nodes = (
"29 0 LINE",
"842 0 LINE",
"858 102 LINE",
"45 102 LINE"
);
}
);
width = 1053;
}
);
note = plusminus;
unicode = 00B1;
},
{
glyphname = twosuperior;
lastChange = "2017-05-19 14:51:26 +0000";
layers = (
{
layerId = "4CEFE409-8F93-4A8D-8E3D-834274A593AF";
paths = (
{
closed = 1;
nodes = (
"497 952 LINE SMOOTH",
"585 1025 OFFCURVE",
"707 1122 OFFCURVE",
"715 1249 CURVE SMOOTH",
"724 1392 OFFCURVE",
"614 1464 OFFCURVE",
"482 1467 CURVE SMOOTH",
"326 1468 OFFCURVE",
"199 1373 OFFCURVE",
"178 1217 CURVE",
"283 1217 LINE",
"307 1326 OFFCURVE",
"373 1381 OFFCURVE",
"480 1380 CURVE SMOOTH",
"521 1380 OFFCURVE",
"554 1369 OFFCURVE",
"579 1346 CURVE SMOOTH",
"627 1300 OFFCURVE",
"619 1198 OFFCURVE",
"540 1121 CURVE SMOOTH",
"456 1040 LINE",
"116 746 LINE",
"102 665 LINE",
"658 665 LINE",
"674 753 LINE",
"255 753 LINE"
);
}
);
width = 728;
}
);
note = twosuperior;
unicode = 00B2;
},
{
glyphname = threesuperior;
lastChange = "2017-05-19 14:51:26 +0000";
layers = (
{
layerId = "4CEFE409-8F93-4A8D-8E3D-834274A593AF";
paths = (
{
closed = 1;
nodes = (
"502 1022 OFFCURVE",
"590 995 OFFCURVE",
"579 891 CURVE SMOOTH",
"570 790 OFFCURVE",
"478 741 OFFCURVE",
"383 742 CURVE SMOOTH",
"292 743 OFFCURVE",
"219 790 OFFCURVE",
"224 886 CURVE",
"120 886 LINE",
"117 810 OFFCURVE",
"142 753 OFFCURVE",
"194 714 CURVE SMOOTH",
"298 637 OFFCURVE",
"455 633 OFFCURVE",
"582 711 CURVE SMOOTH",
"709 789 OFFCURVE",
"734 1005 OFFCURVE",
"559 1065 CURVE",
"642 1100 OFFCURVE",
"720 1155 OFFCURVE",
"727 1252 CURVE SMOOTH",
"736 1397 OFFCURVE",
"613 1464 OFFCURVE",
"484 1467 CURVE SMOOTH",
"343 1468 OFFCURVE",
"213 1394 OFFCURVE",
"193 1247 CURVE",
"298 1248 LINE",
"322 1333 OFFCURVE",
"394 1379 OFFCURVE",
"483 1379 CURVE SMOOTH",
"563 1379 OFFCURVE",
"632 1338 OFFCURVE",
"621 1249 CURVE SMOOTH",
"610 1148 OFFCURVE",
"508 1109 OFFCURVE",
"417 1106 CURVE SMOOTH",
"347 1106 LINE",
"336 1026 LINE",
"417 1025 LINE SMOOTH"
);
}
);
width = 728;
}
);
note = threesuperior;
unicode = 00B3;
},
{
glyphname = acute;
lastChange = "2017-05-19 14:51:26 +0000";
layers = (
{
layerId = "4CEFE409-8F93-4A8D-8E3D-834274A593AF";
paths = (
{
closed = 1;
nodes = (
"598 1535 LINE",
"447 1536 LINE",
"218 1257 LINE",
"329 1258 LINE"
);
}
);
width = 560;
}
);
note = acute;
unicode = 00B4;
},
{
glyphname = mu;
lastChange = "2017-05-19 14:51:26 +0000";
layers = (
{
layerId = "4CEFE409-8F93-4A8D-8E3D-834274A593AF";
paths = (
{
closed = 1;
nodes = (
"575 -23 OFFCURVE",
"684 35 OFFCURVE",
"766 155 CURVE",
"739 0 LINE",
"847 0 LINE",
"1035 1082 LINE",
"916 1082 LINE",
"785 316 LINE",
"764 237 OFFCURVE",
"720 178 OFFCURVE",
"655 137 CURVE SMOOTH",
"523 56 OFFCURVE",
"353 63 OFFCURVE",
"297 143 CURVE SMOOTH",
"241 222 OFFCURVE",
"240 345 OFFCURVE",
"252 449 CURVE",
"357 1082 LINE",
"240 1082 LINE",
"-20 -416 LINE",
"97 -416 LINE",
"192 107 LINE",
"241 24 OFFCURVE",
"324 -19 OFFCURVE",
"439 -20 CURVE SMOOTH"
);
}
);
width = 1107;
}
);
note = mu;
unicode = 00B5;
},
{
glyphname = paragraph;
lastChange = "2017-05-19 14:51:26 +0000";
layers = (
{
layerId = "4CEFE409-8F93-4A8D-8E3D-834274A593AF";
paths = (
{
closed = 1;
nodes = (
"698 1457 LINE SMOOTH",
"407 1457 OFFCURVE",
"178 1275 OFFCURVE",
"147 980 CURVE SMOOTH",
"118 711 OFFCURVE",
"280 528 OFFCURVE",
"551 521 CURVE SMOOTH",
"645 520 LINE",
"554 0 LINE",
"674 0 LINE",
"927 1456 LINE"
);
}
);
width = 945;
}
);
note = paragraph;
unicode = 00B6;
},
{
glyphname = periodcentered;
lastChange = "2017-05-19 14:51:26 +0000";
layers = (
{
layerId = "4CEFE409-8F93-4A8D-8E3D-834274A593AF";
paths = (
{
closed = 1;
nodes = (
"174 669 OFFCURVE",
"210 634 OFFCURVE",
"257 635 CURVE SMOOTH",
"302 636 OFFCURVE",
"342 672 OFFCURVE",
"346 717 CURVE SMOOTH",
"349 765 OFFCURVE",
"314 803 OFFCURVE",
"266 802 CURVE SMOOTH",
"219 801 OFFCURVE",
"181 762 OFFCURVE",
"178 717 CURVE SMOOTH"
);
}
);
width = 489;
}
);
note = periodcentered;
unicode = 00B7;
},
{
glyphname = cedilla;
lastChange = "2017-05-19 14:51:26 +0000";
layers = (
{
layerId = "4CEFE409-8F93-4A8D-8E3D-834274A593AF";
paths = (
{
closed = 1;
nodes = (
"60 -136 OFFCURVE",
"157 -142 OFFCURVE",
"145 -231 CURVE SMOOTH",
"132 -331 OFFCURVE",
"11 -356 OFFCURVE",
"-73 -359 CURVE",
"-75 -437 LINE",
"14 -434 OFFCURVE",
"121 -415 OFFCURVE",
"190 -355 CURVE SMOOTH",
"258 -296 OFFCURVE",
"296 -103 OFFCURVE",
"111 -67 CURVE",
"133 0 LINE",
"41 0 LINE",
"-4 -128 LINE"
);
}
);
width = 484;
}
);
note = cedilla;
unicode = 00B8;
},
{
glyphname = onesuperior;
lastChange = "2017-05-19 14:51:26 +0000";
layers = (
{
layerId = "4CEFE409-8F93-4A8D-8E3D-834274A593AF";
paths = (
{
closed = 1;
nodes = (
"252 1351 LINE",
"235 1257 LINE",
"473 1325 LINE",
"358 665 LINE",
"462 665 LINE",
"596 1455 LINE",
"580 1455 LINE"
);
}
);
width = 728;
}
);
note = onesuperior;
unicode = 00B9;
},
{
glyphname = ordmasculine;
lastChange = "2017-05-19 14:51:26 +0000";
layers = (
{
layerId = "4CEFE409-8F93-4A8D-8E3D-834274A593AF";
paths = (
{
closed = 1;
nodes = (
"193 853 OFFCURVE",
"285 694 OFFCURVE",
"478 689 CURVE SMOOTH",
"682 684 OFFCURVE",
"814 841 OFFCURVE",
"838 1033 CURVE SMOOTH",
"848 1132 LINE SMOOTH",
"864 1313 OFFCURVE",
"773 1472 OFFCURVE",
"578 1477 CURVE SMOOTH",
"374 1482 OFFCURVE",
"237 1323 OFFCURVE",
"216 1131 CURVE SMOOTH",
"206 1033 LINE SMOOTH"
);
},
{
closed = 1;
nodes = (
"345 1264 OFFCURVE",
"427 1385 OFFCURVE",
"572 1381 CURVE SMOOTH",
"712 1377 OFFCURVE",
"752 1254 OFFCURVE",
"741 1133 CURVE SMOOTH",
"729 1032 LINE SMOOTH",
"712 901 OFFCURVE",
"630 781 OFFCURVE",
"485 785 CURVE SMOOTH",
"345 789 OFFCURVE",
"307 909 OFFCURVE",
"318 1030 CURVE SMOOTH",
"329 1133 LINE SMOOTH"
);
}
);
width = 895;
}
);
note = ordmasculine;
unicode = 00BA;
},
{
glyphname = guillemotright;
lastChange = "2017-05-19 14:51:26 +0000";
layers = (
{
layerId = "4CEFE409-8F93-4A8D-8E3D-834274A593AF";
paths = (
{
closed = 1;
nodes = (
"372 557 LINE",
"31 162 LINE",
"145 162 LINE",
"492 544 LINE",
"494 564 LINE",
"269 945 LINE",
"175 945 LINE"
);
},
{
closed = 1;
nodes = (
"682 557 LINE",
"341 162 LINE",
"455 162 LINE",
"802 544 LINE",
"804 564 LINE",
"579 945 LINE",
"485 945 LINE"
);
}
);
width = 911;
}
);
note = guillemotright;
unicode = 00BB;
},
{
glyphname = onequarter;
lastChange = "2017-05-19 14:51:26 +0000";
layers = (
{
layerId = "4CEFE409-8F93-4A8D-8E3D-834274A593AF";
paths = (
{
closed = 1;
nodes = (
"240 1350 LINE",
"223 1256 LINE",
"461 1324 LINE",
"346 664 LINE",
"450 664 LINE",
"584 1454 LINE",
"568 1454 LINE"
);
},
{
closed = 1;
nodes = (
"255 183 LINE",
"328 130 LINE",
"1209 1265 LINE",
"1140 1314 LINE"
);
},
{
closed = 1;
nodes = (
"1060 187 LINE",
"1026 0 LINE",
"1131 0 LINE",
"1164 187 LINE",
"1287 187 LINE",
"1303 276 LINE",
"1180 276 LINE",
"1269 789 LINE",
"1155 789 LINE",
"680 253 LINE",
"675 187 LINE"
);
},
{
closed = 1;
nodes = (
"1147 660 LINE",
"1074 276 LINE",
"802 276 LINE",
"1109 609 LINE"
);
}
);
width = 1449;
}
);
note = onequarter;
unicode = 00BC;
},
{
glyphname = onehalf;
lastChange = "2017-05-19 14:51:26 +0000";
layers = (
{
layerId = "4CEFE409-8F93-4A8D-8E3D-834274A593AF";
paths = (
{
closed = 1;
nodes = (
"211 183 LINE",
"284 130 LINE",
"1165 1265 LINE",
"1096 1314 LINE"
);
},
{
closed = 1;
nodes = (
"225 1350 LINE",
"208 1256 LINE",
"446 1324 LINE",
"331 664 LINE",
"435 664 LINE",
"569 1454 LINE",
"553 1454 LINE"
);
},
{
closed = 1;
nodes = (
"1128 287 LINE SMOOTH",
"1216 360 OFFCURVE",
"1338 457 OFFCURVE",
"1346 584 CURVE SMOOTH",
"1355 727 OFFCURVE",
"1245 799 OFFCURVE",
"1113 802 CURVE SMOOTH",
"957 803 OFFCURVE",
"830 708 OFFCURVE",
"810 552 CURVE",
"914 552 LINE",
"938 661 OFFCURVE",
"1004 716 OFFCURVE",
"1112 715 CURVE SMOOTH",
"1153 715 OFFCURVE",
"1185 704 OFFCURVE",
"1210 681 CURVE SMOOTH",
"1258 635 OFFCURVE",
"1250 533 OFFCURVE",
"1171 456 CURVE SMOOTH",
"1087 375 LINE",
"747 81 LINE",
"733 0 LINE",
"1289 0 LINE",
"1305 88 LINE",
"886 88 LINE"
);
}
);
width = 1513;
}
);
note = onehalf;
unicode = 00BD;
},
{
glyphname = threequarters;
lastChange = "2017-05-19 14:51:26 +0000";
layers = (
{
layerId = "4CEFE409-8F93-4A8D-8E3D-834274A593AF";
paths = (
{
closed = 1;
nodes = (
"395 183 LINE",
"468 130 LINE",
"1349 1265 LINE",
"1280 1314 LINE"
);
},
{
closed = 1;
nodes = (
"1171 187 LINE",
"1137 0 LINE",
"1242 0 LINE",
"1275 187 LINE",
"1398 187 LINE",
"1414 276 LINE",
"1291 276 LINE",
"1380 789 LINE",
"1266 789 LINE",
"791 253 LINE",
"786 187 LINE"
);
},
{
closed = 1;
nodes = (
"1258 660 LINE",
"1185 276 LINE",
"913 276 LINE",
"1220 609 LINE"
);
},
{
closed = 1;
nodes = (
"547 1022 OFFCURVE",
"635 995 OFFCURVE",
"624 891 CURVE SMOOTH",
"615 790 OFFCURVE",
"522 741 OFFCURVE",
"429 742 CURVE SMOOTH",
"337 743 OFFCURVE",
"265 790 OFFCURVE",
"269 886 CURVE",
"165 886 LINE",
"162 810 OFFCURVE",
"187 753 OFFCURVE",
"239 714 CURVE SMOOTH",
"343 637 OFFCURVE",
"502 633 OFFCURVE",
"628 711 CURVE SMOOTH",
"754 789 OFFCURVE",
"779 1005 OFFCURVE",
"604 1065 CURVE",
"687 1100 OFFCURVE",
"765 1155 OFFCURVE",
"772 1252 CURVE SMOOTH",
"781 1397 OFFCURVE",
"660 1464 OFFCURVE",
"529 1467 CURVE SMOOTH",
"389 1468 OFFCURVE",
"258 1394 OFFCURVE",
"238 1247 CURVE",
"343 1248 LINE",
"367 1333 OFFCURVE",
"439 1379 OFFCURVE",
"528 1379 CURVE SMOOTH",
"608 1379 OFFCURVE",
"676 1338 OFFCURVE",
"667 1249 CURVE SMOOTH",
"655 1148 OFFCURVE",
"553 1109 OFFCURVE",
"462 1106 CURVE SMOOTH",
"392 1106 LINE",
"381 1026 LINE",
"462 1025 LINE SMOOTH"
);
}
);
width = 1552;
}
);
note = threequarters;
unicode = 00BE;
},
{
glyphname = questiondown;
lastChange = "2017-05-19 14:51:26 +0000";
layers = (
{
layerId = "4CEFE409-8F93-4A8D-8E3D-834274A593AF";
paths = (
{
closed = 1;
nodes = (
"627 1069 OFFCURVE",
"594 1102 OFFCURVE",
"547 1102 CURVE SMOOTH",
"494 1101 OFFCURVE",
"465 1074 OFFCURVE",
"461 1022 CURVE SMOOTH",
"458 975 OFFCURVE",
"493 939 OFFCURVE",
"538 940 CURVE SMOOTH",
"583 941 OFFCURVE",
"620 978 OFFCURVE",
"623 1022 CURVE SMOOTH"
);
},
{
closed = 1;
nodes = (
"403 664 OFFCURVE",
"383 625 OFFCURVE",
"371 570 CURVE SMOOTH",
"359 515 OFFCURVE",
"333 471 OFFCURVE",
"292 438 CURVE SMOOTH",
"141 317 OFFCURVE",
"-1 179 OFFCURVE",
"-20 -20 CURVE SMOOTH",
"-40 -232 OFFCURVE",
"84 -379 OFFCURVE",
"299 -384 CURVE SMOOTH",
"526 -389 OFFCURVE",
"686 -241 OFFCURVE",
"718 -22 CURVE",
"602 -22 LINE",
"571 -171 OFFCURVE",
"468 -283 OFFCURVE",
"307 -279 CURVE SMOOTH",
"152 -275 OFFCURVE",
"85 -165 OFFCURVE",
"101 -18 CURVE SMOOTH",
"120 149 OFFCURVE",
"235 248 OFFCURVE",
"354 352 CURVE SMOOTH",
"473 456 OFFCURVE",
"525 537 OFFCURVE",
"545 689 CURVE",
"432 688 LINE"
);
}
);
width = 913;
}
);
note = questiondown;
unicode = 00BF;
},
{
glyphname = AE;
lastChange = "2017-05-19 14:51:26 +0000";
layers = (
{
layerId = "4CEFE409-8F93-4A8D-8E3D-834274A593AF";
paths = (
{
closed = 1;
nodes = (
"1084 708 LINE",
"1651 708 LINE",
"1669 809 LINE",
"1097 809 LINE",
"1169 1354 LINE",
"1841 1354 LINE",
"1859 1456 LINE",
"1016 1456 LINE",
"-92 0 LINE",
"60 0 LINE",
"352 390 LINE",
"923 390 LINE",
"871 0 LINE",
"1667 0 LINE",
"1685 102 LINE",
"1003 102 LINE"
);
},
{
closed = 1;
nodes = (
"937 502 LINE",
"435 502 LINE",
"1047 1320 LINE"
);
}
);
width = 1809;
}
);
note = AE;
unicode = 00C6;
},
{
glyphname = multiply;
lastChange = "2017-05-19 14:51:26 +0000";
layers = (
{
layerId = "4CEFE409-8F93-4A8D-8E3D-834274A593AF";
paths = (
{
closed = 1;
nodes = (
"975 888 LINE",
"907 976 LINE",
"514 627 LINE",
"242 976 LINE",
"155 900 LINE",
"429 550 LINE",
"18 186 LINE",
"86 99 LINE",
"496 463 LINE",
"780 99 LINE",
"866 174 LINE",
"581 539 LINE"
);
}
);
width = 1040;
}
);
note = multiply;
unicode = 00D7;
},
{
glyphname = Oslash;
lastChange = "2017-05-19 14:51:26 +0000";
layers = (
{
layerId = "4CEFE409-8F93-4A8D-8E3D-834274A593AF";
paths = (
{
closed = 1;
nodes = (
"703 -23 OFFCURVE",
"813 8 OFFCURVE",
"905 72 CURVE SMOOTH",
"1088 200 OFFCURVE",
"1197 419 OFFCURVE",
"1233 650 CURVE SMOOTH",
"1257 807 LINE SMOOTH",
"1278 956 OFFCURVE",
"1271 1123 OFFCURVE",
"1206 1267 CURVE",
"1399 1504 LINE",
"1287 1504 LINE",
"1153 1336 LINE",
"988 1516 OFFCURVE",
"667 1512 OFFCURVE",
"484 1384 CURVE SMOOTH",
"300 1255 OFFCURVE",
"190 1034 OFFCURVE",
"154 806 CURVE SMOOTH",
"131 650 LINE SMOOTH",
"106 475 OFFCURVE",
"120 288 OFFCURVE",
"219 136 CURVE",
"41 -83 LINE",
"152 -83 LINE",
"280 77 LINE",
"362 13 OFFCURVE",
"460 -20 OFFCURVE",
"574 -21 CURVE SMOOTH"
);
},
{
closed = 1;
nodes = (
"238 511 OFFCURVE",
"242 581 OFFCURVE",
"252 649 CURVE SMOOTH",
"278 813 LINE SMOOTH",
"310 1000 OFFCURVE",
"394 1183 OFFCURVE",
"539 1292 CURVE SMOOTH",
"684 1401 OFFCURVE",
"957 1406 OFFCURVE",
"1080 1241 CURVE",
"292 235 LINE",
"261 298 OFFCURVE",
"244 366 OFFCURVE",
"241 439 CURVE SMOOTH"
);
},
{
closed = 1;
nodes = (
"1150 905 OFFCURVE",
"1136 787 OFFCURVE",
"1109 632 CURVE SMOOTH",
"1076 440 OFFCURVE",
"988 262 OFFCURVE",
"844 160 CURVE SMOOTH",
"700 58 OFFCURVE",
"471 62 OFFCURVE",
"350 169 CURVE",
"1127 1161 LINE",
"1143 1104 OFFCURVE",
"1151 1045 OFFCURVE",
"1151 986 CURVE SMOOTH"
);
}
);
width = 1345;
}
);
leftKerningGroup = C;
note = Oslash;
unicode = 00D8;
},
{
glyphname = Thorn;
lastChange = "2017-05-19 14:51:26 +0000";
layers = (
{
layerId = "4CEFE409-8F93-4A8D-8E3D-834274A593AF";
paths = (
{
closed = 1;
nodes = (
"828 323 OFFCURVE",
"1060 469 OFFCURVE",
"1087 745 CURVE SMOOTH",
"1110 997 OFFCURVE",
"936 1145 OFFCURVE",
"695 1152 CURVE SMOOTH",
"390 1153 LINE",
"443 1456 LINE",
"324 1456 LINE",
"71 0 LINE",
"190 0 LINE",
"247 324 LINE",
"567 323 LINE SMOOTH"
);
},
{
closed = 1;
nodes = (
"873 1045 OFFCURVE",
"990 928 OFFCURVE",
"967 744 CURVE SMOOTH",
"943 540 OFFCURVE",
"767 426 OFFCURVE",
"571 425 CURVE SMOOTH",
"264 426 LINE",
"373 1051 LINE",
"693 1050 LINE SMOOTH"
);
}
);
width = 1179;
}
);
note = Thorn;
unicode = 00DE;
},
{
glyphname = germandbls;
lastChange = "2017-05-19 14:51:26 +0000";
layers = (
{
layerId = "4CEFE409-8F93-4A8D-8E3D-834274A593AF";
paths = (
{
closed = 1;
nodes = (
"363 1212 OFFCURVE",
"392 1286 OFFCURVE",
"437 1352 CURVE SMOOTH",
"528 1484 OFFCURVE",
"718 1462 OFFCURVE",
"780 1383 CURVE SMOOTH",
"842 1304 OFFCURVE",
"821 1183 OFFCURVE",
"765 1094 CURVE SMOOTH",
"685 965 LINE SMOOTH",
"658 920 OFFCURVE",
"642 871 OFFCURVE",
"637 817 CURVE SMOOTH",
"628 705 OFFCURVE",
"693 630 OFFCURVE",
"768 561 CURVE SMOOTH",
"805 526 OFFCURVE",
"838 490 OFFCURVE",
"865 452 CURVE SMOOTH",
"919 375 OFFCURVE",
"912 223 OFFCURVE",
"791 141 CURVE SMOOTH",
"670 59 OFFCURVE",
"489 54 OFFCURVE",
"353 161 CURVE",
"308 62 LINE",
"389 2 OFFCURVE",
"503 -21 OFFCURVE",
"602 -22 CURVE SMOOTH",
"805 -26 OFFCURVE",
"997 102 OFFCURVE",
"1012 317 CURVE SMOOTH",
"1020 426 OFFCURVE",
"952 502 OFFCURVE",
"879 573 CURVE SMOOTH",
"842 608 OFFCURVE",
"811 645 OFFCURVE",
"785 683 CURVE SMOOTH",
"732 759 OFFCURVE",
"752 874 OFFCURVE",
"808 963 CURVE SMOOTH",
"864 1051 OFFCURVE",
"927 1137 OFFCURVE",
"936 1246 CURVE SMOOTH",
"952 1427 OFFCURVE",
"820 1540 OFFCURVE",
"645 1544 CURVE SMOOTH",
"394 1551 OFFCURVE",
"266 1355 OFFCURVE",
"234 1128 CURVE SMOOTH",
"41 0 LINE",
"159 0 LINE",
"351 1129 LINE SMOOTH"
);
}
);
width = 1165;
}
);
note = germandbls;
unicode = 00DF;
},
{
glyphname = ae;
lastChange = "2017-05-19 14:51:26 +0000";
layers = (
{
layerId = "4CEFE409-8F93-4A8D-8E3D-834274A593AF";
paths = (
{
closed = 1;
nodes = (
"1357 118 OFFCURVE",
"1246 79 OFFCURVE",
"1135 82 CURVE SMOOTH",
"1056 84 OFFCURVE",
"995 106 OFFCURVE",
"952 149 CURVE SMOOTH",
"866 234 OFFCURVE",
"844 373 OFFCURVE",
"864 509 CURVE SMOOTH",
"868 538 LINE",
"1600 538 LINE",
"1615 638 LINE SMOOTH",
"1644 881 OFFCURVE",
"1540 1097 OFFCURVE",
"1273 1102 CURVE SMOOTH",
"1110 1106 OFFCURVE",
"982 1015 OFFCURVE",
"887 890 CURVE",
"856 1035 OFFCURVE",
"726 1099 OFFCURVE",
"587 1102 CURVE SMOOTH",
"379 1107 OFFCURVE",
"171 999 OFFCURVE",
"142 778 CURVE",
"257 767 LINE",
"288 923 OFFCURVE",
"426 1005 OFFCURVE",
"579 1001 CURVE SMOOTH",
"743 996 OFFCURVE",
"790 866 OFFCURVE",
"774 721 CURVE",
"761 633 LINE",
"508 634 LINE SMOOTH",
"433 634 OFFCURVE",
"360 623 OFFCURVE",
"289 600 CURVE SMOOTH",
"147 555 OFFCURVE",
"42 455 OFFCURVE",
"30 286 CURVE SMOOTH",
"17 93 OFFCURVE",
"148 -16 OFFCURVE",
"333 -20 CURVE SMOOTH",
"508 -24 OFFCURVE",
"671 48 OFFCURVE",
"778 188 CURVE",
"841 48 OFFCURVE",
"982 -18 OFFCURVE",
"1130 -19 CURVE SMOOTH",
"1281 -22 OFFCURVE",
"1407 21 OFFCURVE",
"1506 110 CURVE",
"1467 199 LINE"
);
},
{
closed = 1;
nodes = (
"1455 996 OFFCURVE",
"1523 840 OFFCURVE",
"1500 669 CURVE SMOOTH",
"1495 636 LINE",
"882 636 LINE",
"935 815 OFFCURVE",
"1054 1008 OFFCURVE",
"1266 1001 CURVE SMOOTH"
);
},
{
closed = 1;
nodes = (
"229 81 OFFCURVE",
"136 150 OFFCURVE",
"149 282 CURVE SMOOTH",
"169 462 OFFCURVE",
"347 537 OFFCURVE",
"507 537 CURVE SMOOTH",
"746 536 LINE",
"692 235 LINE",
"607 144 OFFCURVE",
"481 77 OFFCURVE",
"354 80 CURVE SMOOTH"
);
}
);
width = 1680;
}
);
note = ae;
unicode = 00E6;
},
{
glyphname = eth;
lastChange = "2017-05-19 14:51:26 +0000";
layers = (
{
layerId = "4CEFE409-8F93-4A8D-8E3D-834274A593AF";
paths = (
{
closed = 1;
nodes = (
"704 -26 OFFCURVE",
"899 102 OFFCURVE",
"992 430 CURVE SMOOTH",
"1008 487 OFFCURVE",
"1022 567 OFFCURVE",
"1033 670 CURVE SMOOTH",
"1055 877 OFFCURVE",
"1039 1097 OFFCURVE",
"908 1302 CURVE",
"1100 1410 LINE",
"1060 1489 LINE",
"847 1368 LINE",
"756 1458 OFFCURVE",
"635 1528 OFFCURVE",
"485 1579 CURVE",
"438 1476 LINE",
"568 1431 OFFCURVE",
"669 1374 OFFCURVE",
"741 1305 CURVE",
"520 1180 LINE",
"559 1100 LINE",
"801 1239 LINE",
"885 1122 OFFCURVE",
"926 983 OFFCURVE",
"925 822 CURVE",
"888 869 OFFCURVE",
"843 904 OFFCURVE",
"790 928 CURVE SMOOTH",
"682 976 OFFCURVE",
"511 994 OFFCURVE",
"368 899 CURVE SMOOTH",
"225 804 OFFCURVE",
"141 638 OFFCURVE",
"122 458 CURVE SMOOTH",
"98 210 OFFCURVE",
"239 -14 OFFCURVE",
"503 -21 CURVE SMOOTH"
);
},
{
closed = 1;
nodes = (
"266 674 OFFCURVE",
"400 867 OFFCURVE",
"636 862 CURVE SMOOTH",
"759 859 OFFCURVE",
"870 805 OFFCURVE",
"914 686 CURVE",
"896 542 LINE SMOOTH",
"887 475 OFFCURVE",
"868 406 OFFCURVE",
"838 333 CURVE SMOOTH",
"778 188 OFFCURVE",
"672 78 OFFCURVE",
"513 83 CURVE SMOOTH",
"310 88 OFFCURVE",
"221 275 OFFCURVE",
"242 458 CURVE SMOOTH"
);
}
);
width = 1156;
}
);
note = eth;
unicode = 00F0;
},
{
glyphname = divide;
lastChange = "2017-05-19 14:51:26 +0000";
layers = (
{
layerId = "4CEFE409-8F93-4A8D-8E3D-834274A593AF";
paths = (
{
closed = 1;
nodes = (
"559 1040 OFFCURVE",
"595 1005 OFFCURVE",
"642 1006 CURVE SMOOTH",
"687 1007 OFFCURVE",
"727 1043 OFFCURVE",
"731 1088 CURVE SMOOTH",
"735 1136 OFFCURVE",
"699 1174 OFFCURVE",
"651 1173 CURVE SMOOTH",
"604 1172 OFFCURVE",
"566 1133 OFFCURVE",
"563 1088 CURVE SMOOTH"
);
},
{
closed = 1;
nodes = (
"75 644 LINE",
"1046 644 LINE",
"1067 761 LINE",
"96 761 LINE"
);
},
{
closed = 1;
nodes = (
"421 244 OFFCURVE",
"457 208 OFFCURVE",
"504 209 CURVE SMOOTH",
"551 210 OFFCURVE",
"589 247 OFFCURVE",
"593 292 CURVE SMOOTH",
"597 340 OFFCURVE",
"561 377 OFFCURVE",
"513 376 CURVE SMOOTH",
"466 375 OFFCURVE",
"429 337 OFFCURVE",
"425 292 CURVE SMOOTH"
);
}
);
width = 1129;
}
);
note = divide;
unicode = 00F7;
},
{
glyphname = oslash;
lastChange = "2017-05-19 14:51:26 +0000";
layers = (
{
layerId = "4CEFE409-8F93-4A8D-8E3D-834274A593AF";
paths = (
{
closed = 1;
nodes = (
"747 -26 OFFCURVE",
"971 200 OFFCURVE",
"1015 560 CURVE SMOOTH",
"1032 717 OFFCURVE",
"1012 887 OFFCURVE",
"900 1008 CURVE",
"1039 1213 LINE",
"940 1214 LINE",
"833 1054 LINE",
"770 1086 OFFCURVE",
"703 1102 OFFCURVE",
"630 1103 CURVE SMOOTH",
"341 1108 OFFCURVE",
"117 882 OFFCURVE",
"73 522 CURVE SMOOTH",
"56 359 OFFCURVE",
"78 185 OFFCURVE",
"199 65 CURVE",
"61 -139 LINE",
"160 -140 LINE",
"266 22 LINE",
"327 -6 OFFCURVE",
"391 -21 OFFCURVE",
"458 -22 CURVE SMOOTH"
);
},
{
closed = 1;
nodes = (
"183 398 OFFCURVE",
"184 471 OFFCURVE",
"195 555 CURVE SMOOTH",
"216 702 OFFCURVE",
"290 851 OFFCURVE",
"410 940 CURVE SMOOTH",
"530 1028 OFFCURVE",
"684 1014 OFFCURVE",
"775 961 CURVE",
"258 164 LINE",
"219 215 OFFCURVE",
"197 272 OFFCURVE",
"190 336 CURVE SMOOTH"
);
},
{
closed = 1;
nodes = (
"911 623 OFFCURVE",
"900 513 OFFCURVE",
"865 410 CURVE SMOOTH",
"795 203 OFFCURVE",
"651 76 OFFCURVE",
"464 79 CURVE SMOOTH",
"414 80 OFFCURVE",
"368 91 OFFCURVE",
"325 113 CURVE",
"839 906 LINE",
"873 855 OFFCURVE",
"893 800 OFFCURVE",
"900 739 CURVE SMOOTH"
);
}
);
width = 1107;
}
);
note = oslash;
unicode = 00F8;
},
{
glyphname = thorn;
lastChange = "2017-05-19 14:51:26 +0000";
layers = (
{
layerId = "4CEFE409-8F93-4A8D-8E3D-834274A593AF";
paths = (
{
closed = 1;
nodes = (
"605 -23 OFFCURVE",
"689 3 OFFCURVE",
"756 58 CURVE SMOOTH",
"883 161 OFFCURVE",
"961 326 OFFCURVE",
"992 553 CURVE SMOOTH",
"1009 712 OFFCURVE",
"991 894 OFFCURVE",
"893 1011 CURVE SMOOTH",
"795 1127 OFFCURVE",
"510 1165 OFFCURVE",
"322 932 CURVE",
"434 1536 LINE",
"316 1536 LINE",
"-23 -416 LINE",
"95 -416 LINE",
"195 137 LINE",
"263 30 OFFCURVE",
"380 -18 OFFCURVE",
"505 -21 CURVE SMOOTH"
);
},
{
closed = 1;
nodes = (
"717 997 OFFCURVE",
"774 972 OFFCURVE",
"809 923 CURVE SMOOTH",
"880 825 OFFCURVE",
"886 673 OFFCURVE",
"871 553 CURVE SMOOTH",
"869 533 LINE",
"850 393 OFFCURVE",
"794 240 OFFCURVE",
"687 148 CURVE SMOOTH",
"580 55 OFFCURVE",
"304 26 OFFCURVE",
"216 270 CURVE",
"303 791 LINE",
"378 916 OFFCURVE",
"487 1004 OFFCURVE",
"639 1000 CURVE SMOOTH"
);
}
);
width = 1116;
}
);
note = thorn;
rightKerningGroup = b;
unicode = 00FE;
},
{
glyphname = dcroat;
lastChange = "2017-05-19 14:51:26 +0000";
layers = (
{
layerId = "4CEFE409-8F93-4A8D-8E3D-834274A593AF";
paths = (
{
closed = 1;
nodes = (
"1065 1258 LINE",
"1234 1258 LINE",
"1252 1359 LINE",
"1083 1359 LINE",
"1114 1536 LINE",
"995 1536 LINE",
"963 1359 LINE",
"655 1359 LINE",
"637 1258 LINE",
"946 1258 LINE",
"886 930 LINE",
"855 987 OFFCURVE",
"813 1030 OFFCURVE",
"760 1058 CURVE SMOOTH",
"654 1114 OFFCURVE",
"465 1134 OFFCURVE",
"329 1023 CURVE SMOOTH",
"201 920 OFFCURVE",
"122 754 OFFCURVE",
"91 527 CURVE SMOOTH",
"74 372 OFFCURVE",
"96 189 OFFCURVE",
"195 72 CURVE SMOOTH",
"294 -45 OFFCURVE",
"576 -84 OFFCURVE",
"763 144 CURVE",
"736 0 LINE",
"847 0 LINE"
);
},
{
closed = 1;
nodes = (
"207 400 OFFCURVE",
"208 470 OFFCURVE",
"215 549 CURVE",
"234 688 OFFCURVE",
"289 841 OFFCURVE",
"396 934 CURVE SMOOTH",
"503 1026 OFFCURVE",
"783 1061 OFFCURVE",
"864 792 CURVE",
"777 278 LINE",
"701 158 OFFCURVE",
"589 79 OFFCURVE",
"442 84 CURVE SMOOTH",
"287 88 OFFCURVE",
"225 201 OFFCURVE",
"213 337 CURVE SMOOTH"
);
}
);
width = 1137;
}
);
note = dcroat;
unicode = 0111;
},
{
glyphname = Hbar;
lastChange = "2017-05-19 14:51:26 +0000";
layers = (
{
layerId = "4CEFE409-8F93-4A8D-8E3D-834274A593AF";
paths = (
{
closed = 1;
nodes = (
"1277 1026 LINE",
"1417 1026 LINE",
"1434 1123 LINE",
"1294 1123 LINE",
"1352 1456 LINE",
"1229 1456 LINE",
"1171 1123 LINE",
"368 1123 LINE",
"426 1456 LINE",
"303 1456 LINE",
"245 1123 LINE",
"113 1123 LINE",
"96 1026 LINE",
"228 1026 LINE",
"50 0 LINE",
"173 0 LINE",
"294 698 LINE",
"1098 698 LINE",
"976 0 LINE",
"1099 0 LINE"
);
},
{
closed = 1;
nodes = (
"1155 1026 LINE",
"1115 803 LINE",
"312 803 LINE",
"351 1026 LINE"
);
}
);
width = 1370;
}
);
note = Hbar;
unicode = 0126;
},
{
glyphname = dotlessi;
lastChange = "2017-05-19 14:51:26 +0000";
layers = (
{
layerId = "4CEFE409-8F93-4A8D-8E3D-834274A593AF";
paths = (
{
closed = 1;
nodes = (
"57 0 LINE",
"177 0 LINE",
"365 1082 LINE",
"246 1082 LINE"
);
}
);
width = 442;
}
);
note = dotlessi;
unicode = 0131;
},
{
glyphname = kgreenlandic;
lastChange = "2017-05-19 14:51:26 +0000";
layers = (
{
layerId = "4CEFE409-8F93-4A8D-8E3D-834274A593AF";
paths = (
{
closed = 1;
nodes = (
"503 549 LINE",
"1065 1081 LINE",
"912 1082 LINE",
"399 603 LINE",
"275 603 LINE",
"359 1082 LINE",
"240 1082 LINE",
"52 0 LINE",
"171 0 LINE",
"257 496 LINE",
"395 496 LINE",
"777 0 LINE",
"917 0 LINE"
);
}
);
width = 1079;
}
);
note = kgreenlandic;
unicode = 0138;
},
{
glyphname = Lslash;
lastChange = "2017-05-19 14:51:26 +0000";
layers = (
{
layerId = "4CEFE409-8F93-4A8D-8E3D-834274A593AF";
paths = (
{
closed = 1;
nodes = (
"317 725 LINE",
"632 822 LINE",
"649 917 LINE",
"334 821 LINE",
"444 1456 LINE",
"321 1456 LINE",
"204 780 LINE",
"42 730 LINE",
"25 635 LINE",
"187 684 LINE",
"68 0 LINE",
"889 0 LINE",
"907 104 LINE",
"209 104 LINE"
);
}
);
width = 1050;
}
);
note = Lslash;
unicode = 0141;
},
{
glyphname = lslash;
lastChange = "2017-05-19 14:51:26 +0000";
layers = (
{
layerId = "4CEFE409-8F93-4A8D-8E3D-834274A593AF";
paths = (
{
closed = 1;
nodes = (
"362 864 LINE",
"480 1536 LINE",
"360 1536 LINE",
"235 815 LINE",
"49 746 LINE",
"32 650 LINE",
"219 719 LINE",
"93 0 LINE",
"213 0 LINE",
"346 767 LINE",
"533 837 LINE",
"550 933 LINE"
);
}
);
width = 513;
}
);
note = lslash;
unicode = 0142;
},
{
glyphname = Eng;
lastChange = "2017-05-19 14:51:26 +0000";
layers = (
{
layerId = "4CEFE409-8F93-4A8D-8E3D-834274A593AF";
paths = (
{
closed = 1;
nodes = (
"410 1254 LINE",
"997 0 LINE",
"983 -88 LINE SMOOTH",
"964 -213 OFFCURVE",
"900 -339 OFFCURVE",
"760 -336 CURVE SMOOTH",
"730 -335 OFFCURVE",
"698 -328 OFFCURVE",
"663 -317 CURVE",
"638 -418 LINE",
"683 -432 OFFCURVE",
"722 -439 OFFCURVE",
"755 -439 CURVE SMOOTH",
"970 -443 OFFCURVE",
"1080 -283 OFFCURVE",
"1107 -87 CURVE SMOOTH",
"1371 1456 LINE",
"1248 1456 LINE",
"1030 203 LINE",
"441 1456 LINE",
"323 1456 LINE",
"70 0 LINE",
"192 0 LINE"
);
}
);
width = 1392;
}
);
note = Eng;
unicode = 014A;
},
{
glyphname = eng;
lastChange = "2017-05-19 14:51:26 +0000";
layers = (
{
layerId = "4CEFE409-8F93-4A8D-8E3D-834274A593AF";
paths = (
{
closed = 1;
nodes = (
"967 732 OFFCURVE",
"965 802 OFFCURVE",
"953 869 CURVE SMOOTH",
"928 1002 OFFCURVE",
"845 1098 OFFCURVE",
"676 1102 CURVE SMOOTH",
"519 1106 OFFCURVE",
"397 1027 OFFCURVE",
"312 900 CURVE",
"342 1082 LINE",
"235 1082 LINE",
"47 0 LINE",
"166 0 LINE",
"300 777 LINE",
"335 844 OFFCURVE",
"382 899 OFFCURVE",
"439 941 CURVE SMOOTH",
"553 1024 OFFCURVE",
"726 1014 OFFCURVE",
"786 946 CURVE SMOOTH",
"846 877 OFFCURVE",
"852 767 OFFCURVE",
"840 659 CURVE",
"717 -96 LINE SMOOTH",
"706 -159 OFFCURVE",
"684 -214 OFFCURVE",
"650 -263 CURVE SMOOTH",
"581 -360 OFFCURVE",
"465 -340 OFFCURVE",
"386 -316 CURVE",
"361 -418 LINE",
"409 -431 OFFCURVE",
"452 -439 OFFCURVE",
"489 -440 CURVE SMOOTH",
"701 -443 OFFCURVE",
"810 -284 OFFCURVE",
"837 -89 CURVE SMOOTH",
"959 659 LINE"
);
}
);
width = 1107;
}
);
note = eng;
unicode = 014B;
},
{
glyphname = OE;
lastChange = "2017-05-19 14:51:26 +0000";
layers = (
{
layerId = "4CEFE409-8F93-4A8D-8E3D-834274A593AF";
paths = (
{
closed = 1;
nodes = (
"1007 698 LINE",
"1666 698 LINE",
"1685 803 LINE",
"1025 803 LINE",
"1120 1351 LINE",
"1874 1351 LINE",
"1892 1456 LINE",
"1069 1456 LINE",
"833 1476 LINE",
"766 1478 LINE SMOOTH",
"447 1478 OFFCURVE",
"206 1240 OFFCURVE",
"147 869 CURVE SMOOTH",
"101 576 LINE SMOOTH",
"88 477 OFFCURVE",
"94 383 OFFCURVE",
"121 293 CURVE SMOOTH",
"174 113 OFFCURVE",
"309 -15 OFFCURVE",
"528 -19 CURVE SMOOTH",
"601 -18 LINE",
"832 0 LINE",
"1644 0 LINE",
"1663 104 LINE",
"904 104 LINE"
);
},
{
closed = 1;
nodes = (
"290 1008 OFFCURVE",
"341 1125 OFFCURVE",
"424 1227 CURVE SMOOTH",
"588 1430 OFFCURVE",
"842 1383 OFFCURVE",
"1001 1362 CURVE",
"778 95 LINE",
"585 76 OFFCURVE",
"422 63 OFFCURVE",
"325 163 CURVE SMOOTH",
"228 262 OFFCURVE",
"202 422 OFFCURVE",
"222 575 CURVE SMOOTH",
"269 875 LINE SMOOTH"
);
}
);
width = 1856;
}
);
leftKerningGroup = C;
note = OE;
unicode = 0152;
},
{
glyphname = oe;
lastChange = "2017-05-19 14:51:26 +0000";
layers = (
{
layerId = "4CEFE409-8F93-4A8D-8E3D-834274A593AF";
paths = (
{
closed = 1;
nodes = (
"1512 117 OFFCURVE",
"1400 78 OFFCURVE",
"1276 82 CURVE SMOOTH",
"1202 85 OFFCURVE",
"1145 109 OFFCURVE",
"1104 154 CURVE SMOOTH",
"1022 244 OFFCURVE",
"996 385 OFFCURVE",
"1015 509 CURVE SMOOTH",
"1020 538 LINE",
"1759 538 LINE",
"1774 640 LINE SMOOTH",
"1803 883 OFFCURVE",
"1691 1096 OFFCURVE",
"1428 1103 CURVE SMOOTH",
"1239 1107 OFFCURVE",
"1094 983 OFFCURVE",
"998 831 CURVE",
"975 915 OFFCURVE",
"929 981 OFFCURVE",
"861 1028 CURVE SMOOTH",
"724 1123 OFFCURVE",
"512 1132 OFFCURVE",
"358 1029 CURVE SMOOTH",
"204 926 OFFCURVE",
"107 746 OFFCURVE",
"83 555 CURVE SMOOTH",
"79 522 LINE SMOOTH",
"70 434 OFFCURVE",
"76 349 OFFCURVE",
"99 267 CURVE SMOOTH",
"144 103 OFFCURVE",
"260 -16 OFFCURVE",
"460 -20 CURVE SMOOTH",
"659 -25 OFFCURVE",
"811 86 OFFCURVE",
"912 249 CURVE",
"961 88 OFFCURVE",
"1104 -15 OFFCURVE",
"1272 -19 CURVE SMOOTH",
"1412 -22 OFFCURVE",
"1551 17 OFFCURVE",
"1654 116 CURVE",
"1612 200 LINE"
);
},
{
closed = 1;
nodes = (
"1604 996 OFFCURVE",
"1683 837 OFFCURVE",
"1660 670 CURVE SMOOTH",
"1655 640 LINE",
"1035 640 LINE",
"1091 815 OFFCURVE",
"1214 1008 OFFCURVE",
"1421 1001 CURVE SMOOTH"
);
},
{
closed = 1;
nodes = (
"217 696 OFFCURVE",
"289 845 OFFCURVE",
"408 936 CURVE SMOOTH",
"527 1027 OFFCURVE",
"718 1020 OFFCURVE",
"802 928 CURVE SMOOTH",
"886 835 OFFCURVE",
"909 688 OFFCURVE",
"893 559 CURVE SMOOTH",
"874 410 OFFCURVE",
"826 293 OFFCURVE",
"749 206 CURVE SMOOTH",
"594 32 OFFCURVE",
"371 61 OFFCURVE",
"288 152 CURVE SMOOTH",
"204 243 OFFCURVE",
"181 388 OFFCURVE",
"196 517 CURVE SMOOTH"
);
}
);
width = 1835;
}
);
leftKerningGroup = c;
note = oe;
unicode = 0153;
},
{
glyphname = longs;
lastChange = "2017-05-19 14:51:26 +0000";
layers = (
{
layerId = "4CEFE409-8F93-4A8D-8E3D-834274A593AF";
paths = (
{
closed = 1;
nodes = (
"393 1285 OFFCURVE",
"418 1342 OFFCURVE",
"458 1389 CURVE SMOOTH",
"538 1483 OFFCURVE",
"655 1463 OFFCURVE",
"730 1443 CURVE",
"756 1538 LINE",
"705 1551 OFFCURVE",
"658 1559 OFFCURVE",
"617 1560 CURVE SMOOTH",
"406 1563 OFFCURVE",
"289 1413 OFFCURVE",
"262 1216 CURVE SMOOTH",
"56 0 LINE",
"175 0 LINE",
"383 1218 LINE SMOOTH"
);
}
);
width = 451;
}
);
note = longs;
unicode = 017F;
},
{
glyphname = uni0181;
lastChange = "2017-05-19 14:51:26 +0000";
layers = (
{
layerId = "4CEFE409-8F93-4A8D-8E3D-834274A593AF";
paths = (
{
closed = 1;
nodes = (
"116 1137 OFFCURVE",
"118 1100 OFFCURVE",
"124 1057 CURVE",
"221 1064 LINE",
"217 1106 LINE SMOOTH",
"216 1119 OFFCURVE",
"216 1133 OFFCURVE",
"218 1147 CURVE SMOOTH",
"235 1292 OFFCURVE",
"356 1349 OFFCURVE",
"489 1353 CURVE",
"256 0 LINE",
"752 0 LINE SMOOTH",
"1009 1 OFFCURVE",
"1234 143 OFFCURVE",
"1255 418 CURVE SMOOTH",
"1267 570 OFFCURVE",
"1192 711 OFFCURVE",
"1043 756 CURVE",
"1194 811 OFFCURVE",
"1306 918 OFFCURVE",
"1321 1083 CURVE SMOOTH",
"1345 1344 OFFCURVE",
"1157 1450 OFFCURVE",
"921 1455 CURVE SMOOTH",
"502 1457 LINE",
"502 1456 LINE",
"311 1457 OFFCURVE",
"137 1379 OFFCURVE",
"118 1168 CURVE SMOOTH"
);
},
{
closed = 1;
nodes = (
"1086 1346 OFFCURVE",
"1219 1278 OFFCURVE",
"1199 1086 CURVE SMOOTH",
"1178 885 OFFCURVE",
"1003 803 OFFCURVE",
"818 803 CURVE SMOOTH",
"516 804 LINE",
"611 1351 LINE",
"917 1350 LINE SMOOTH"
);
},
{
closed = 1;
nodes = (
"1111 209 OFFCURVE",
"942 103 OFFCURVE",
"745 103 CURVE SMOOTH",
"395 104 LINE",
"499 701 LINE",
"871 700 LINE SMOOTH",
"1042 695 OFFCURVE",
"1154 593 OFFCURVE",
"1134 416 CURVE SMOOTH"
);
}
);
width = 1398;
}
);
note = uni0181;
unicode = 0181;
},
{
glyphname = uni0183;
lastChange = "2017-05-19 14:51:26 +0000";
layers = (
{
layerId = "4CEFE409-8F93-4A8D-8E3D-834274A593AF";
paths = (
{
closed = 1;
nodes = (
"191 150 LINE",
"223 93 OFFCURVE",
"267 50 OFFCURVE",
"322 23 CURVE SMOOTH",
"432 -33 OFFCURVE",
"618 -52 OFFCURVE",
"753 59 CURVE SMOOTH",
"880 163 OFFCURVE",
"958 328 OFFCURVE",
"989 553 CURVE SMOOTH",
"1006 712 OFFCURVE",
"986 894 OFFCURVE",
"889 1011 CURVE SMOOTH",
"792 1127 OFFCURVE",
"501 1167 OFFCURVE",
"317 926 CURVE",
"412 1434 LINE",
"988 1434 LINE",
"1006 1536 LINE",
"311 1536 LINE",
"44 0 LINE",
"156 0 LINE"
);
},
{
closed = 1;
nodes = (
"719 997 OFFCURVE",
"775 971 OFFCURVE",
"809 922 CURVE SMOOTH",
"877 823 OFFCURVE",
"882 673 OFFCURVE",
"867 553 CURVE SMOOTH",
"865 533 LINE",
"846 394 OFFCURVE",
"793 241 OFFCURVE",
"688 149 CURVE SMOOTH",
"583 56 OFFCURVE",
"298 23 OFFCURVE",
"215 287 CURVE",
"297 778 LINE",
"370 910 OFFCURVE",
"481 1004 OFFCURVE",
"640 999 CURVE SMOOTH"
);
}
);
width = 1101;
}
);
note = uni0183;
rightKerningGroup = b;
unicode = 0183;
},
{
glyphname = uni0184;
lastChange = "2017-05-19 14:51:26 +0000";
layers = (
{
layerId = "4CEFE409-8F93-4A8D-8E3D-834274A593AF";
paths = (
{
closed = 1;
nodes = (
"1151 685 OFFCURVE",
"961 822 OFFCURVE",
"712 823 CURVE SMOOTH",
"382 824 LINE",
"492 1456 LINE",
"366 1456 LINE",
"199 1240 LINE",
"191 1182 LINE",
"286 974 LINE",
"117 0 LINE",
"598 0 LINE SMOOTH",
"865 -1 OFFCURVE",
"1101 138 OFFCURVE",
"1128 421 CURVE SMOOTH"
);
},
{
closed = 1;
nodes = (
"719 719 LINE SMOOTH",
"899 714 OFFCURVE",
"1026 615 OFFCURVE",
"1005 424 CURVE SMOOTH",
"980 211 OFFCURVE",
"800 104 OFFCURVE",
"599 103 CURVE SMOOTH",
"257 104 LINE",
"364 720 LINE"
);
}
);
width = 1249;
}
);
note = uni0184;
unicode = 0184;
},
{
glyphname = uni0185;
lastChange = "2017-05-19 14:51:26 +0000";
layers = (
{
layerId = "4CEFE409-8F93-4A8D-8E3D-834274A593AF";
paths = (
{
closed = 1;
nodes = (
"662 -23 OFFCURVE",
"746 3 OFFCURVE",
"814 58 CURVE SMOOTH",
"942 161 OFFCURVE",
"1021 326 OFFCURVE",
"1052 553 CURVE SMOOTH",
"1069 712 OFFCURVE",
"1050 895 OFFCURVE",
"952 1011 CURVE SMOOTH",
"854 1127 OFFCURVE",
"567 1166 OFFCURVE",
"380 926 CURVE",
"493 1536 LINE",
"370 1536 LINE",
"204 1320 LINE",
"196 1262 LINE",
"290 1054 LINE",
"107 0 LINE",
"219 0 LINE",
"254 150 LINE",
"318 35 OFFCURVE",
"435 -18 OFFCURVE",
"563 -21 CURVE SMOOTH"
);
},
{
closed = 1;
nodes = (
"782 997 OFFCURVE",
"838 971 OFFCURVE",
"872 922 CURVE SMOOTH",
"940 823 OFFCURVE",
"944 673 OFFCURVE",
"931 553 CURVE",
"902 353 OFFCURVE",
"843 221 OFFCURVE",
"741 140 CURVE SMOOTH",
"639 59 OFFCURVE",
"361 23 OFFCURVE",
"278 286 CURVE",
"361 779 LINE",
"434 910 OFFCURVE",
"546 1004 OFFCURVE",
"703 999 CURVE SMOOTH"
);
}
);
width = 1151;
}
);
note = uni0185;
rightKerningGroup = b;
unicode = 0185;
},
{
glyphname = uni0186;
lastChange = "2017-05-19 14:51:26 +0000";
layers = (
{
layerId = "4CEFE409-8F93-4A8D-8E3D-834274A593AF";
paths = (
{
closed = 1;
nodes = (
"84 316 OFFCURVE",
"122 202 OFFCURVE",
"198 115 CURVE SMOOTH",
"349 -60 OFFCURVE",
"669 -55 OFFCURVE",
"849 71 CURVE SMOOTH",
"1028 197 OFFCURVE",
"1135 413 OFFCURVE",
"1171 637 CURVE SMOOTH",
"1199 819 LINE SMOOTH",
"1212 922 OFFCURVE",
"1208 1023 OFFCURVE",
"1185 1123 CURVE SMOOTH",
"1140 1322 OFFCURVE",
"1010 1471 OFFCURVE",
"771 1476 CURVE SMOOTH",
"464 1483 OFFCURVE",
"249 1295 OFFCURVE",
"182 1002 CURVE",
"302 1003 LINE",
"336 1118 OFFCURVE",
"390 1209 OFFCURVE",
"465 1277 CURVE SMOOTH",
"614 1412 OFFCURVE",
"889 1397 OFFCURVE",
"985 1279 CURVE SMOOTH",
"1081 1161 OFFCURVE",
"1098 976 OFFCURVE",
"1077 820 CURVE SMOOTH",
"1047 629 LINE SMOOTH",
"1032 539 OFFCURVE",
"1004 452 OFFCURVE",
"962 368 CURVE SMOOTH",
"878 200 OFFCURVE",
"736 79 OFFCURVE",
"532 84 CURVE SMOOTH",
"304 91 OFFCURVE",
"209 241 OFFCURVE",
"206 456 CURVE",
"85 456 LINE"
);
}
);
width = 1290;
}
);
note = uni0186;
rightKerningGroup = D;
unicode = 0186;
},
{
glyphname = uni0187;
lastChange = "2017-05-19 14:51:26 +0000";
layers = (
{
layerId = "4CEFE409-8F93-4A8D-8E3D-834274A593AF";
paths = (
{
closed = 1;
nodes = (
"1523 1420 OFFCURVE",
"1551 1415 OFFCURVE",
"1582 1405 CURVE",
"1601 1507 LINE",
"1560 1520 OFFCURVE",
"1521 1527 OFFCURVE",
"1484 1528 CURVE SMOOTH",
"1321 1531 OFFCURVE",
"1238 1427 OFFCURVE",
"1193 1283 CURVE",
"1156 1353 OFFCURVE",
"1101 1402 OFFCURVE",
"1030 1431 CURVE SMOOTH",
"886 1488 OFFCURVE",
"666 1512 OFFCURVE",
"487 1386 CURVE SMOOTH",
"307 1260 OFFCURVE",
"199 1044 OFFCURVE",
"163 819 CURVE SMOOTH",
"135 637 LINE SMOOTH",
"121 534 OFFCURVE",
"126 433 OFFCURVE",
"149 334 CURVE SMOOTH",
"195 134 OFFCURVE",
"324 -14 OFFCURVE",
"563 -21 CURVE SMOOTH",
"871 -28 OFFCURVE",
"1085 161 OFFCURVE",
"1152 453 CURVE",
"1032 453 LINE",
"999 338 OFFCURVE",
"945 246 OFFCURVE",
"870 179 CURVE SMOOTH",
"721 44 OFFCURVE",
"447 60 OFFCURVE",
"351 178 CURVE SMOOTH",
"254 296 OFFCURVE",
"236 479 OFFCURVE",
"257 636 CURVE SMOOTH",
"287 827 LINE SMOOTH",
"302 917 OFFCURVE",
"330 1004 OFFCURVE",
"372 1089 CURVE SMOOTH",
"456 1257 OFFCURVE",
"598 1377 OFFCURVE",
"802 1372 CURVE SMOOTH",
"1031 1367 OFFCURVE",
"1123 1215 OFFCURVE",
"1130 1000 CURVE",
"1248 1001 LINE",
"1277 1178 LINE SMOOTH",
"1298 1314 OFFCURVE",
"1353 1426 OFFCURVE",
"1500 1421 CURVE SMOOTH"
);
}
);
width = 1383;
}
);
leftKerningGroup = C;
note = uni0187;
unicode = 0187;
},
{
glyphname = uni0188;
lastChange = "2017-05-19 14:51:26 +0000";
layers = (
{
layerId = "4CEFE409-8F93-4A8D-8E3D-834274A593AF";
paths = (
{
closed = 1;
nodes = (
"1210 1052 OFFCURVE",
"1236 1047 OFFCURVE",
"1265 1037 CURVE",
"1279 1128 LINE",
"1236 1139 OFFCURVE",
"1200 1146 OFFCURVE",
"1171 1147 CURVE SMOOTH",
"1036 1148 OFFCURVE",
"961 1068 OFFCURVE",
"916 949 CURVE",
"885 1002 OFFCURVE",
"841 1040 OFFCURVE",
"786 1065 CURVE SMOOTH",
"674 1113 OFFCURVE",
"494 1132 OFFCURVE",
"345 1029 CURVE SMOOTH",
"196 925 OFFCURVE",
"106 746 OFFCURVE",
"83 551 CURVE SMOOTH",
"79 517 LINE SMOOTH",
"70 430 OFFCURVE",
"75 346 OFFCURVE",
"95 265 CURVE SMOOTH",
"135 101 OFFCURVE",
"244 -16 OFFCURVE",
"445 -21 CURVE SMOOTH",
"664 -26 OFFCURVE",
"856 118 OFFCURVE",
"896 335 CURVE",
"784 334 LINE",
"763 257 OFFCURVE",
"722 195 OFFCURVE",
"663 148 CURVE SMOOTH",
"544 55 OFFCURVE",
"351 62 OFFCURVE",
"273 153 CURVE SMOOTH",
"195 244 OFFCURVE",
"180 389 OFFCURVE",
"195 518 CURVE SMOOTH",
"218 711 OFFCURVE",
"283 850 OFFCURVE",
"390 935 CURVE SMOOTH",
"449 982 OFFCURVE",
"520 1004 OFFCURVE",
"605 1001 CURVE SMOOTH",
"769 996 OFFCURVE",
"855 873 OFFCURVE",
"852 718 CURVE",
"961 718 LINE",
"977 819 LINE SMOOTH",
"997 944 OFFCURVE",
"1048 1056 OFFCURVE",
"1187 1053 CURVE SMOOTH"
);
}
);
width = 1224;
}
);
leftKerningGroup = c;
note = uni0188;
unicode = 0188;
},
{
glyphname = uni018A;
lastChange = "2017-05-19 14:51:26 +0000";
layers = (
{
layerId = "4CEFE409-8F93-4A8D-8E3D-834274A593AF";
paths = (
{
closed = 1;
nodes = (
"117 1137 OFFCURVE",
"119 1100 OFFCURVE",
"125 1057 CURVE",
"222 1064 LINE",
"218 1106 LINE",
"219 1147 LINE",
"236 1292 OFFCURVE",
"357 1349 OFFCURVE",
"490 1353 CURVE",
"257 0 LINE",
"665 0 LINE SMOOTH",
"1034 4 OFFCURVE",
"1316 274 OFFCURVE",
"1375 682 CURVE SMOOTH",
"1391 795 LINE SMOOTH",
"1406 910 OFFCURVE",
"1397 1018 OFFCURVE",
"1364 1118 CURVE SMOOTH",
"1297 1318 OFFCURVE",
"1135 1454 OFFCURVE",
"888 1455 CURVE SMOOTH",
"503 1457 LINE",
"503 1456 LINE",
"312 1457 OFFCURVE",
"138 1378 OFFCURVE",
"119 1167 CURVE SMOOTH"
);
},
{
closed = 1;
nodes = (
"996 1347 OFFCURVE",
"1078 1319 OFFCURVE",
"1137 1266 CURVE SMOOTH",
"1256 1158 OFFCURVE",
"1295 979 OFFCURVE",
"1271 798 CURVE SMOOTH",
"1251 667 LINE SMOOTH",
"1203 352 OFFCURVE",
"983 103 OFFCURVE",
"654 103 CURVE SMOOTH",
"396 104 LINE",
"612 1351 LINE",
"893 1350 LINE SMOOTH"
);
}
);
width = 1486;
}
);
note = uni018A;
rightKerningGroup = D;
unicode = 018A;
},
{
glyphname = uni018B;
lastChange = "2017-05-19 14:51:26 +0000";
layers = (
{
layerId = "4CEFE409-8F93-4A8D-8E3D-834274A593AF";
paths = (
{
closed = 1;
nodes = (
"322 1456 LINE",
"303 1351 LINE",
"1036 1351 LINE",
"944 824 LINE",
"589 825 LINE SMOOTH",
"324 825 OFFCURVE",
"83 691 OFFCURVE",
"56 406 CURVE SMOOTH",
"32 142 OFFCURVE",
"215 8 OFFCURVE",
"462 1 CURVE SMOOTH",
"924 0 LINE",
"1176 1456 LINE"
);
},
{
closed = 1;
nodes = (
"282 112 OFFCURVE",
"158 218 OFFCURVE",
"181 409 CURVE SMOOTH",
"206 620 OFFCURVE",
"386 721 OFFCURVE",
"585 722 CURVE SMOOTH",
"927 720 LINE",
"820 104 LINE",
"465 105 LINE"
);
}
);
width = 1204;
}
);
note = uni018B;
rightKerningGroup = H;
unicode = 018B;
},
{
glyphname = uni018C;
lastChange = "2017-05-19 14:51:26 +0000";
layers = (
{
layerId = "4CEFE409-8F93-4A8D-8E3D-834274A593AF";
paths = (
{
closed = 1;
nodes = (
"886 930 LINE",
"855 987 OFFCURVE",
"813 1030 OFFCURVE",
"760 1058 CURVE SMOOTH",
"654 1114 OFFCURVE",
"465 1134 OFFCURVE",
"329 1023 CURVE SMOOTH",
"201 920 OFFCURVE",
"122 754 OFFCURVE",
"91 527 CURVE SMOOTH",
"74 372 OFFCURVE",
"96 189 OFFCURVE",
"195 72 CURVE SMOOTH",
"294 -45 OFFCURVE",
"576 -84 OFFCURVE",
"763 144 CURVE",
"736 0 LINE",
"847 0 LINE",
"1114 1536 LINE",
"419 1536 LINE",
"401 1434 LINE",
"977 1434 LINE"
);
},
{
closed = 1;
nodes = (
"207 400 OFFCURVE",
"208 470 OFFCURVE",
"215 549 CURVE",
"234 688 OFFCURVE",
"289 841 OFFCURVE",
"396 934 CURVE SMOOTH",
"503 1026 OFFCURVE",
"783 1061 OFFCURVE",
"864 792 CURVE",
"777 278 LINE",
"701 158 OFFCURVE",
"589 79 OFFCURVE",
"442 84 CURVE SMOOTH",
"287 88 OFFCURVE",
"225 201 OFFCURVE",
"213 337 CURVE SMOOTH"
);
}
);
width = 1104;
}
);
note = uni018C;
unicode = 018C;
},
{
glyphname = uni018D;
lastChange = "2017-05-19 14:51:26 +0000";
layers = (
{
layerId = "4CEFE409-8F93-4A8D-8E3D-834274A593AF";
paths = (
{
closed = 1;
nodes = (
"650 -231 OFFCURVE",
"590 -174 OFFCURVE",
"526 -121 CURVE SMOOTH",
"462 -68 OFFCURVE",
"405 -8 OFFCURVE",
"355 59 CURVE",
"393 52 OFFCURVE",
"426 49 OFFCURVE",
"455 50 CURVE SMOOTH",
"738 59 OFFCURVE",
"973 262 OFFCURVE",
"1008 546 CURVE SMOOTH",
"1012 579 LINE SMOOTH",
"1021 667 OFFCURVE",
"1013 750 OFFCURVE",
"989 829 CURVE SMOOTH",
"940 986 OFFCURVE",
"821 1098 OFFCURVE",
"626 1103 CURVE SMOOTH",
"341 1108 OFFCURVE",
"122 892 OFFCURVE",
"79 541 CURVE SMOOTH",
"53 295 OFFCURVE",
"167 64 OFFCURVE",
"421 -151 CURVE SMOOTH",
"467 -190 OFFCURVE",
"509 -231 OFFCURVE",
"546 -274 CURVE",
"34 -276 LINE",
"19 -375 LINE",
"696 -375 LINE",
"706 -292 LINE"
);
},
{
closed = 1;
nodes = (
"862 327 OFFCURVE",
"684 130 OFFCURVE",
"441 137 CURVE SMOOTH",
"400 138 OFFCURVE",
"354 145 OFFCURVE",
"305 158 CURVE",
"208 259 OFFCURVE",
"182 407 OFFCURVE",
"197 542 CURVE SMOOTH",
"199 559 LINE SMOOTH",
"216 692 OFFCURVE",
"264 799 OFFCURVE",
"341 882 CURVE SMOOTH",
"496 1046 OFFCURVE",
"712 1018 OFFCURVE",
"797 934 CURVE SMOOTH",
"882 850 OFFCURVE",
"909 714 OFFCURVE",
"894 583 CURVE SMOOTH",
"891 558 LINE SMOOTH"
);
}
);
width = 1107;
}
);
note = uni018D;
unicode = 018D;
},
{
glyphname = uni018E;
lastChange = "2017-05-19 14:51:26 +0000";
layers = (
{
layerId = "4CEFE409-8F93-4A8D-8E3D-834274A593AF";
paths = (
{
closed = 1;
nodes = (
"862 786 LINE",
"203 786 LINE",
"184 682 LINE",
"845 682 LINE",
"744 105 LINE",
"-9 105 LINE",
"-28 0 LINE",
"848 0 LINE",
"1101 1456 LINE",
"220 1456 LINE",
"202 1352 LINE",
"961 1352 LINE"
);
}
);
width = 1130;
}
);
note = uni018E;
rightKerningGroup = H;
unicode = 018E;
},
{
glyphname = uni018F;
lastChange = "2017-05-19 14:51:26 +0000";
layers = (
{
layerId = "4CEFE409-8F93-4A8D-8E3D-834274A593AF";
paths = (
{
closed = 1;
nodes = (
"734 -23 OFFCURVE",
"846 10 OFFCURVE",
"942 78 CURVE SMOOTH",
"1133 214 OFFCURVE",
"1252 443 OFFCURVE",
"1288 672 CURVE SMOOTH",
"1308 805 LINE SMOOTH",
"1324 923 OFFCURVE",
"1316 1033 OFFCURVE",
"1285 1134 CURVE SMOOTH",
"1221 1337 OFFCURVE",
"1062 1472 OFFCURVE",
"805 1475 CURVE SMOOTH",
"646 1478 OFFCURVE",
"481 1443 OFFCURVE",
"353 1344 CURVE",
"381 1250 LINE",
"657 1414 OFFCURVE",
"934 1393 OFFCURVE",
"1056 1286 CURVE SMOOTH",
"1178 1178 OFFCURVE",
"1213 997 OFFCURVE",
"1184 806 CURVE",
"1171 738 LINE",
"143 738 LINE",
"124 615 LINE SMOOTH",
"109 501 OFFCURVE",
"116 396 OFFCURVE",
"147 301 CURVE SMOOTH",
"207 109 OFFCURVE",
"362 -16 OFFCURVE",
"607 -20 CURVE SMOOTH"
);
},
{
closed = 1;
nodes = (
"324 91 OFFCURVE",
"201 316 OFFCURVE",
"240 583 CURVE SMOOTH",
"250 638 LINE",
"1161 638 LINE",
"1140 548 OFFCURVE",
"1106 460 OFFCURVE",
"1060 375 CURVE SMOOTH",
"968 203 OFFCURVE",
"823 80 OFFCURVE",
"612 84 CURVE SMOOTH"
);
}
);
width = 1391;
}
);
note = uni018F;
rightKerningGroup = D;
unicode = 018F;
},
{
glyphname = uni0190;
lastChange = "2017-05-19 14:51:26 +0000";
layers = (
{
layerId = "4CEFE409-8F93-4A8D-8E3D-834274A593AF";
paths = (
{
closed = 1;
nodes = (
"448 802 OFFCURVE",
"298 870 OFFCURVE",
"321 1070 CURVE SMOOTH",
"345 1285 OFFCURVE",
"543 1377 OFFCURVE",
"740 1372 CURVE SMOOTH",
"917 1368 OFFCURVE",
"1054 1260 OFFCURVE",
"1038 1075 CURVE",
"1160 1075 LINE",
"1170 1200 OFFCURVE",
"1133 1297 OFFCURVE",
"1048 1367 CURVE SMOOTH",
"879 1507 OFFCURVE",
"655 1493 OFFCURVE",
"493 1436 CURVE SMOOTH",
"331 1379 OFFCURVE",
"213 1256 OFFCURVE",
"198 1064 CURVE SMOOTH",
"187 921 OFFCURVE",
"258 806 OFFCURVE",
"389 749 CURVE",
"209 694 OFFCURVE",
"74 584 OFFCURVE",
"58 388 CURVE SMOOTH",
"34 108 OFFCURVE",
"257 -17 OFFCURVE",
"509 -21 CURVE SMOOTH",
"778 -26 OFFCURVE",
"1026 124 OFFCURVE",
"1063 404 CURVE",
"942 403 LINE",
"903 196 OFFCURVE",
"719 78 OFFCURVE",
"514 82 CURVE SMOOTH",
"325 85 OFFCURVE",
"157 172 OFFCURVE",
"180 384 CURVE SMOOTH",
"205 623 OFFCURVE",
"412 691 OFFCURVE",
"624 691 CURVE SMOOTH",
"787 690 LINE",
"806 796 LINE",
"625 797 LINE SMOOTH"
);
}
);
width = 1240;
}
);
note = uni0190;
unicode = 0190;
},
{
glyphname = uni0191;
lastChange = "2017-05-19 14:51:26 +0000";
layers = (
{
layerId = "4CEFE409-8F93-4A8D-8E3D-834274A593AF";
paths = (
{
closed = 1;
nodes = (
"356 1456 LINE",
"92 -90 LINE SMOOTH",
"75 -213 OFFCURVE",
"13 -336 OFFCURVE",
"-128 -333 CURVE SMOOTH",
"-156 -332 OFFCURVE",
"-189 -326 OFFCURVE",
"-226 -315 CURVE",
"-252 -418 LINE",
"-207 -432 OFFCURVE",
"-168 -439 OFFCURVE",
"-136 -439 CURVE SMOOTH",
"76 -443 OFFCURVE",
"188 -285 OFFCURVE",
"215 -89 CURVE SMOOTH",
"345 680 LINE",
"1002 680 LINE",
"1021 786 LINE",
"363 786 LINE",
"461 1351 LINE",
"1215 1351 LINE",
"1234 1456 LINE"
);
}
);
width = 1148;
}
);
note = uni0191;
unicode = 0191;
},
{
glyphname = florin;
lastChange = "2017-05-19 14:51:26 +0000";
layers = (
{
layerId = "4CEFE409-8F93-4A8D-8E3D-834274A593AF";
paths = (
{
closed = 1;
nodes = (
"440 1218 LINE SMOOTH",
"459 1349 OFFCURVE",
"532 1456 OFFCURVE",
"676 1456 CURVE SMOOTH",
"709 1456 OFFCURVE",
"744 1451 OFFCURVE",
"781 1441 CURVE",
"804 1540 LINE",
"747 1553 OFFCURVE",
"702 1560 OFFCURVE",
"667 1560 CURVE SMOOTH",
"459 1561 OFFCURVE",
"344 1412 OFFCURVE",
"320 1217 CURVE SMOOTH",
"303 1082 LINE",
"129 1082 LINE",
"114 984 LINE",
"288 984 LINE",
"123 -89 LINE SMOOTH",
"107 -212 OFFCURVE",
"47 -341 OFFCURVE",
"-94 -338 CURVE SMOOTH",
"-125 -338 OFFCURVE",
"-157 -332 OFFCURVE",
"-192 -321 CURVE",
"-216 -418 LINE",
"-173 -431 OFFCURVE",
"-134 -439 OFFCURVE",
"-100 -440 CURVE SMOOTH",
"112 -444 OFFCURVE",
"220 -284 OFFCURVE",
"243 -89 CURVE SMOOTH",
"407 984 LINE",
"644 984 LINE",
"660 1082 LINE",
"422 1082 LINE"
);
}
);
width = 651;
}
);
note = florin;
unicode = 0192;
},
{
glyphname = uni0193;
lastChange = "2017-05-19 14:51:26 +0000";
layers = (
{
layerId = "4CEFE409-8F93-4A8D-8E3D-834274A593AF";
paths = (
{
closed = 1;
nodes = (
"1317 1314 OFFCURVE",
"1373 1429 OFFCURVE",
"1520 1424 CURVE SMOOTH",
"1544 1424 OFFCURVE",
"1571 1419 OFFCURVE",
"1602 1408 CURVE",
"1620 1508 LINE",
"1576 1520 OFFCURVE",
"1537 1527 OFFCURVE",
"1502 1528 CURVE SMOOTH",
"1343 1531 OFFCURVE",
"1261 1430 OFFCURVE",
"1216 1290 CURVE",
"1178 1358 OFFCURVE",
"1123 1406 OFFCURVE",
"1050 1433 CURVE SMOOTH",
"905 1488 OFFCURVE",
"686 1511 OFFCURVE",
"504 1388 CURVE SMOOTH",
"322 1265 OFFCURVE",
"212 1053 OFFCURVE",
"176 822 CURVE SMOOTH",
"149 645 LINE SMOOTH",
"134 537 OFFCURVE",
"141 433 OFFCURVE",
"168 332 CURVE SMOOTH",
"222 130 OFFCURVE",
"365 -16 OFFCURVE",
"610 -20 CURVE SMOOTH",
"791 -23 OFFCURVE",
"1011 22 OFFCURVE",
"1130 174 CURVE",
"1216 692 LINE",
"715 692 LINE",
"697 587 LINE",
"1076 587 LINE",
"1010 211 LINE",
"958 162 OFFCURVE",
"897 129 OFFCURVE",
"826 111 CURVE SMOOTH",
"684 74 OFFCURVE",
"491 59 OFFCURVE",
"384 175 CURVE SMOOTH",
"276 291 OFFCURVE",
"249 476 OFFCURVE",
"272 644 CURVE SMOOTH",
"299 818 LINE SMOOTH",
"314 913 OFFCURVE",
"343 1003 OFFCURVE",
"386 1089 CURVE SMOOTH",
"472 1260 OFFCURVE",
"616 1378 OFFCURVE",
"824 1371 CURVE SMOOTH",
"1029 1366 OFFCURVE",
"1144 1245 OFFCURVE",
"1157 1045 CURVE",
"1275 1046 LINE",
"1296 1178 LINE SMOOTH"
);
}
);
width = 1401;
}
);
leftKerningGroup = C;
note = uni0193;
unicode = 0193;
},
{
glyphname = uni0194;
lastChange = "2017-05-19 14:51:26 +0000";
layers = (
{
layerId = "4CEFE409-8F93-4A8D-8E3D-834274A593AF";
paths = (
{
closed = 1;
nodes = (
"674 -118 OFFCURVE",
"667 -57 OFFCURVE",
"646 4 CURVE SMOOTH",
"625 65 OFFCURVE",
"609 125 OFFCURVE",
"597 183 CURVE",
"595 195 LINE",
"1343 1456 LINE",
"1203 1456 LINE",
"559 344 LINE",
"306 1456 LINE",
"176 1456 LINE",
"481 203 LINE",
"360 5 LINE SMOOTH",
"319 -62 OFFCURVE",
"297 -128 OFFCURVE",
"292 -193 CURVE SMOOTH",
"284 -304 OFFCURVE",
"345 -383 OFFCURVE",
"460 -383 CURVE SMOOTH",
"581 -383 OFFCURVE",
"660 -296 OFFCURVE",
"669 -179 CURVE SMOOTH"
);
},
{
closed = 1;
nodes = (
"421 -148 OFFCURVE",
"436 -101 OFFCURVE",
"461 -53 CURVE SMOOTH",
"524 63 LINE",
"533 24 OFFCURVE",
"543 -16 OFFCURVE",
"554 -59 CURVE SMOOTH",
"565 -102 OFFCURVE",
"567 -143 OFFCURVE",
"561 -182 CURVE SMOOTH",
"554 -230 OFFCURVE",
"529 -280 OFFCURVE",
"474 -280 CURVE SMOOTH",
"422 -281 OFFCURVE",
"414 -234 OFFCURVE",
"417 -193 CURVE SMOOTH"
);
}
);
width = 1217;
}
);
note = uni0194;
unicode = 0194;
},
{
glyphname = uni0195;
lastChange = "2017-05-19 14:51:26 +0000";
layers = (
{
layerId = "4CEFE409-8F93-4A8D-8E3D-834274A593AF";
paths = (
{
closed = 1;
nodes = (
"527 1105 OFFCURVE",
"402 1021 OFFCURVE",
"314 901 CURVE",
"431 1536 LINE",
"312 1536 LINE",
"45 0 LINE",
"164 0 LINE",
"292 745 LINE",
"364 881 OFFCURVE",
"481 1005 OFFCURVE",
"645 1001 CURVE SMOOTH",
"828 996 OFFCURVE",
"857 854 OFFCURVE",
"838 698 CURVE SMOOTH",
"804 455 LINE SMOOTH",
"787 304 OFFCURVE",
"803 150 OFFCURVE",
"892 54 CURVE SMOOTH",
"980 -42 OFFCURVE",
"1203 -48 OFFCURVE",
"1322 43 CURVE SMOOTH",
"1441 134 OFFCURVE",
"1500 291 OFFCURVE",
"1523 455 CURVE SMOOTH",
"1629 1082 LINE",
"1510 1082 LINE",
"1404 452 LINE SMOOTH",
"1389 340 OFFCURVE",
"1350 213 OFFCURVE",
"1267 136 CURVE SMOOTH",
"1183 59 OFFCURVE",
"1020 66 OFFCURVE",
"967 149 CURVE SMOOTH",
"914 232 OFFCURVE",
"912 357 OFFCURVE",
"924 452 CURVE SMOOTH",
"958 698 LINE SMOOTH",
"985 910 OFFCURVE",
"922 1096 OFFCURVE",
"682 1101 CURVE SMOOTH"
);
}
);
width = 1693;
}
);
note = uni0195;
unicode = 0195;
},
{
glyphname = uni0198;
lastChange = "2017-05-19 14:51:26 +0000";
layers = (
{
layerId = "4CEFE409-8F93-4A8D-8E3D-834274A593AF";
paths = (
{
closed = 1;
nodes = (
"614 805 LINE",
"1008 1232 LINE SMOOTH",
"1034 1262 OFFCURVE",
"1063 1292 OFFCURVE",
"1094 1321 CURVE SMOOTH",
"1157 1380 OFFCURVE",
"1254 1384 OFFCURVE",
"1338 1295 CURVE",
"1399 1377 LINE",
"1274 1506 OFFCURVE",
"1127 1501 OFFCURVE",
"1034 1416 CURVE SMOOTH",
"951 1335 LINE",
"551 898 LINE",
"305 636 LINE",
"448 1456 LINE",
"326 1456 LINE",
"73 0 LINE",
"195 0 LINE",
"274 456 LINE",
"527 715 LINE",
"972 0 LINE",
"1110 0 LINE"
);
}
);
width = 1253;
}
);
note = uni0198;
rightKerningGroup = K;
unicode = 0198;
},
{
glyphname = uni0199;
lastChange = "2017-05-19 14:51:26 +0000";
layers = (
{
layerId = "4CEFE409-8F93-4A8D-8E3D-834274A593AF";
paths = (
{
closed = 1;
nodes = (
"608 1466 OFFCURVE",
"634 1461 OFFCURVE",
"663 1451 CURVE",
"680 1539 LINE",
"642 1552 OFFCURVE",
"605 1559 OFFCURVE",
"569 1560 CURVE SMOOTH",
"373 1564 OFFCURVE",
"279 1409 OFFCURVE",
"255 1232 CURVE SMOOTH",
"46 0 LINE",
"164 0 LINE",
"235 409 LINE",
"395 543 LINE",
"725 0 LINE",
"857 0 LINE",
"485 620 LINE",
"1016 1082 LINE",
"856 1082 LINE",
"384 676 LINE",
"261 563 LINE",
"374 1232 LINE SMOOTH",
"391 1355 OFFCURVE",
"444 1470 OFFCURVE",
"585 1467 CURVE SMOOTH"
);
}
);
width = 974;
}
);
note = uni0199;
unicode = 0199;
},
{
glyphname = uni019B;
lastChange = "2017-05-19 14:51:26 +0000";
layers = (
{
layerId = "4CEFE409-8F93-4A8D-8E3D-834274A593AF";
paths = (
{
closed = 1;
nodes = (
"914 98 LINE",
"845 102 OFFCURVE",
"828 180 OFFCURVE",
"815 236 CURVE",
"623 1222 LINE",
"794 1285 LINE",
"814 1400 LINE",
"600 1320 LINE",
"575 1428 OFFCURVE",
"513 1515 OFFCURVE",
"392 1516 CURVE SMOOTH",
"371 1516 OFFCURVE",
"348 1513 OFFCURVE",
"323 1506 CURVE",
"318 1411 LINE",
"367 1414 LINE",
"446 1410 OFFCURVE",
"467 1343 OFFCURVE",
"483 1276 CURVE",
"314 1213 LINE",
"293 1098 LINE",
"507 1177 LINE",
"532 1059 LINE",
"-60 0 LINE",
"77 0 LINE",
"566 887 LINE",
"700 200 LINE",
"725 96 OFFCURVE",
"769 -10 OFFCURVE",
"893 -9 CURVE SMOOTH",
"908 -9 OFFCURVE",
"929 -6 OFFCURVE",
"954 0 CURVE",
"958 101 LINE"
);
}
);
width = 1094;
}
);
note = uni019B;
unicode = 019B;
},
{
glyphname = uni019C;
lastChange = "2017-05-19 14:51:26 +0000";
layers = (
{
layerId = "4CEFE409-8F93-4A8D-8E3D-834274A593AF";
paths = (
{
closed = 1;
nodes = (
"1802 1456 LINE",
"1683 1456 LINE",
"1491 341 LINE",
"1470 260 OFFCURVE",
"1425 196 OFFCURVE",
"1356 149 CURVE SMOOTH",
"1218 56 OFFCURVE",
"1048 66 OFFCURVE",
"997 150 CURVE SMOOTH",
"945 233 OFFCURVE",
"945 359 OFFCURVE",
"956 452 CURVE",
"1125 1456 LINE",
"1006 1456 LINE",
"831 443 LINE",
"825 380 LINE",
"810 289 OFFCURVE",
"767 216 OFFCURVE",
"694 161 CURVE SMOOTH",
"549 51 OFFCURVE",
"371 66 OFFCURVE",
"319 150 CURVE SMOOTH",
"267 233 OFFCURVE",
"267 357 OFFCURVE",
"278 452 CURVE",
"447 1456 LINE",
"329 1456 LINE",
"159 455 LINE",
"150 383 OFFCURVE",
"151 311 OFFCURVE",
"161 239 CURVE SMOOTH",
"180 94 OFFCURVE",
"255 -17 OFFCURVE",
"431 -22 CURVE SMOOTH",
"610 -27 OFFCURVE",
"743 59 OFFCURVE",
"832 211 CURVE",
"856 63 OFFCURVE",
"963 -17 OFFCURVE",
"1110 -20 CURVE SMOOTH",
"1259 -24 OFFCURVE",
"1377 32 OFFCURVE",
"1465 149 CURVE",
"1435 0 LINE",
"1550 0 LINE"
);
}
);
width = 1833;
}
);
note = uni019C;
rightKerningGroup = H;
unicode = 019C;
},
{
glyphname = uni019D;
lastChange = "2017-05-19 14:51:26 +0000";
layers = (
{
layerId = "4CEFE409-8F93-4A8D-8E3D-834274A593AF";
paths = (
{
closed = 1;
nodes = (
"1409 1456 LINE",
"1288 1456 LINE",
"1071 208 LINE",
"474 1456 LINE",
"355 1456 LINE",
"91 -90 LINE SMOOTH",
"74 -213 OFFCURVE",
"12 -336 OFFCURVE",
"-129 -333 CURVE SMOOTH",
"-157 -332 OFFCURVE",
"-190 -326 OFFCURVE",
"-227 -315 CURVE",
"-253 -418 LINE",
"-212 -431 OFFCURVE",
"-173 -438 OFFCURVE",
"-138 -439 CURVE SMOOTH",
"77 -443 OFFCURVE",
"187 -284 OFFCURVE",
"214 -88 CURVE SMOOTH",
"442 1248 LINE",
"1039 0 LINE",
"1157 0 LINE"
);
}
);
width = 1440;
}
);
note = uni019D;
rightKerningGroup = H;
unicode = 019D;
},
{
glyphname = Ohorn;
lastChange = "2017-05-19 14:51:26 +0000";
layers = (
{
layerId = "4CEFE409-8F93-4A8D-8E3D-834274A593AF";
paths = (
{
closed = 1;
nodes = (
"712 -23 OFFCURVE",
"822 7 OFFCURVE",
"913 72 CURVE SMOOTH",
"1096 200 OFFCURVE",
"1205 421 OFFCURVE",
"1241 650 CURVE SMOOTH",
"1264 799 LINE SMOOTH",
"1284 930 OFFCURVE",
"1282 1064 OFFCURVE",
"1250 1189 CURVE",
"1461 1224 OFFCURVE",
"1544 1365 OFFCURVE",
"1571 1566 CURVE",
"1465 1565 LINE",
"1438 1405 OFFCURVE",
"1380 1293 OFFCURVE",
"1205 1278 CURVE",
"1162 1343 OFFCURVE",
"1106 1392 OFFCURVE",
"1039 1425 CURVE SMOOTH",
"903 1490 OFFCURVE",
"675 1512 OFFCURVE",
"492 1384 CURVE SMOOTH",
"308 1255 OFFCURVE",
"198 1034 OFFCURVE",
"162 806 CURVE SMOOTH",
"139 650 LINE SMOOTH",
"124 544 OFFCURVE",
"129 440 OFFCURVE",
"154 338 CURVE SMOOTH",
"202 134 OFFCURVE",
"338 -15 OFFCURVE",
"583 -20 CURVE SMOOTH"
);
},
{
closed = 1;
nodes = (
"1088 456 OFFCURVE",
"1005 273 OFFCURVE",
"859 165 CURVE SMOOTH",
"713 56 OFFCURVE",
"464 63 OFFCURVE",
"361 180 CURVE SMOOTH",
"258 297 OFFCURVE",
"238 484 OFFCURVE",
"261 649 CURVE SMOOTH",
"285 808 LINE SMOOTH",
"313 993 OFFCURVE",
"398 1181 OFFCURVE",
"545 1291 CURVE SMOOTH",
"692 1401 OFFCURVE",
"940 1393 OFFCURVE",
"1043 1277 CURVE SMOOTH",
"1146 1161 OFFCURVE",
"1167 977 OFFCURVE",
"1144 809 CURVE SMOOTH",
"1119 644 LINE SMOOTH"
);
}
);
width = 1386;
}
);
leftKerningGroup = C;
note = Ohorn;
unicode = 01A0;
},
{
glyphname = ohorn;
lastChange = "2017-05-19 14:51:26 +0000";
layers = (
{
layerId = "4CEFE409-8F93-4A8D-8E3D-834274A593AF";
paths = (
{
closed = 1;
nodes = (
"575 -23 OFFCURVE",
"676 9 OFFCURVE",
"763 74 CURVE SMOOTH",
"936 204 OFFCURVE",
"1034 443 OFFCURVE",
"1021 720 CURVE SMOOTH",
"1018 773 OFFCURVE",
"1008 826 OFFCURVE",
"992 878 CURVE",
"1167 914 OFFCURVE",
"1228 1030 OFFCURVE",
"1251 1198 CURVE",
"1152 1197 LINE",
"1129 1064 OFFCURVE",
"1090 974 OFFCURVE",
"945 957 CURVE",
"906 1005 OFFCURVE",
"859 1041 OFFCURVE",
"804 1065 CURVE SMOOTH",
"695 1113 OFFCURVE",
"513 1132 OFFCURVE",
"357 1029 CURVE SMOOTH",
"200 926 OFFCURVE",
"101 747 OFFCURVE",
"77 555 CURVE SMOOTH",
"73 522 LINE SMOOTH",
"64 433 OFFCURVE",
"71 348 OFFCURVE",
"95 266 CURVE SMOOTH",
"142 102 OFFCURVE",
"260 -16 OFFCURVE",
"460 -20 CURVE SMOOTH"
);
},
{
closed = 1;
nodes = (
"211 667 OFFCURVE",
"259 786 OFFCURVE",
"338 874 CURVE SMOOTH",
"494 1049 OFFCURVE",
"718 1020 OFFCURVE",
"803 928 CURVE SMOOTH",
"887 836 OFFCURVE",
"912 690 OFFCURVE",
"896 559 CURVE SMOOTH",
"877 410 OFFCURVE",
"828 292 OFFCURVE",
"750 206 CURVE SMOOTH",
"594 33 OFFCURVE",
"370 63 OFFCURVE",
"286 153 CURVE SMOOTH",
"201 243 OFFCURVE",
"177 386 OFFCURVE",
"192 518 CURVE SMOOTH"
);
}
);
width = 1112;
}
);
leftKerningGroup = c;
note = ohorn;
unicode = 01A1;
},
{
glyphname = uni01A2;
lastChange = "2017-05-19 14:51:26 +0000";
layers = (
{
layerId = "4CEFE409-8F93-4A8D-8E3D-834274A593AF";
paths = (
{
closed = 1;
nodes = (
"778 -24 OFFCURVE",
"995 23 OFFCURVE",
"1115 174 CURVE",
"1296 1246 LINE",
"1451 1326 LINE",
"1148 -416 LINE",
"1268 -416 LINE",
"1593 1456 LINE",
"1490 1456 LINE",
"1256 1335 LINE",
"1203 1390 OFFCURVE",
"1137 1427 OFFCURVE",
"1060 1446 CURVE SMOOTH",
"905 1485 OFFCURVE",
"690 1510 OFFCURVE",
"502 1385 CURVE SMOOTH",
"313 1260 OFFCURVE",
"196 1043 OFFCURVE",
"160 810 CURVE SMOOTH",
"136 645 LINE SMOOTH",
"121 536 OFFCURVE",
"127 432 OFFCURVE",
"154 331 CURVE SMOOTH",
"206 129 OFFCURVE",
"348 -16 OFFCURVE",
"595 -21 CURVE SMOOTH"
);
},
{
closed = 1;
nodes = (
"948 1373 OFFCURVE",
"1107 1351 OFFCURVE",
"1178 1244 CURVE",
"997 213 LINE",
"945 164 OFFCURVE",
"884 130 OFFCURVE",
"814 111 CURVE SMOOTH",
"673 74 OFFCURVE",
"477 59 OFFCURVE",
"369 174 CURVE SMOOTH",
"261 289 OFFCURVE",
"233 473 OFFCURVE",
"257 644 CURVE SMOOTH",
"281 804 LINE SMOOTH",
"296 902 OFFCURVE",
"326 995 OFFCURVE",
"373 1082 CURVE SMOOTH",
"465 1257 OFFCURVE",
"619 1377 OFFCURVE",
"831 1374 CURVE SMOOTH"
);
}
);
width = 1624;
}
);
leftKerningGroup = C;
note = uni01A2;
rightKerningGroup = H;
unicode = 01A2;
},
{
glyphname = uni01A3;
lastChange = "2017-05-19 14:51:26 +0000";
layers = (
{
layerId = "4CEFE409-8F93-4A8D-8E3D-834274A593AF";
paths = (
{
closed = 1;
nodes = (
"909 -416 LINE",
"1169 1082 LINE",
"1066 1081 LINE",
"896 987 LINE",
"759 1138 OFFCURVE",
"502 1129 OFFCURVE",
"355 1033 CURVE SMOOTH",
"208 937 OFFCURVE",
"118 769 OFFCURVE",
"89 582 CURVE SMOOTH",
"80 517 LINE SMOOTH",
"61 344 OFFCURVE",
"98 169 OFFCURVE",
"211 62 CURVE SMOOTH",
"323 -45 OFFCURVE",
"591 -71 OFFCURVE",
"776 112 CURVE",
"897 849 LINE",
"1022 922 LINE",
"790 -416 LINE"
);
},
{
closed = 1;
nodes = (
"370 84 OFFCURVE",
"312 108 OFFCURVE",
"274 154 CURVE SMOOTH",
"197 246 OFFCURVE",
"184 391 OFFCURVE",
"199 518 CURVE SMOOTH",
"204 561 LINE SMOOTH",
"223 706 OFFCURVE",
"288 853 OFFCURVE",
"401 940 CURVE SMOOTH",
"514 1027 OFFCURVE",
"697 1022 OFFCURVE",
"794 931 CURVE",
"656 145 LINE",
"588 102 OFFCURVE",
"519 81 OFFCURVE",
"449 82 CURVE SMOOTH"
);
}
);
width = 1237;
}
);
note = uni01A3;
unicode = 01A3;
},
{
glyphname = uni01A4;
lastChange = "2017-05-19 14:51:26 +0000";
layers = (
{
layerId = "4CEFE409-8F93-4A8D-8E3D-834274A593AF";
paths = (
{
closed = 1;
nodes = (
"123 1057 LINE",
"219 1064 LINE",
"215 1106 LINE",
"216 1147 LINE",
"233 1294 OFFCURVE",
"354 1349 OFFCURVE",
"487 1353 CURVE",
"253 0 LINE",
"374 0 LINE",
"478 593 LINE",
"846 592 LINE SMOOTH",
"1127 591 OFFCURVE",
"1360 732 OFFCURVE",
"1388 1028 CURVE SMOOTH",
"1413 1296 OFFCURVE",
"1237 1448 OFFCURVE",
"980 1455 CURVE SMOOTH",
"500 1457 LINE",
"500 1456 LINE",
"309 1457 OFFCURVE",
"134 1377 OFFCURVE",
"117 1168 CURVE",
"116 1113 LINE"
);
},
{
closed = 1;
nodes = (
"1170 1345 OFFCURVE",
"1289 1226 OFFCURVE",
"1266 1029 CURVE SMOOTH",
"1241 808 OFFCURVE",
"1062 698 OFFCURVE",
"851 697 CURVE SMOOTH",
"496 698 LINE",
"609 1351 LINE",
"977 1350 LINE SMOOTH"
);
}
);
width = 1404;
}
);
note = uni01A4;
rightKerningGroup = P;
unicode = 01A4;
},
{
glyphname = uni01A5;
lastChange = "2017-05-19 14:51:26 +0000";
layers = (
{
layerId = "4CEFE409-8F93-4A8D-8E3D-834274A593AF";
paths = (
{
closed = 1;
nodes = (
"601 -23 OFFCURVE",
"686 4 OFFCURVE",
"755 61 CURVE SMOOTH",
"880 164 OFFCURVE",
"957 328 OFFCURVE",
"988 554 CURVE SMOOTH",
"1005 711 OFFCURVE",
"985 895 OFFCURVE",
"888 1011 CURVE SMOOTH",
"791 1127 OFFCURVE",
"510 1164 OFFCURVE",
"317 933 CURVE",
"335 1027 LINE SMOOTH",
"359 1154 OFFCURVE",
"408 1263 OFFCURVE",
"547 1259 CURVE SMOOTH",
"568 1259 OFFCURVE",
"594 1254 OFFCURVE",
"626 1244 CURVE",
"643 1331 LINE",
"604 1344 OFFCURVE",
"568 1351 OFFCURVE",
"533 1352 CURVE SMOOTH",
"361 1355 OFFCURVE",
"268 1238 OFFCURVE",
"229 1083 CURVE",
"226 1082 LINE",
"-28 -416 LINE",
"91 -416 LINE",
"191 137 LINE",
"259 30 OFFCURVE",
"375 -18 OFFCURVE",
"500 -21 CURVE SMOOTH"
);
},
{
closed = 1;
nodes = (
"713 997 OFFCURVE",
"770 971 OFFCURVE",
"805 922 CURVE SMOOTH",
"876 823 OFFCURVE",
"881 673 OFFCURVE",
"868 553 CURVE SMOOTH",
"843 372 OFFCURVE",
"783 231 OFFCURVE",
"678 144 CURVE SMOOTH",
"573 56 OFFCURVE",
"299 25 OFFCURVE",
"212 269 CURVE",
"300 792 LINE",
"373 917 OFFCURVE",
"484 1003 OFFCURVE",
"635 999 CURVE SMOOTH"
);
}
);
width = 1101;
}
);
note = uni01A5;
unicode = 01A5;
},
{
glyphname = uni01A6;
lastChange = "2017-05-19 14:51:26 +0000";
layers = (
{
layerId = "4CEFE409-8F93-4A8D-8E3D-834274A593AF";
paths = (
{
closed = 1;
nodes = (
"712 607 LINE",
"1089 -355 LINE",
"1220 -355 LINE",
"1221 -341 LINE",
"830 630 LINE",
"1023 686 OFFCURVE",
"1169 828 OFFCURVE",
"1189 1035 CURVE SMOOTH",
"1214 1304 OFFCURVE",
"1032 1448 OFFCURVE",
"776 1455 CURVE SMOOTH",
"446 1456 LINE",
"462 1547 LINE",
"340 1547 LINE",
"71 0 LINE",
"193 0 LINE",
"299 607 LINE"
);
},
{
closed = 1;
nodes = (
"967 1345 OFFCURVE",
"1091 1235 OFFCURVE",
"1068 1036 CURVE SMOOTH",
"1044 832 OFFCURVE",
"873 711 OFFCURVE",
"676 710 CURVE SMOOTH",
"317 711 LINE",
"428 1351 LINE",
"776 1350 LINE SMOOTH"
);
}
);
width = 1333;
}
);
note = uni01A6;
unicode = 01A6;
},
{
glyphname = uni01A7;
lastChange = "2017-05-19 14:51:26 +0000";
layers = (
{
layerId = "4CEFE409-8F93-4A8D-8E3D-834274A593AF";
paths = (
{
closed = 1;
nodes = (
"170 453 OFFCURVE",
"216 521 OFFCURVE",
"327 585 CURVE SMOOTH",
"382 616 OFFCURVE",
"478 651 OFFCURVE",
"614 688 CURVE SMOOTH",
"885 762 OFFCURVE",
"1011 840 OFFCURVE",
"1076 936 CURVE SMOOTH",
"1140 1031 OFFCURVE",
"1162 1203 OFFCURVE",
"1081 1312 CURVE SMOOTH",
"1000 1420 OFFCURVE",
"856 1474 OFFCURVE",
"712 1477 CURVE SMOOTH",
"443 1481 OFFCURVE",
"202 1316 OFFCURVE",
"165 1041 CURVE",
"284 1042 LINE",
"303 1147 OFFCURVE",
"352 1229 OFFCURVE",
"430 1288 CURVE SMOOTH",
"586 1404 OFFCURVE",
"790 1391 OFFCURVE",
"925 1309 CURVE SMOOTH",
"1060 1227 OFFCURVE",
"1023 1027 OFFCURVE",
"926 946 CURVE SMOOTH",
"839 873 OFFCURVE",
"730 834 OFFCURVE",
"575 794 CURVE SMOOTH",
"419 753 OFFCURVE",
"244 694 OFFCURVE",
"131 579 CURVE SMOOTH",
"18 464 OFFCURVE",
"4 252 OFFCURVE",
"87 144 CURVE SMOOTH",
"170 35 OFFCURVE",
"318 -17 OFFCURVE",
"466 -20 CURVE SMOOTH",
"746 -25 OFFCURVE",
"1017 120 OFFCURVE",
"1058 416 CURVE",
"938 415 LINE",
"894 186 OFFCURVE",
"695 79 OFFCURVE",
"471 84 CURVE SMOOTH",
"311 88 OFFCURVE",
"139 163 OFFCURVE",
"159 350 CURVE SMOOTH"
);
}
);
width = 1177;
}
);
note = uni01A7;
unicode = 01A7;
},
{
glyphname = uni01A8;
lastChange = "2017-05-19 14:51:26 +0000";
layers = (
{
layerId = "4CEFE409-8F93-4A8D-8E3D-834274A593AF";
paths = (
{
closed = 1;
nodes = (
"186 388 OFFCURVE",
"282 457 OFFCURVE",
"506 506 CURVE SMOOTH",
"618 531 OFFCURVE",
"701 557 OFFCURVE",
"754 586 CURVE SMOOTH",
"861 643 OFFCURVE",
"904 711 OFFCURVE",
"911 816 CURVE SMOOTH",
"922 1005 OFFCURVE",
"746 1099 OFFCURVE",
"578 1103 CURVE SMOOTH",
"370 1107 OFFCURVE",
"177 998 OFFCURVE",
"148 779 CURVE",
"267 780 LINE",
"296 925 OFFCURVE",
"429 1003 OFFCURVE",
"573 1002 CURVE SMOOTH",
"682 999 OFFCURVE",
"805 948 OFFCURVE",
"793 819 CURVE SMOOTH",
"786 751 OFFCURVE",
"757 708 OFFCURVE",
"682 668 CURVE SMOOTH",
"645 647 OFFCURVE",
"572 624 OFFCURVE",
"465 599 CURVE SMOOTH",
"357 574 OFFCURVE",
"276 546 OFFCURVE",
"221 516 CURVE SMOOTH",
"111 455 OFFCURVE",
"62 383 OFFCURVE",
"57 274 CURVE SMOOTH",
"44 74 OFFCURVE",
"227 -17 OFFCURVE",
"404 -21 CURVE SMOOTH",
"611 -24 OFFCURVE",
"828 80 OFFCURVE",
"857 304 CURVE",
"741 303 LINE",
"698 147 OFFCURVE",
"564 77 OFFCURVE",
"408 81 CURVE SMOOTH",
"297 84 OFFCURVE",
"161 135 OFFCURVE",
"174 268 CURVE SMOOTH"
);
}
);
width = 1008;
}
);
note = uni01A8;
unicode = 01A8;
},
{
glyphname = uni01AA;
lastChange = "2017-05-19 14:51:26 +0000";
layers = (
{
layerId = "4CEFE409-8F93-4A8D-8E3D-834274A593AF";
paths = (
{
closed = 1;
nodes = (
"754 -312 OFFCURVE",
"727 -316 OFFCURVE",
"703 -316 CURVE SMOOTH",
"570 -315 OFFCURVE",
"557 -184 OFFCURVE",
"569 -77 CURVE",
"788 1236 LINE",
"797 1324 OFFCURVE",
"775 1402 OFFCURVE",
"723 1469 CURVE SMOOTH",
"618 1603 OFFCURVE",
"397 1610 OFFCURVE",
"256 1473 CURVE SMOOTH",
"115 1336 OFFCURVE",
"106 1130 OFFCURVE",
"208 1002 CURVE SMOOTH",
"310 873 OFFCURVE",
"494 875 OFFCURVE",
"634 979 CURVE",
"450 -76 LINE",
"433 -241 OFFCURVE",
"479 -419 OFFCURVE",
"674 -422 CURVE SMOOTH",
"705 -423 OFFCURVE",
"741 -417 OFFCURVE",
"780 -405 CURVE",
"783 -305 LINE"
);
},
{
closed = 1;
nodes = (
"308 1015 OFFCURVE",
"242 1111 OFFCURVE",
"253 1227 CURVE SMOOTH",
"265 1356 OFFCURVE",
"363 1466 OFFCURVE",
"498 1463 CURVE SMOOTH",
"619 1460 OFFCURVE",
"687 1362 OFFCURVE",
"678 1247 CURVE SMOOTH",
"666 1116 OFFCURVE",
"564 1009 OFFCURVE",
"431 1012 CURVE SMOOTH"
);
}
);
width = 925;
}
);
note = uni01AA;
unicode = 01AA;
},
{
glyphname = uni01AB;
lastChange = "2017-05-19 14:51:26 +0000";
layers = (
{
layerId = "4CEFE409-8F93-4A8D-8E3D-834274A593AF";
paths = (
{
closed = 1;
nodes = (
"365 -409 OFFCURVE",
"436 -252 OFFCURVE",
"457 -76 CURVE SMOOTH",
"466 -4 LINE",
"473 96 LINE",
"427 90 OFFCURVE",
"395 87 OFFCURVE",
"378 87 CURVE SMOOTH",
"277 90 OFFCURVE",
"272 180 OFFCURVE",
"281 263 CURVE",
"401 984 LINE",
"617 984 LINE",
"634 1082 LINE",
"418 1082 LINE",
"467 1360 LINE",
"346 1360 LINE",
"297 1082 LINE",
"106 1082 LINE",
"88 984 LINE",
"281 984 LINE",
"162 264 LINE",
"149 120 OFFCURVE",
"184 -13 OFFCURVE",
"347 -18 CURVE SMOOTH",
"376 -18 LINE",
"366 -78 LINE SMOOTH",
"346 -201 OFFCURVE",
"295 -315 OFFCURVE",
"155 -312 CURVE SMOOTH",
"132 -311 OFFCURVE",
"106 -306 OFFCURVE",
"76 -296 CURVE",
"58 -384 LINE",
"103 -397 OFFCURVE",
"141 -404 OFFCURVE",
"170 -405 CURVE SMOOTH"
);
}
);
width = 639;
}
);
note = uni01AB;
unicode = 01AB;
},
{
glyphname = uni01AC;
lastChange = "2017-05-19 14:51:26 +0000";
layers = (
{
layerId = "4CEFE409-8F93-4A8D-8E3D-834274A593AF";
paths = (
{
closed = 1;
nodes = (
"123 1057 LINE",
"219 1064 LINE",
"215 1106 LINE",
"216 1147 LINE",
"233 1295 OFFCURVE",
"361 1353 OFFCURVE",
"497 1353 CURVE SMOOTH",
"687 1351 LINE",
"452 0 LINE",
"574 0 LINE",
"809 1351 LINE",
"1292 1351 LINE",
"1310 1456 LINE",
"501 1457 LINE SMOOTH",
"310 1457 OFFCURVE",
"134 1376 OFFCURVE",
"117 1168 CURVE",
"116 1113 LINE"
);
}
);
width = 1212;
}
);
note = uni01AC;
unicode = 01AC;
},
{
glyphname = uni01AD;
lastChange = "2017-05-19 14:51:26 +0000";
layers = (
{
layerId = "4CEFE409-8F93-4A8D-8E3D-834274A593AF";
paths = (
{
closed = 1;
nodes = (
"681 1481 OFFCURVE",
"707 1476 OFFCURVE",
"736 1466 CURVE",
"751 1557 LINE",
"706 1568 OFFCURVE",
"670 1575 OFFCURVE",
"641 1576 CURVE SMOOTH",
"449 1579 OFFCURVE",
"355 1429 OFFCURVE",
"330 1253 CURVE SMOOTH",
"305 1082 LINE",
"113 1082 LINE",
"95 984 LINE",
"288 984 LINE",
"171 277 LINE",
"164 205 OFFCURVE",
"172 138 OFFCURVE",
"196 77 CURVE SMOOTH",
"244 -46 OFFCURVE",
"405 -25 OFFCURVE",
"477 -4 CURVE",
"482 96 LINE",
"434 90 OFFCURVE",
"402 87 OFFCURVE",
"387 87 CURVE",
"283 91 OFFCURVE",
"281 195 OFFCURVE",
"290 276 CURVE",
"408 984 LINE",
"625 984 LINE",
"642 1082 LINE",
"425 1082 LINE",
"449 1246 LINE SMOOTH",
"468 1373 OFFCURVE",
"518 1485 OFFCURVE",
"658 1482 CURVE SMOOTH"
);
}
);
width = 644;
}
);
note = uni01AD;
unicode = 01AD;
},
{
glyphname = uni01AE;
lastChange = "2017-05-19 14:51:26 +0000";
layers = (
{
layerId = "4CEFE409-8F93-4A8D-8E3D-834274A593AF";
paths = (
{
closed = 1;
nodes = (
"418 -89 LINE",
"401 -264 OFFCURVE",
"464 -431 OFFCURVE",
"661 -434 CURVE SMOOTH",
"692 -435 OFFCURVE",
"728 -429 OFFCURVE",
"767 -418 CURVE",
"764 -315 LINE",
"724 -325 OFFCURVE",
"692 -330 OFFCURVE",
"667 -330 CURVE SMOOTH",
"538 -329 OFFCURVE",
"527 -190 OFFCURVE",
"539 -90 CURVE",
"785 1351 LINE",
"1268 1351 LINE",
"1287 1456 LINE",
"198 1456 LINE",
"179 1351 LINE",
"664 1351 LINE"
);
}
);
width = 1186;
}
);
leftKerningGroup = T;
note = uni01AE;
rightKerningGroup = T;
unicode = 01AE;
},
{
glyphname = Uhorn;
lastChange = "2017-05-19 14:51:26 +0000";
layers = (
{
layerId = "4CEFE409-8F93-4A8D-8E3D-834274A593AF";
paths = (
{
closed = 1;
nodes = (
"1499 1166 OFFCURVE",
"1603 1310 OFFCURVE",
"1635 1545 CURVE",
"1531 1544 LINE",
"1504 1377 OFFCURVE",
"1448 1260 OFFCURVE",
"1265 1243 CURVE",
"1301 1456 LINE",
"1180 1456 LINE",
"1009 458 LINE SMOOTH",
"969 231 OFFCURVE",
"801 76 OFFCURVE",
"565 83 CURVE SMOOTH",
"338 90 OFFCURVE",
"234 253 OFFCURVE",
"259 469 CURVE",
"427 1456 LINE",
"306 1456 LINE",
"137 470 LINE",
"102 183 OFFCURVE",
"268 -15 OFFCURVE",
"557 -20 CURVE SMOOTH",
"862 -27 OFFCURVE",
"1089 169 OFFCURVE",
"1133 470 CURVE SMOOTH",
"1252 1151 LINE"
);
}
);
width = 1353;
}
);
note = Uhorn;
unicode = 01AF;
},
{
glyphname = uhorn;
lastChange = "2017-05-19 14:51:26 +0000";
layers = (
{
layerId = "4CEFE409-8F93-4A8D-8E3D-834274A593AF";
paths = (
{
closed = 1;
nodes = (
"991 865 LINE",
"1195 877 OFFCURVE",
"1278 984 OFFCURVE",
"1305 1179 CURVE",
"1209 1179 LINE",
"1186 1043 OFFCURVE",
"1150 961 OFFCURVE",
"1001 948 CURVE",
"1026 1082 LINE",
"906 1082 LINE",
"771 296 LINE",
"724 151 OFFCURVE",
"560 79 OFFCURVE",
"420 84 CURVE SMOOTH",
"248 89 OFFCURVE",
"217 242 OFFCURVE",
"233 387 CURVE",
"348 1082 LINE",
"229 1082 LINE",
"113 390 LINE",
"102 283 OFFCURVE",
"116 189 OFFCURVE",
"157 107 CURVE SMOOTH",
"237 -57 OFFCURVE",
"579 -80 OFFCURVE",
"752 137 CURVE",
"723 0 LINE",
"838 0 LINE"
);
}
);
width = 1164;
}
);
leftKerningGroup = u;
note = uhorn;
unicode = 01B0;
},
{
glyphname = uni01B1;
lastChange = "2017-05-19 14:51:26 +0000";
layers = (
{
layerId = "4CEFE409-8F93-4A8D-8E3D-834274A593AF";
paths = (
{
closed = 1;
nodes = (
"1090 854 OFFCURVE",
"1087 777 OFFCURVE",
"1059 604 CURVE SMOOTH",
"1031 431 OFFCURVE",
"952 259 OFFCURVE",
"816 156 CURVE SMOOTH",
"680 53 OFFCURVE",
"452 60 OFFCURVE",
"357 171 CURVE SMOOTH",
"262 282 OFFCURVE",
"242 456 OFFCURVE",
"262 608 CURVE SMOOTH",
"278 719 LINE SMOOTH",
"317 986 OFFCURVE",
"441 1246 OFFCURVE",
"709 1337 CURVE",
"729 1456 LINE",
"279 1456 LINE",
"260 1351 LINE",
"540 1353 LINE",
"320 1213 OFFCURVE",
"196 979 OFFCURVE",
"156 726 CURVE SMOOTH",
"140 611 LINE SMOOTH",
"113 411 OFFCURVE",
"158 206 OFFCURVE",
"290 79 CURVE SMOOTH",
"422 -48 OFFCURVE",
"698 -54 OFFCURVE",
"872 67 CURVE SMOOTH",
"1046 188 OFFCURVE",
"1152 396 OFFCURVE",
"1185 611 CURVE SMOOTH",
"1201 726 LINE SMOOTH",
"1232 949 OFFCURVE",
"1192 1178 OFFCURVE",
"1037 1349 CURVE",
"1319 1351 LINE",
"1338 1456 LINE",
"886 1456 LINE",
"867 1336 LINE",
"1022 1272 OFFCURVE",
"1079 1121 OFFCURVE",
"1086 957 CURVE SMOOTH"
);
}
);
width = 1320;
}
);
note = uni01B1;
unicode = 01B1;
},
{
glyphname = uni01B2;
lastChange = "2017-05-19 14:51:26 +0000";
layers = (
{
layerId = "4CEFE409-8F93-4A8D-8E3D-834274A593AF";
paths = (
{
closed = 1;
nodes = (
"867 -28 OFFCURVE",
"1091 165 OFFCURVE",
"1139 457 CURVE SMOOTH",
"1248 1128 LINE",
"1265 1292 OFFCURVE",
"1222 1471 OFFCURVE",
"1027 1474 CURVE SMOOTH",
"996 1475 OFFCURVE",
"960 1469 OFFCURVE",
"921 1457 CURVE",
"918 1357 LINE",
"955 1364 OFFCURVE",
"982 1368 OFFCURVE",
"1001 1368 CURVE SMOOTH",
"1136 1365 OFFCURVE",
"1139 1236 OFFCURVE",
"1126 1129 CURVE",
"1017 458 LINE SMOOTH",
"977 233 OFFCURVE",
"810 76 OFFCURVE",
"574 83 CURVE SMOOTH",
"347 90 OFFCURVE",
"240 253 OFFCURVE",
"267 469 CURVE",
"435 1456 LINE",
"313 1456 LINE",
"145 470 LINE",
"110 183 OFFCURVE",
"277 -16 OFFCURVE",
"566 -21 CURVE SMOOTH"
);
}
);
width = 1325;
}
);
note = uni01B2;
unicode = 01B2;
},
{
glyphname = uni01B3;
lastChange = "2017-05-19 14:51:26 +0000";
layers = (
{
layerId = "4CEFE409-8F93-4A8D-8E3D-834274A593AF";
paths = (
{
closed = 1;
nodes = (
"1087 1142 OFFCURVE",
"1109 1177 OFFCURVE",
"1134 1218 CURVE SMOOTH",
"1159 1259 OFFCURVE",
"1187 1294 OFFCURVE",
"1218 1323 CURVE SMOOTH",
"1280 1381 OFFCURVE",
"1375 1384 OFFCURVE",
"1459 1295 CURVE",
"1520 1377 LINE",
"1457 1441 OFFCURVE",
"1390 1474 OFFCURVE",
"1319 1477 CURVE SMOOTH",
"1200 1481 OFFCURVE",
"1118 1403 OFFCURVE",
"1053 1306 CURVE SMOOTH",
"963 1170 LINE",
"599 656 LINE",
"311 1456 LINE",
"174 1456 LINE",
"525 554 LINE",
"428 0 LINE",
"550 0 LINE",
"644 540 LINE",
"1066 1114 LINE SMOOTH"
);
}
);
width = 1238;
}
);
note = uni01B3;
unicode = 01B3;
},
{
glyphname = uni01B4;
lastChange = "2017-05-19 14:51:26 +0000";
layers = (
{
layerId = "4CEFE409-8F93-4A8D-8E3D-834274A593AF";
paths = (
{
closed = 1;
nodes = (
"986 1072 OFFCURVE",
"1013 1119 OFFCURVE",
"1046 1168 CURVE SMOOTH",
"1111 1267 OFFCURVE",
"1221 1257 OFFCURVE",
"1317 1184 CURVE",
"1363 1260 LINE",
"1299 1312 OFFCURVE",
"1235 1338 OFFCURVE",
"1170 1338 CURVE SMOOTH",
"999 1342 OFFCURVE",
"917 1181 OFFCURVE",
"853 1048 CURVE SMOOTH",
"405 167 LINE",
"391 274 LINE",
"241 1082 LINE",
"117 1082 LINE",
"327 16 LINE",
"249 -134 LINE SMOOTH",
"194 -245 OFFCURVE",
"118 -338 OFFCURVE",
"-15 -334 CURVE",
"-76 -326 LINE",
"-88 -426 LINE",
"-46 -435 OFFCURVE",
"-14 -440 OFFCURVE",
"7 -441 CURVE SMOOTH",
"179 -445 OFFCURVE",
"276 -315 OFFCURVE",
"344 -175 CURVE SMOOTH",
"965 1027 LINE"
);
}
);
width = 1180;
}
);
note = uni01B4;
unicode = 01B4;
},
{
glyphname = uni01B5;
lastChange = "2017-05-19 14:51:26 +0000";
layers = (
{
layerId = "4CEFE409-8F93-4A8D-8E3D-834274A593AF";
paths = (
{
closed = 1;
nodes = (
"586 797 LINE",
"185 797 LINE",
"167 696 LINE",
"501 696 LINE",
"-1 99 LINE",
"-18 0 LINE",
"1001 0 LINE",
"1020 104 LINE",
"152 104 LINE",
"648 696 LINE",
"1031 696 LINE",
"1049 797 LINE",
"732 797 LINE",
"1207 1362 LINE",
"1223 1456 LINE",
"261 1456 LINE",
"242 1352 LINE",
"1052 1352 LINE"
);
}
);
width = 1188;
}
);
note = uni01B5;
unicode = 01B5;
},
{
glyphname = uni01B6;
lastChange = "2017-05-19 14:51:26 +0000";
layers = (
{
layerId = "4CEFE409-8F93-4A8D-8E3D-834274A593AF";
paths = (
{
closed = 1;
nodes = (
"450 602 LINE",
"159 602 LINE",
"140 500 LINE",
"360 500 LINE",
"0 95 LINE",
"-16 0 LINE",
"812 0 LINE",
"830 102 LINE",
"152 102 LINE",
"506 500 LINE",
"797 500 LINE",
"815 602 LINE",
"597 602 LINE",
"940 988 LINE",
"956 1082 LINE",
"191 1082 LINE",
"173 979 LINE",
"785 979 LINE"
);
}
);
width = 976;
}
);
leftKerningGroup = z;
note = uni01B6;
rightKerningGroup = z;
unicode = 01B6;
},
{
glyphname = uni01B7;
lastChange = "2017-05-19 14:51:26 +0000";
layers = (
{
layerId = "4CEFE409-8F93-4A8D-8E3D-834274A593AF";
paths = (
{
closed = 1;
nodes = (
"400 748 LINE",
"383 651 LINE",
"613 650 LINE SMOOTH",
"890 642 OFFCURVE",
"965 420 OFFCURVE",
"936 172 CURVE SMOOTH",
"904 -105 OFFCURVE",
"737 -331 OFFCURVE",
"440 -324 CURVE SMOOTH",
"205 -319 OFFCURVE",
"109 -176 OFFCURVE",
"108 47 CURVE",
"-12 48 LINE",
"-15 -235 OFFCURVE",
"146 -419 OFFCURVE",
"434 -426 CURVE SMOOTH",
"793 -434 OFFCURVE",
"1022 -172 OFFCURVE",
"1059 171 CURVE SMOOTH",
"1094 490 OFFCURVE",
"956 746 OFFCURVE",
"612 751 CURVE SMOOTH",
"549 750 LINE",
"1190 1364 LINE",
"1207 1456 LINE",
"246 1456 LINE",
"228 1352 LINE",
"1029 1352 LINE"
);
}
);
width = 1257;
}
);
note = uni01B7;
unicode = 01B7;
},
{
glyphname = uni01B8;
lastChange = "2017-05-19 14:51:26 +0000";
layers = (
{
layerId = "4CEFE409-8F93-4A8D-8E3D-834274A593AF";
paths = (
{
closed = 1;
nodes = (
"1290 1352 LINE",
"1309 1456 LINE",
"348 1456 LINE",
"333 1375 LINE",
"759 754 LINE",
"678 753 LINE SMOOTH",
"319 748 OFFCURVE",
"88 512 OFFCURVE",
"48 156 CURVE SMOOTH",
"12 -161 OFFCURVE",
"145 -421 OFFCURVE",
"490 -426 CURVE SMOOTH",
"795 -431 OFFCURVE",
"1009 -246 OFFCURVE",
"1076 47 CURVE",
"957 46 LINE",
"923 -70 OFFCURVE",
"869 -161 OFFCURVE",
"795 -228 CURVE SMOOTH",
"647 -362 OFFCURVE",
"380 -344 OFFCURVE",
"280 -252 CURVE SMOOTH",
"179 -160 OFFCURVE",
"151 -8 OFFCURVE",
"170 156 CURVE SMOOTH",
"203 444 OFFCURVE",
"378 653 OFFCURVE",
"679 652 CURVE SMOOTH",
"892 651 LINE",
"908 737 LINE",
"480 1352 LINE"
);
}
);
width = 1257;
}
);
note = uni01B8;
unicode = 01B8;
},
{
glyphname = uni01B9;
lastChange = "2017-05-19 14:51:26 +0000";
layers = (
{
layerId = "4CEFE409-8F93-4A8D-8E3D-834274A593AF";
paths = (
{
closed = 1;
nodes = (
"1078 1082 LINE",
"232 1082 LINE",
"215 996 LINE",
"547 463 LINE",
"271 448 OFFCURVE",
"53 305 OFFCURVE",
"28 14 CURVE SMOOTH",
"7 -234 OFFCURVE",
"177 -390 OFFCURVE",
"417 -395 CURVE SMOOTH",
"681 -402 OFFCURVE",
"888 -232 OFFCURVE",
"924 29 CURVE",
"806 28 LINE",
"770 -161 OFFCURVE",
"623 -299 OFFCURVE",
"424 -295 CURVE SMOOTH",
"241 -290 OFFCURVE",
"130 -175 OFFCURVE",
"149 9 CURVE SMOOTH",
"173 248 OFFCURVE",
"340 368 OFFCURVE",
"572 367 CURVE SMOOTH",
"670 366 LINE",
"687 462 LINE",
"354 979 LINE",
"1059 979 LINE"
);
}
);
width = 1126;
}
);
note = uni01B9;
unicode = 01B9;
},
{
glyphname = uni01BA;
lastChange = "2017-05-19 14:51:26 +0000";
layers = (
{
layerId = "4CEFE409-8F93-4A8D-8E3D-834274A593AF";
paths = (
{
closed = 1;
nodes = (
"678 289 OFFCURVE",
"605 235 OFFCURVE",
"378 185 CURVE SMOOTH",
"264 160 OFFCURVE",
"179 132 OFFCURVE",
"123 102 CURVE SMOOTH",
"10 42 OFFCURVE",
"-41 -30 OFFCURVE",
"-48 -141 CURVE SMOOTH",
"-60 -342 OFFCURVE",
"124 -434 OFFCURVE",
"300 -437 CURVE SMOOTH",
"508 -442 OFFCURVE",
"725 -336 OFFCURVE",
"754 -113 CURVE",
"638 -114 LINE",
"595 -269 OFFCURVE",
"461 -340 OFFCURVE",
"305 -336 CURVE SMOOTH",
"194 -333 OFFCURVE",
"57 -282 OFFCURVE",
"72 -149 CURVE SMOOTH",
"89 23 OFFCURVE",
"281 60 OFFCURVE",
"396 86 CURVE SMOOTH",
"453 99 OFFCURVE",
"513 115 OFFCURVE",
"576 136 CURVE SMOOTH",
"701 177 OFFCURVE",
"800 253 OFFCURVE",
"809 400 CURVE SMOOTH",
"818 559 OFFCURVE",
"686 647 OFFCURVE",
"543 667 CURVE",
"958 996 LINE",
"972 1082 LINE",
"188 1082 LINE",
"170 980 LINE",
"775 980 LINE",
"346 655 LINE",
"331 570 LINE",
"477 569 LINE SMOOTH",
"578 566 OFFCURVE",
"703 530 OFFCURVE",
"690 402 CURVE SMOOTH"
);
}
);
width = 1014;
}
);
note = uni01BA;
unicode = 01BA;
},
{
glyphname = uni01BB;
lastChange = "2017-05-19 14:51:26 +0000";
layers = (
{
layerId = "4CEFE409-8F93-4A8D-8E3D-834274A593AF";
paths = (
{
closed = 1;
nodes = (
"669 560 LINE",
"774 665 LINE",
"1029 665 LINE",
"1048 767 LINE",
"858 766 LINE",
"938 859 OFFCURVE",
"1016 967 OFFCURVE",
"1029 1094 CURVE SMOOTH",
"1054 1326 OFFCURVE",
"902 1472 OFFCURVE",
"675 1477 CURVE SMOOTH",
"410 1482 OFFCURVE",
"212 1292 OFFCURVE",
"179 1036 CURVE",
"294 1037 LINE",
"329 1228 OFFCURVE",
"462 1381 OFFCURVE",
"669 1376 CURVE SMOOTH",
"838 1371 OFFCURVE",
"931 1249 OFFCURVE",
"908 1084 CURVE SMOOTH",
"891 961 OFFCURVE",
"806 856 OFFCURVE",
"726 767 CURVE",
"359 767 LINE",
"340 665 LINE",
"634 666 LINE",
"596 632 LINE",
"44 98 LINE",
"27 0 LINE",
"915 0 LINE",
"933 102 LINE",
"194 102 LINE"
);
}
);
width = 1105;
}
);
note = uni01BB;
unicode = 01BB;
},
{
glyphname = uni01BC;
lastChange = "2017-05-19 14:51:26 +0000";
layers = (
{
layerId = "4CEFE409-8F93-4A8D-8E3D-834274A593AF";
paths = (
{
closed = 1;
nodes = (
"236 750 LINE",
"331 721 LINE",
"422 792 OFFCURVE",
"517 827 OFFCURVE",
"617 824 CURVE SMOOTH",
"817 819 OFFCURVE",
"892 650 OFFCURVE",
"873 471 CURVE SMOOTH",
"852 264 OFFCURVE",
"734 74 OFFCURVE",
"505 81 CURVE SMOOTH",
"322 85 OFFCURVE",
"239 211 OFFCURVE",
"239 384 CURVE",
"126 384 LINE",
"125 268 OFFCURVE",
"157 172 OFFCURVE",
"222 97 CURVE SMOOTH",
"351 -55 OFFCURVE",
"677 -76 OFFCURVE",
"846 120 CURVE SMOOTH",
"1014 315 OFFCURVE",
"1038 603 OFFCURVE",
"925 791 CURVE SMOOTH",
"812 978 OFFCURVE",
"531 962 OFFCURVE",
"371 853 CURVE",
"513 1345 LINE",
"1118 1345 LINE",
"1138 1456 LINE",
"208 1456 LINE",
"188 1345 LINE",
"398 1345 LINE"
);
}
);
width = 1102;
}
);
note = uni01BC;
unicode = 01BC;
},
{
glyphname = uni01BD;
lastChange = "2017-05-19 14:51:26 +0000";
layers = (
{
layerId = "4CEFE409-8F93-4A8D-8E3D-834274A593AF";
paths = (
{
closed = 1;
nodes = (
"137 504 LINE",
"241 492 LINE",
"307 589 OFFCURVE",
"404 636 OFFCURVE",
"531 633 CURVE SMOOTH",
"684 630 OFFCURVE",
"756 520 OFFCURVE",
"741 373 CURVE SMOOTH",
"725 193 OFFCURVE",
"605 80 OFFCURVE",
"421 84 CURVE SMOOTH",
"278 88 OFFCURVE",
"184 167 OFFCURVE",
"196 314 CURVE",
"81 307 LINE",
"74 206 OFFCURVE",
"103 127 OFFCURVE",
"170 70 CURVE SMOOTH",
"302 -43 OFFCURVE",
"558 -58 OFFCURVE",
"723 83 CURVE SMOOTH",
"888 224 OFFCURVE",
"900 492 OFFCURVE",
"792 631 CURVE SMOOTH",
"684 770 OFFCURVE",
"438 762 OFFCURVE",
"286 651 CURVE",
"390 974 LINE",
"918 974 LINE",
"937 1082 LINE",
"127 1082 LINE",
"108 974 LINE",
"276 974 LINE"
);
}
);
width = 1000;
}
);
note = uni01BD;
unicode = 01BD;
},
{
glyphname = uni01BE;
lastChange = "2017-05-19 14:51:26 +0000";
layers = (
{
layerId = "4CEFE409-8F93-4A8D-8E3D-834274A593AF";
paths = (
{
closed = 1;
nodes = (
"830 414 OFFCURVE",
"757 481 OFFCURVE",
"677 544 CURVE SMOOTH",
"596 607 OFFCURVE",
"527 678 OFFCURVE",
"543 811 CURVE",
"570 984 LINE",
"787 984 LINE",
"804 1082 LINE",
"586 1082 LINE",
"635 1360 LINE",
"516 1360 LINE",
"467 1082 LINE",
"276 1082 LINE",
"258 984 LINE",
"451 984 LINE",
"425 808 LINE",
"412 673 OFFCURVE",
"483 592 OFFCURVE",
"564 524 CURVE SMOOTH",
"645 455 OFFCURVE",
"716 388 OFFCURVE",
"704 284 CURVE SMOOTH",
"687 140 OFFCURVE",
"528 81 OFFCURVE",
"401 82 CURVE SMOOTH",
"260 83 OFFCURVE",
"143 152 OFFCURVE",
"146 304 CURVE",
"27 305 LINE",
"20 197 OFFCURVE",
"55 116 OFFCURVE",
"133 63 CURVE SMOOTH",
"289 -45 OFFCURVE",
"460 -34 OFFCURVE",
"588 10 CURVE SMOOTH",
"716 54 OFFCURVE",
"814 146 OFFCURVE",
"822 290 CURVE SMOOTH"
);
}
);
width = 956;
}
);
note = uni01BE;
unicode = 01BE;
},
{
glyphname = uni01BF;
lastChange = "2017-05-19 14:51:26 +0000";
layers = (
{
layerId = "4CEFE409-8F93-4A8D-8E3D-834274A593AF";
paths = (
{
closed = 1;
nodes = (
"272 -77 OFFCURVE",
"395 -38 OFFCURVE",
"518 12 CURVE SMOOTH",
"763 111 OFFCURVE",
"955 279 OFFCURVE",
"991 564 CURVE SMOOTH",
"994 587 LINE SMOOTH",
"1011 746 OFFCURVE",
"985 915 OFFCURVE",
"885 1020 CURVE SMOOTH",
"785 1124 OFFCURVE",
"500 1165 OFFCURVE",
"315 929 CURVE",
"342 1082 LINE",
"232 1082 LINE",
"-28 -416 LINE",
"91 -416 LINE",
"148 -104 LINE"
);
},
{
closed = 1;
nodes = (
"710 997 OFFCURVE",
"765 974 OFFCURVE",
"802 931 CURVE SMOOTH",
"874 843 OFFCURVE",
"888 706 OFFCURVE",
"873 586 CURVE SMOOTH",
"871 566 LINE",
"854 447 OFFCURVE",
"809 349 OFFCURVE",
"736 274 CURVE SMOOTH",
"589 122 OFFCURVE",
"370 41 OFFCURVE",
"162 -4 CURVE",
"300 792 LINE",
"373 917 OFFCURVE",
"483 1003 OFFCURVE",
"635 999 CURVE SMOOTH"
);
}
);
width = 1101;
}
);
note = uni01BF;
unicode = 01BF;
},
{
glyphname = uni01C0;
lastChange = "2017-05-19 14:51:26 +0000";
layers = (
{
layerId = "4CEFE409-8F93-4A8D-8E3D-834274A593AF";
paths = (
{
closed = 1;
nodes = (
"101 0 LINE",
"203 0 LINE",
"456 1456 LINE",
"354 1456 LINE"
);
}
);
width = 512;
}
);
note = uni01C0;
unicode = 01C0;
},
{
glyphname = uni01C5;
lastChange = "2017-05-19 14:51:26 +0000";
layers = (
{
layerId = "4CEFE409-8F93-4A8D-8E3D-834274A593AF";
paths = (
{
closed = 1;
nodes = (
"1510 1476 LINE",
"1703 1252 LINE",
"1800 1252 LINE",
"2059 1476 LINE",
"2061 1494 LINE",
"1945 1493 LINE",
"1753 1328 LINE",
"1624 1494 LINE",
"1512 1494 LINE"
);
},
{
closed = 1;
nodes = (
"861 0 OFFCURVE",
"1131 286 OFFCURVE",
"1190 661 CURVE SMOOTH",
"1210 795 LINE SMOOTH",
"1224 908 OFFCURVE",
"1215 1015 OFFCURVE",
"1183 1114 CURVE SMOOTH",
"1118 1313 OFFCURVE",
"960 1448 OFFCURVE",
"715 1455 CURVE SMOOTH",
"327 1456 LINE",
"74 0 LINE",
"469 0 LINE SMOOTH"
);
},
{
closed = 1;
nodes = (
"815 1347 OFFCURVE",
"897 1319 OFFCURVE",
"956 1266 CURVE SMOOTH",
"1075 1158 OFFCURVE",
"1114 981 OFFCURVE",
"1089 798 CURVE SMOOTH",
"1068 654 LINE SMOOTH",
"1016 346 OFFCURVE",
"798 104 OFFCURVE",
"473 103 CURVE SMOOTH",
"214 104 LINE",
"431 1351 LINE",
"712 1350 LINE SMOOTH"
);
},
{
closed = 1;
nodes = (
"1137 95 LINE",
"1121 0 LINE",
"1949 0 LINE",
"1967 102 LINE",
"1290 102 LINE",
"2078 988 LINE",
"2094 1082 LINE",
"1328 1082 LINE",
"1310 979 LINE",
"1922 979 LINE"
);
}
);
width = 2108;
}
);
note = uni01C5;
rightKerningGroup = z;
unicode = 01C5;
},
{
glyphname = uni01C6;
lastChange = "2017-05-19 14:51:26 +0000";
layers = (
{
layerId = "4CEFE409-8F93-4A8D-8E3D-834274A593AF";
paths = (
{
closed = 1;
nodes = (
"1119 1560 LINE",
"1000 1560 LINE",
"887 930 LINE",
"856 987 OFFCURVE",
"814 1030 OFFCURVE",
"761 1058 CURVE SMOOTH",
"654 1114 OFFCURVE",
"466 1134 OFFCURVE",
"330 1023 CURVE SMOOTH",
"193 911 OFFCURVE",
"117 725 OFFCURVE",
"94 549 CURVE",
"92 527 LINE SMOOTH",
"73 372 OFFCURVE",
"98 190 OFFCURVE",
"196 72 CURVE SMOOTH",
"294 -46 OFFCURVE",
"578 -86 OFFCURVE",
"765 146 CURVE",
"741 0 LINE",
"848 0 LINE"
);
},
{
closed = 1;
nodes = (
"1311 1476 LINE",
"1503 1252 LINE",
"1599 1252 LINE",
"1858 1476 LINE",
"1860 1494 LINE",
"1745 1493 LINE",
"1553 1328 LINE",
"1424 1494 LINE",
"1312 1494 LINE"
);
},
{
closed = 1;
nodes = (
"938 95 LINE",
"921 0 LINE",
"1748 0 LINE",
"1767 102 LINE",
"1089 102 LINE",
"1877 988 LINE",
"1893 1082 LINE",
"1127 1082 LINE",
"1109 979 LINE",
"1722 979 LINE"
);
},
{
closed = 1;
nodes = (
"241 727 OFFCURVE",
"304 861 OFFCURVE",
"408 942 CURVE SMOOTH",
"511 1023 OFFCURVE",
"784 1061 OFFCURVE",
"865 792 CURVE",
"778 278 LINE",
"740 218 OFFCURVE",
"693 170 OFFCURVE",
"637 134 CURVE SMOOTH",
"525 62 OFFCURVE",
"344 62 OFFCURVE",
"275 161 CURVE SMOOTH",
"206 260 OFFCURVE",
"201 409 OFFCURVE",
"213 528 CURVE"
);
}
);
width = 1908;
}
);
leftKerningGroup = c;
note = uni01C6;
rightKerningGroup = z;
unicode = 01C6;
},
{
glyphname = uni01E4;
lastChange = "2017-05-19 14:51:26 +0000";
layers = (
{
layerId = "4CEFE409-8F93-4A8D-8E3D-834274A593AF";
paths = (
{
closed = 1;
nodes = (
"1325 356 LINE",
"1343 458 LINE",
"1174 458 LINE",
"1215 692 LINE",
"714 692 LINE",
"696 587 LINE",
"1076 587 LINE",
"1053 458 LINE",
"748 458 LINE",
"729 356 LINE",
"1035 356 LINE",
"1009 211 LINE",
"956 162 OFFCURVE",
"895 129 OFFCURVE",
"824 111 CURVE SMOOTH",
"683 74 OFFCURVE",
"490 59 OFFCURVE",
"383 175 CURVE SMOOTH",
"275 291 OFFCURVE",
"248 476 OFFCURVE",
"271 644 CURVE SMOOTH",
"298 818 LINE SMOOTH",
"313 913 OFFCURVE",
"342 1003 OFFCURVE",
"385 1088 CURVE SMOOTH",
"471 1259 OFFCURVE",
"615 1376 OFFCURVE",
"823 1371 CURVE SMOOTH",
"1027 1366 OFFCURVE",
"1145 1246 OFFCURVE",
"1154 1045 CURVE",
"1274 1045 LINE",
"1270 1178 OFFCURVE",
"1228 1282 OFFCURVE",
"1147 1358 CURVE SMOOTH",
"986 1510 OFFCURVE",
"684 1511 OFFCURVE",
"502 1388 CURVE SMOOTH",
"320 1265 OFFCURVE",
"211 1051 OFFCURVE",
"176 822 CURVE SMOOTH",
"148 645 LINE SMOOTH",
"134 537 OFFCURVE",
"140 433 OFFCURVE",
"167 332 CURVE SMOOTH",
"220 130 OFFCURVE",
"364 -16 OFFCURVE",
"609 -20 CURVE SMOOTH",
"790 -23 OFFCURVE",
"1010 22 OFFCURVE",
"1129 174 CURVE",
"1156 356 LINE"
);
}
);
width = 1359;
}
);
note = uni01E4;
unicode = 01E4;
},
{
glyphname = uni01E5;
lastChange = "2017-05-19 14:51:26 +0000";
layers = (
{
layerId = "4CEFE409-8F93-4A8D-8E3D-834274A593AF";
paths = (
{
closed = 1;
nodes = (
"834 -80 LINE",
"851 -11 LINE",
"1042 1082 LINE",
"931 1082 LINE",
"895 926 LINE",
"864 984 OFFCURVE",
"822 1028 OFFCURVE",
"769 1057 CURVE SMOOTH",
"661 1115 OFFCURVE",
"476 1132 OFFCURVE",
"341 1027 CURVE SMOOTH",
"210 926 OFFCURVE",
"129 759 OFFCURVE",
"98 527 CURVE SMOOTH",
"81 372 OFFCURVE",
"103 190 OFFCURVE",
"202 72 CURVE SMOOTH",
"301 -46 OFFCURVE",
"581 -80 OFFCURVE",
"766 141 CURVE",
"732 -17 LINE",
"716 -80 LINE",
"-84 -79 LINE",
"-99 -163 LINE",
"689 -163 LINE",
"613 -299 OFFCURVE",
"504 -366 OFFCURVE",
"361 -363 CURVE SMOOTH",
"250 -359 OFFCURVE",
"162 -307 OFFCURVE",
"95 -206 CURVE",
"22 -282 LINE",
"98 -397 OFFCURVE",
"227 -461 OFFCURVE",
"364 -464 CURVE SMOOTH",
"575 -469 OFFCURVE",
"733 -352 OFFCURVE",
"814 -164 CURVE",
"978 -163 LINE",
"993 -79 LINE"
);
},
{
closed = 1;
nodes = (
"241 688 OFFCURVE",
"297 841 OFFCURVE",
"403 934 CURVE SMOOTH",
"509 1026 OFFCURVE",
"793 1061 OFFCURVE",
"870 788 CURVE",
"785 282 LINE",
"747 221 OFFCURVE",
"700 173 OFFCURVE",
"644 136 CURVE SMOOTH",
"532 62 OFFCURVE",
"349 62 OFFCURVE",
"281 161 CURVE SMOOTH",
"212 260 OFFCURVE",
"205 409 OFFCURVE",
"220 528 CURVE SMOOTH",
"222 549 LINE"
);
}
);
width = 1103;
}
);
leftKerningGroup = c;
note = uni01E5;
unicode = 01E5;
},
{
glyphname = uni01EF;
lastChange = "2017-05-19 14:51:26 +0000";
layers = (
{
layerId = "4CEFE409-8F93-4A8D-8E3D-834274A593AF";
paths = (
{
closed = 1;
nodes = (
"421 1476 LINE",
"613 1252 LINE",
"710 1252 LINE",
"969 1476 LINE",
"970 1494 LINE",
"856 1493 LINE",
"664 1328 LINE",
"534 1494 LINE",
"423 1494 LINE"
);
},
{
closed = 1;
nodes = (
"706 358 OFFCURVE",
"810 236 OFFCURVE",
"786 25 CURVE SMOOTH",
"765 -175 OFFCURVE",
"600 -298 OFFCURVE",
"403 -293 CURVE SMOOTH",
"216 -289 OFFCURVE",
"113 -150 OFFCURVE",
"130 29 CURVE",
"11 29 LINE",
"-10 -216 OFFCURVE",
"148 -390 OFFCURVE",
"395 -395 CURVE SMOOTH",
"655 -402 OFFCURVE",
"881 -238 OFFCURVE",
"905 30 CURVE SMOOTH",
"928 282 OFFCURVE",
"787 443 OFFCURVE",
"536 459 CURVE",
"1055 987 LINE",
"1069 1082 LINE",
"223 1082 LINE",
"205 979 LINE",
"901 979 LINE",
"401 474 LINE",
"382 366 LINE",
"497 365 LINE SMOOTH"
);
}
);
width = 1144;
}
);
note = uni01EF;
unicode = 01EF;
},
{
glyphname = uni01F6;
lastChange = "2017-05-19 14:51:26 +0000";
layers = (
{
layerId = "4CEFE409-8F93-4A8D-8E3D-834274A593AF";
paths = (
{
closed = 1;
nodes = (
"334 803 LINE",
"448 1456 LINE",
"326 1456 LINE",
"73 0 LINE",
"195 0 LINE",
"317 698 LINE",
"1121 698 LINE",
"1076 427 LINE",
"1044 160 OFFCURVE",
"1213 -14 OFFCURVE",
"1476 -19 CURVE SMOOTH",
"1756 -26 OFFCURVE",
"1972 150 OFFCURVE",
"2015 427 CURVE SMOOTH",
"2126 1082 LINE",
"2003 1082 LINE",
"1890 408 LINE SMOOTH",
"1853 207 OFFCURVE",
"1696 80 OFFCURVE",
"1485 87 CURVE SMOOTH",
"1282 92 OFFCURVE",
"1181 228 OFFCURVE",
"1201 424 CURVE",
"1374 1456 LINE",
"1252 1456 LINE",
"1139 803 LINE"
);
}
);
width = 2204;
}
);
note = uni01F6;
unicode = 01F6;
},
{
glyphname = uni01F7;
lastChange = "2017-05-19 14:51:26 +0000";
layers = (
{
layerId = "4CEFE409-8F93-4A8D-8E3D-834274A593AF";
paths = (
{
closed = 1;
nodes = (
"343 -68 OFFCURVE",
"501 -13 OFFCURVE",
"654 66 CURVE SMOOTH",
"960 222 OFFCURVE",
"1187 474 OFFCURVE",
"1239 823 CURVE SMOOTH",
"1247 884 LINE SMOOTH",
"1266 1045 OFFCURVE",
"1240 1183 OFFCURVE",
"1169 1299 CURVE SMOOTH",
"1026 1530 OFFCURVE",
"603 1536 OFFCURVE",
"416 1311 CURVE",
"448 1457 LINE",
"326 1456 LINE",
"-1 -428 LINE",
"121 -428 LINE",
"181 -101 LINE"
);
},
{
closed = 1;
nodes = (
"1082 1365 OFFCURVE",
"1158 1140 OFFCURVE",
"1125 887 CURVE SMOOTH",
"1116 823 LINE SMOOTH",
"1093 671 OFFCURVE",
"1034 540 OFFCURVE",
"941 429 CURVE SMOOTH",
"753 207 OFFCURVE",
"474 66 OFFCURVE",
"194 3 CURVE",
"392 1141 LINE",
"480 1299 OFFCURVE",
"614 1376 OFFCURVE",
"795 1372 CURVE SMOOTH"
);
}
);
width = 1323;
}
);
note = uni01F7;
unicode = 01F7;
},
{
glyphname = uni021C;
lastChange = "2017-05-19 14:51:26 +0000";
layers = (
{
layerId = "4CEFE409-8F93-4A8D-8E3D-834274A593AF";
paths = (
{
closed = 1;
nodes = (
"1054 474 OFFCURVE",
"1036 620 OFFCURVE",
"915 695 CURVE",
"1039 792 OFFCURVE",
"1128 911 OFFCURVE",
"1144 1071 CURVE SMOOTH",
"1171 1344 OFFCURVE",
"968 1473 OFFCURVE",
"716 1477 CURVE SMOOTH",
"465 1481 OFFCURVE",
"222 1337 OFFCURVE",
"186 1074 CURVE",
"306 1075 LINE",
"325 1172 OFFCURVE",
"374 1246 OFFCURVE",
"451 1298 CURVE SMOOTH",
"605 1402 OFFCURVE",
"821 1395 OFFCURVE",
"946 1299 CURVE SMOOTH",
"1071 1202 OFFCURVE",
"1033 965 OFFCURVE",
"925 838 CURVE SMOOTH",
"817 710 OFFCURVE",
"648 623 OFFCURVE",
"417 547 CURVE SMOOTH",
"178 465 LINE",
"166 366 LINE",
"394 434 OFFCURVE",
"620 513 OFFCURVE",
"827 632 CURVE",
"927 575 OFFCURVE",
"931 447 OFFCURVE",
"919 344 CURVE SMOOTH",
"892 125 OFFCURVE",
"767 -20 OFFCURVE",
"595 -120 CURVE SMOOTH",
"423 -220 OFFCURVE",
"220 -282 OFFCURVE",
"40 -330 CURVE",
"28 -437 LINE",
"237 -386 OFFCURVE",
"475 -316 OFFCURVE",
"673 -199 CURVE SMOOTH",
"871 -82 OFFCURVE",
"1014 90 OFFCURVE",
"1041 342 CURVE SMOOTH"
);
}
);
width = 1192;
}
);
note = uni021C;
unicode = 021C;
},
{
glyphname = uni021D;
lastChange = "2017-05-19 14:51:26 +0000";
layers = (
{
layerId = "4CEFE409-8F93-4A8D-8E3D-834274A593AF";
paths = (
{
closed = 1;
nodes = (
"833 316 OFFCURVE",
"813 434 OFFCURVE",
"718 498 CURVE",
"817 575 OFFCURVE",
"892 670 OFFCURVE",
"903 801 CURVE SMOOTH",
"922 1010 OFFCURVE",
"751 1100 OFFCURVE",
"564 1103 CURVE SMOOTH",
"367 1107 OFFCURVE",
"163 1000 OFFCURVE",
"135 791 CURVE",
"253 791 LINE",
"268 861 OFFCURVE",
"306 914 OFFCURVE",
"366 950 CURVE SMOOTH",
"485 1022 OFFCURVE",
"631 1017 OFFCURVE",
"725 954 CURVE SMOOTH",
"819 891 OFFCURVE",
"795 713 OFFCURVE",
"703 613 CURVE SMOOTH",
"611 513 OFFCURVE",
"475 452 OFFCURVE",
"312 403 CURVE SMOOTH",
"119 342 LINE",
"109 246 LINE",
"319 300 OFFCURVE",
"494 365 OFFCURVE",
"633 440 CURVE",
"710 391 OFFCURVE",
"714 290 OFFCURVE",
"703 207 CURVE SMOOTH",
"689 94 OFFCURVE",
"644 2 OFFCURVE",
"569 -69 CURVE SMOOTH",
"417 -211 OFFCURVE",
"195 -287 OFFCURVE",
"4 -335 CURVE",
"-8 -437 LINE",
"110 -415 OFFCURVE",
"231 -380 OFFCURVE",
"354 -331 CURVE SMOOTH",
"600 -235 OFFCURVE",
"795 -68 OFFCURVE",
"822 209 CURVE SMOOTH"
);
}
);
width = 998;
}
);
note = uni021D;
unicode = 021D;
},
{
glyphname = uni0220;
lastChange = "2017-05-19 14:51:26 +0000";
layers = (
{
layerId = "4CEFE409-8F93-4A8D-8E3D-834274A593AF";
paths = (
{
closed = 1;
nodes = (
"1222 1164 OFFCURVE",
"1189 1270 OFFCURVE",
"1110 1351 CURVE SMOOTH",
"951 1512 OFFCURVE",
"649 1517 OFFCURVE",
"422 1360 CURVE",
"443 1457 LINE",
"325 1456 LINE",
"73 0 LINE",
"191 0 LINE",
"410 1252 LINE",
"530 1335 OFFCURVE",
"658 1375 OFFCURVE",
"794 1372 CURVE SMOOTH",
"997 1368 OFFCURVE",
"1113 1234 OFFCURVE",
"1088 1033 CURVE",
"838 -428 LINE",
"957 -428 LINE",
"1207 1032 LINE"
);
}
);
width = 1292;
}
);
note = uni0220;
unicode = 0220;
},
{
glyphname = uni0221;
lastChange = "2017-05-19 14:51:26 +0000";
layers = (
{
layerId = "4CEFE409-8F93-4A8D-8E3D-834274A593AF";
paths = (
{
closed = 1;
nodes = (
"855 987 OFFCURVE",
"813 1030 OFFCURVE",
"760 1058 CURVE SMOOTH",
"653 1114 OFFCURVE",
"464 1134 OFFCURVE",
"328 1022 CURVE SMOOTH",
"201 918 OFFCURVE",
"123 753 OFFCURVE",
"92 527 CURVE SMOOTH",
"76 372 OFFCURVE",
"98 190 OFFCURVE",
"196 72 CURVE SMOOTH",
"294 -46 OFFCURVE",
"575 -82 OFFCURVE",
"760 141 CURVE",
"711 -98 LINE",
"498 -322 LINE",
"566 -398 LINE",
"707 -244 LINE",
"715 -309 OFFCURVE",
"742 -358 OFFCURVE",
"788 -389 CURVE SMOOTH",
"880 -452 OFFCURVE",
"1038 -462 OFFCURVE",
"1146 -366 CURVE SMOOTH",
"1254 -271 OFFCURVE",
"1257 -103 OFFCURVE",
"1181 -15 CURVE SMOOTH",
"1104 73 OFFCURVE",
"969 70 OFFCURVE",
"841 -3 CURVE",
"1114 1536 LINE",
"995 1536 LINE",
"886 930 LINE"
);
},
{
closed = 1;
nodes = (
"234 689 OFFCURVE",
"290 841 OFFCURVE",
"396 934 CURVE SMOOTH",
"502 1026 OFFCURVE",
"783 1060 OFFCURVE",
"864 792 CURVE",
"777 278 LINE",
"738 219 OFFCURVE",
"691 171 OFFCURVE",
"636 135 CURVE SMOOTH",
"524 62 OFFCURVE",
"342 62 OFFCURVE",
"274 161 CURVE SMOOTH",
"205 260 OFFCURVE",
"198 409 OFFCURVE",
"213 528 CURVE SMOOTH",
"215 549 LINE"
);
},
{
closed = 1;
nodes = (
"890 -74 OFFCURVE",
"949 -49 OFFCURVE",
"1000 -50 CURVE SMOOTH",
"1077 -51 OFFCURVE",
"1123 -105 OFFCURVE",
"1116 -182 CURVE SMOOTH",
"1109 -266 OFFCURVE",
"1048 -334 OFFCURVE",
"961 -334 CURVE SMOOTH",
"848 -335 OFFCURVE",
"813 -257 OFFCURVE",
"822 -154 CURVE SMOOTH",
"824 -127 LINE"
);
}
);
width = 1400;
}
);
leftKerningGroup = c;
note = uni0221;
unicode = 0221;
},
{
glyphname = uni0222;
lastChange = "2017-05-19 14:51:26 +0000";
layers = (
{
layerId = "4CEFE409-8F93-4A8D-8E3D-834274A593AF";
paths = (
{
closed = 1;
nodes = (
"1204 592 OFFCURVE",
"1143 732 OFFCURVE",
"1000 807 CURVE",
"1167 859 OFFCURVE",
"1300 957 OFFCURVE",
"1313 1144 CURVE SMOOTH",
"1329 1344 OFFCURVE",
"1196 1458 OFFCURVE",
"1007 1475 CURVE",
"997 1375 LINE",
"1062 1364 OFFCURVE",
"1112 1340 OFFCURVE",
"1149 1304 CURVE SMOOTH",
"1222 1231 OFFCURVE",
"1204 1047 OFFCURVE",
"1107 969 CURVE SMOOTH",
"1010 891 OFFCURVE",
"864 871 OFFCURVE",
"736 871 CURVE SMOOTH",
"646 873 OFFCURVE",
"573 881 OFFCURVE",
"518 894 CURVE SMOOTH",
"406 921 OFFCURVE",
"327 987 OFFCURVE",
"342 1127 CURVE SMOOTH",
"359 1284 OFFCURVE",
"480 1355 OFFCURVE",
"625 1378 CURVE",
"637 1477 LINE",
"530 1470 OFFCURVE",
"436 1439 OFFCURVE",
"355 1384 CURVE SMOOTH",
"192 1273 OFFCURVE",
"131 924 OFFCURVE",
"422 815 CURVE",
"243 743 OFFCURVE",
"117 614 OFFCURVE",
"98 414 CURVE SMOOTH",
"70 125 OFFCURVE",
"295 -13 OFFCURVE",
"559 -20 CURVE SMOOTH",
"602 -20 LINE SMOOTH",
"698 -19 OFFCURVE",
"789 -3 OFFCURVE",
"875 30 CURVE SMOOTH",
"1047 95 OFFCURVE",
"1172 226 OFFCURVE",
"1191 433 CURVE SMOOTH"
);
},
{
closed = 1;
nodes = (
"924 757 OFFCURVE",
"1093 657 OFFCURVE",
"1068 434 CURVE SMOOTH",
"1041 187 OFFCURVE",
"819 84 OFFCURVE",
"595 87 CURVE SMOOTH",
"563 87 LINE SMOOTH",
"362 94 OFFCURVE",
"195 191 OFFCURVE",
"219 414 CURVE SMOOTH",
"246 658 OFFCURVE",
"465 766 OFFCURVE",
"689 765 CURVE SMOOTH",
"721 764 LINE SMOOTH"
);
}
);
width = 1348;
}
);
note = uni0222;
unicode = 0222;
},
{
glyphname = uni0223;
lastChange = "2017-05-19 14:51:26 +0000";
layers = (
{
layerId = "4CEFE409-8F93-4A8D-8E3D-834274A593AF";
paths = (
{
closed = 1;
nodes = (
"1193 590 OFFCURVE",
"1127 731 OFFCURVE",
"980 803 CURVE",
"1159 864 OFFCURVE",
"1292 981 OFFCURVE",
"1308 1178 CURVE SMOOTH",
"1325 1379 OFFCURVE",
"1214 1537 OFFCURVE",
"1009 1556 CURVE",
"999 1459 LINE",
"1288 1395 OFFCURVE",
"1252 959 OFFCURVE",
"896 879 CURVE SMOOTH",
"840 866 OFFCURVE",
"782 860 OFFCURVE",
"723 861 CURVE SMOOTH",
"683 862 LINE SMOOTH",
"491 867 OFFCURVE",
"314 937 OFFCURVE",
"337 1160 CURVE SMOOTH",
"356 1335 OFFCURVE",
"480 1431 OFFCURVE",
"644 1462 CURVE",
"656 1559 LINE",
"421 1544 OFFCURVE",
"239 1405 OFFCURVE",
"218 1161 CURVE SMOOTH",
"205 1002 OFFCURVE",
"272 874 OFFCURVE",
"420 811 CURVE",
"237 742 OFFCURVE",
"107 613 OFFCURVE",
"88 410 CURVE SMOOTH",
"63 122 OFFCURVE",
"289 -13 OFFCURVE",
"549 -20 CURVE SMOOTH",
"592 -20 LINE SMOOTH",
"687 -19 OFFCURVE",
"777 -3 OFFCURVE",
"863 30 CURVE SMOOTH",
"1035 94 OFFCURVE",
"1161 224 OFFCURVE",
"1178 429 CURVE SMOOTH"
);
},
{
closed = 1;
nodes = (
"911 753 OFFCURVE",
"1083 653 OFFCURVE",
"1059 430 CURVE SMOOTH",
"1032 185 OFFCURVE",
"807 78 OFFCURVE",
"583 81 CURVE SMOOTH",
"553 81 LINE",
"353 88 OFFCURVE",
"183 189 OFFCURVE",
"207 410 CURVE SMOOTH",
"234 653 OFFCURVE",
"456 762 OFFCURVE",
"679 761 CURVE SMOOTH",
"710 760 LINE SMOOTH"
);
}
);
width = 1330;
}
);
note = uni0223;
unicode = 0223;
},
{
glyphname = uni0224;
lastChange = "2017-05-19 14:51:26 +0000";
layers = (
{
layerId = "4CEFE409-8F93-4A8D-8E3D-834274A593AF";
paths = (
{
closed = 1;
nodes = (
"-1 99 LINE",
"-18 0 LINE",
"708 0 LINE",
"770 -3 OFFCURVE",
"819 -20 OFFCURVE",
"854 -53 CURVE SMOOTH",
"924 -119 OFFCURVE",
"895 -223 OFFCURVE",
"868 -287 CURVE",
"971 -295 LINE",
"988 -249 OFFCURVE",
"999 -209 OFFCURVE",
"1002 -176 CURVE SMOOTH",
"1019 15 OFFCURVE",
"885 99 OFFCURVE",
"710 103 CURVE SMOOTH",
"152 104 LINE",
"1207 1362 LINE",
"1223 1456 LINE",
"261 1456 LINE",
"242 1352 LINE",
"1052 1352 LINE"
);
}
);
width = 1201;
}
);
note = uni0224;
unicode = 0224;
},
{
glyphname = uni0225;
lastChange = "2017-05-19 14:51:26 +0000";
layers = (
{
layerId = "4CEFE409-8F93-4A8D-8E3D-834274A593AF";
paths = (
{
closed = 1;
nodes = (
"187 1082 LINE",
"169 979 LINE",
"781 979 LINE",
"-3 95 LINE",
"-20 0 LINE",
"505 0 LINE",
"564 -3 OFFCURVE",
"613 -18 OFFCURVE",
"651 -46 CURVE SMOOTH",
"727 -103 OFFCURVE",
"697 -213 OFFCURVE",
"670 -274 CURVE",
"770 -282 LINE",
"787 -236 OFFCURVE",
"798 -196 OFFCURVE",
"801 -163 CURVE SMOOTH",
"818 26 OFFCURVE",
"675 97 OFFCURVE",
"507 101 CURVE SMOOTH",
"149 102 LINE",
"936 988 LINE",
"953 1082 LINE"
);
}
);
width = 984;
}
);
note = uni0225;
unicode = 0225;
},
{
glyphname = uni0234;
lastChange = "2017-05-19 14:51:26 +0000";
layers = (
{
layerId = "4CEFE409-8F93-4A8D-8E3D-834274A593AF";
paths = (
{
closed = 1;
nodes = (
"-143 -322 LINE",
"-75 -398 LINE",
"66 -244 LINE",
"74 -310 OFFCURVE",
"101 -358 OFFCURVE",
"148 -389 CURVE SMOOTH",
"240 -451 OFFCURVE",
"398 -462 OFFCURVE",
"506 -367 CURVE SMOOTH",
"614 -272 OFFCURVE",
"616 -103 OFFCURVE",
"540 -15 CURVE SMOOTH",
"463 73 OFFCURVE",
"328 70 OFFCURVE",
"200 -3 CURVE",
"473 1536 LINE",
"353 1536 LINE",
"70 -97 LINE"
);
},
{
closed = 1;
nodes = (
"249 -74 OFFCURVE",
"307 -49 OFFCURVE",
"358 -50 CURVE SMOOTH",
"435 -51 OFFCURVE",
"482 -106 OFFCURVE",
"475 -182 CURVE SMOOTH",
"467 -266 OFFCURVE",
"407 -334 OFFCURVE",
"320 -334 CURVE SMOOTH",
"205 -335 OFFCURVE",
"172 -255 OFFCURVE",
"180 -154 CURVE SMOOTH",
"183 -127 LINE"
);
}
);
width = 759;
}
);
note = uni0234;
unicode = 0234;
},
{
glyphname = uni0235;
lastChange = "2017-05-19 14:51:26 +0000";
layers = (
{
layerId = "4CEFE409-8F93-4A8D-8E3D-834274A593AF";
paths = (
{
closed = 1;
nodes = (
"527 1106 OFFCURVE",
"401 1020 OFFCURVE",
"312 899 CURVE",
"348 1082 LINE",
"233 1082 LINE",
"45 0 LINE",
"164 0 LINE",
"292 745 LINE",
"364 881 OFFCURVE",
"481 1004 OFFCURVE",
"646 1000 CURVE SMOOTH",
"822 996 OFFCURVE",
"856 859 OFFCURVE",
"839 706 CURVE",
"705 -97 LINE",
"491 -322 LINE",
"561 -398 LINE",
"700 -244 LINE",
"709 -309 OFFCURVE",
"736 -358 OFFCURVE",
"782 -389 CURVE SMOOTH",
"874 -452 OFFCURVE",
"1031 -462 OFFCURVE",
"1140 -367 CURVE SMOOTH",
"1248 -272 OFFCURVE",
"1250 -103 OFFCURVE",
"1174 -15 CURVE SMOOTH",
"1098 72 OFFCURVE",
"959 69 OFFCURVE",
"834 -3 CURVE",
"959 705 LINE",
"982 914 OFFCURVE",
"917 1098 OFFCURVE",
"682 1102 CURVE SMOOTH"
);
},
{
closed = 1;
nodes = (
"882 -74 OFFCURVE",
"940 -48 OFFCURVE",
"993 -49 CURVE SMOOTH",
"1070 -52 OFFCURVE",
"1114 -105 OFFCURVE",
"1109 -182 CURVE SMOOTH",
"1102 -266 OFFCURVE",
"1041 -334 OFFCURVE",
"954 -334 CURVE SMOOTH",
"839 -335 OFFCURVE",
"806 -255 OFFCURVE",
"814 -154 CURVE SMOOTH",
"817 -127 LINE"
);
}
);
width = 1393;
}
);
leftKerningGroup = m;
note = uni0235;
unicode = 0235;
},
{
glyphname = uni0236;
lastChange = "2017-05-19 14:51:26 +0000";
layers = (
{
layerId = "4CEFE409-8F93-4A8D-8E3D-834274A593AF";
paths = (
{
closed = 1;
nodes = (
"700 303 OFFCURVE",
"683 358 OFFCURVE",
"645 402 CURVE SMOOTH",
"568 489 OFFCURVE",
"431 486 OFFCURVE",
"306 415 CURVE",
"410 984 LINE",
"627 984 LINE",
"644 1082 LINE",
"426 1082 LINE",
"475 1360 LINE",
"356 1360 LINE",
"307 1082 LINE",
"115 1082 LINE",
"97 984 LINE",
"290 984 LINE",
"176 321 LINE",
"-38 95 LINE",
"30 19 LINE",
"171 173 LINE",
"187 42 OFFCURVE",
"289 -20 OFFCURVE",
"416 -21 CURVE SMOOTH",
"567 -22 OFFCURVE",
"689 83 OFFCURVE",
"697 236 CURVE SMOOTH"
);
},
{
closed = 1;
nodes = (
"352 344 OFFCURVE",
"410 369 OFFCURVE",
"462 368 CURVE SMOOTH",
"541 367 OFFCURVE",
"586 314 OFFCURVE",
"579 235 CURVE SMOOTH",
"572 151 OFFCURVE",
"511 84 OFFCURVE",
"424 83 CURVE SMOOTH",
"311 83 OFFCURVE",
"277 162 OFFCURVE",
"286 263 CURVE SMOOTH",
"288 291 LINE"
);
}
);
width = 791;
}
);
note = uni0236;
unicode = 0236;
},
{
glyphname = uni0237;
lastChange = "2017-05-19 14:51:26 +0000";
layers = (
{
layerId = "4CEFE409-8F93-4A8D-8E3D-834274A593AF";
paths = (
{
closed = 1;
nodes = (
"34 -221 OFFCURVE",
"-29 -340 OFFCURVE",
"-168 -339 CURVE SMOOTH",
"-196 -338 OFFCURVE",
"-228 -333 OFFCURVE",
"-264 -322 CURVE",
"-290 -418 LINE",
"-247 -431 OFFCURVE",
"-208 -439 OFFCURVE",
"-174 -440 CURVE SMOOTH",
"39 -443 OFFCURVE",
"150 -284 OFFCURVE",
"175 -89 CURVE",
"375 1082 LINE",
"255 1082 LINE",
"55 -96 LINE SMOOTH"
);
}
);
width = 455;
}
);
note = uni0237;
unicode = 0237;
},
{
glyphname = uni0238;
lastChange = "2017-05-19 14:51:26 +0000";
layers = (
{
layerId = "4CEFE409-8F93-4A8D-8E3D-834274A593AF";
paths = (
{
closed = 1;
nodes = (
"1691 712 OFFCURVE",
"1671 895 OFFCURVE",
"1573 1011 CURVE SMOOTH",
"1475 1127 OFFCURVE",
"1186 1169 OFFCURVE",
"1001 926 CURVE",
"1114 1536 LINE",
"995 1536 LINE",
"886 930 LINE",
"855 987 OFFCURVE",
"813 1030 OFFCURVE",
"760 1058 CURVE SMOOTH",
"653 1114 OFFCURVE",
"469 1132 OFFCURVE",
"334 1027 CURVE SMOOTH",
"204 926 OFFCURVE",
"123 759 OFFCURVE",
"92 527 CURVE SMOOTH",
"76 374 OFFCURVE",
"98 191 OFFCURVE",
"196 73 CURVE SMOOTH",
"294 -45 OFFCURVE",
"576 -81 OFFCURVE",
"763 144 CURVE",
"736 0 LINE",
"847 0 LINE",
"876 147 LINE",
"909 90 OFFCURVE",
"952 49 OFFCURVE",
"1007 22 CURVE SMOOTH",
"1116 -32 OFFCURVE",
"1302 -52 OFFCURVE",
"1438 60 CURVE SMOOTH",
"1573 172 OFFCURVE",
"1647 358 OFFCURVE",
"1670 531 CURVE",
"1672 553 LINE SMOOTH"
);
},
{
closed = 1;
nodes = (
"237 709 OFFCURVE",
"295 848 OFFCURVE",
"400 937 CURVE SMOOTH",
"505 1025 OFFCURVE",
"781 1060 OFFCURVE",
"864 792 CURVE",
"777 278 LINE",
"690 144 OFFCURVE",
"578 79 OFFCURVE",
"441 84 CURVE SMOOTH",
"364 86 OFFCURVE",
"308 112 OFFCURVE",
"274 161 CURVE SMOOTH",
"205 260 OFFCURVE",
"199 409 OFFCURVE",
"212 528 CURVE SMOOTH"
);
},
{
closed = 1;
nodes = (
"1403 996 OFFCURVE",
"1459 971 OFFCURVE",
"1493 922 CURVE SMOOTH",
"1561 824 OFFCURVE",
"1566 673 OFFCURVE",
"1551 553 CURVE SMOOTH",
"1549 532 LINE",
"1530 395 OFFCURVE",
"1476 241 OFFCURVE",
"1372 149 CURVE SMOOTH",
"1267 56 OFFCURVE",
"982 23 OFFCURVE",
"899 287 CURVE",
"981 778 LINE",
"1054 909 OFFCURVE",
"1167 1003 OFFCURVE",
"1324 999 CURVE SMOOTH"
);
}
);
width = 1786;
}
);
note = uni0238;
rightKerningGroup = b;
unicode = 0238;
},
{
glyphname = uni0239;
lastChange = "2017-05-19 14:51:26 +0000";
layers = (
{
layerId = "4CEFE409-8F93-4A8D-8E3D-834274A593AF";
paths = (
{
closed = 1;
nodes = (
"1286 -23 OFFCURVE",
"1370 4 OFFCURVE",
"1438 60 CURVE SMOOTH",
"1573 171 OFFCURVE",
"1647 357 OFFCURVE",
"1670 532 CURVE",
"1672 554 LINE SMOOTH",
"1691 713 OFFCURVE",
"1671 895 OFFCURVE",
"1573 1011 CURVE SMOOTH",
"1475 1127 OFFCURVE",
"1190 1168 OFFCURVE",
"999 928 CURVE",
"1028 1082 LINE",
"923 1082 LINE",
"889 935 LINE",
"857 990 OFFCURVE",
"815 1032 OFFCURVE",
"762 1059 CURVE SMOOTH",
"656 1114 OFFCURVE",
"475 1131 OFFCURVE",
"340 1031 CURVE SMOOTH",
"207 932 OFFCURVE",
"125 765 OFFCURVE",
"93 528 CURVE SMOOTH",
"76 371 OFFCURVE",
"97 188 OFFCURVE",
"196 72 CURVE SMOOTH",
"295 -45 OFFCURVE",
"572 -78 OFFCURVE",
"759 134 CURVE",
"657 -416 LINE",
"775 -416 LINE",
"875 139 LINE",
"943 31 OFFCURVE",
"1060 -18 OFFCURVE",
"1185 -21 CURVE SMOOTH"
);
},
{
closed = 1;
nodes = (
"237 696 OFFCURVE",
"292 842 OFFCURVE",
"400 935 CURVE SMOOTH",
"507 1027 OFFCURVE",
"779 1059 OFFCURVE",
"867 799 CURVE",
"776 269 LINE",
"737 212 OFFCURVE",
"690 166 OFFCURVE",
"635 131 CURVE SMOOTH",
"523 61 OFFCURVE",
"344 60 OFFCURVE",
"275 160 CURVE SMOOTH",
"206 259 OFFCURVE",
"200 409 OFFCURVE",
"213 528 CURVE SMOOTH"
);
},
{
closed = 1;
nodes = (
"1399 997 OFFCURVE",
"1456 971 OFFCURVE",
"1491 922 CURVE SMOOTH",
"1561 823 OFFCURVE",
"1566 673 OFFCURVE",
"1553 553 CURVE SMOOTH",
"1528 372 OFFCURVE",
"1468 231 OFFCURVE",
"1363 144 CURVE SMOOTH",
"1258 56 OFFCURVE",
"984 26 OFFCURVE",
"896 271 CURVE",
"983 790 LINE",
"1058 915 OFFCURVE",
"1168 1003 OFFCURVE",
"1320 999 CURVE SMOOTH"
);
}
);
width = 1785;
}
);
note = uni0239;
rightKerningGroup = b;
unicode = 0239;
},
{
glyphname = uni023A;
lastChange = "2017-05-19 14:51:26 +0000";
layers = (
{
layerId = "4CEFE409-8F93-4A8D-8E3D-834274A593AF";
paths = (
{
closed = 1;
nodes = (
"55 0 LINE",
"210 294 LINE",
"318 408 LINE",
"910 408 LINE",
"985 0 LINE",
"1106 0 LINE",
"907 1030 LINE",
"1420 1572 LINE",
"1299 1572 LINE",
"886 1137 LINE",
"825 1456 LINE",
"708 1456 LINE",
"72 277 LINE",
"-309 -125 LINE",
"-186 -125 LINE",
"-70 0 LINE"
);
},
{
closed = 1;
nodes = (
"361 584 LINE",
"746 1304 LINE",
"794 1039 LINE"
);
},
{
closed = 1;
nodes = (
"891 513 LINE",
"417 513 LINE",
"814 932 LINE"
);
}
);
width = 1242;
}
);
note = uni023A;
unicode = 023A;
},
{
glyphname = uni023B;
lastChange = "2017-05-19 14:51:26 +0000";
layers = (
{
layerId = "4CEFE409-8F93-4A8D-8E3D-834274A593AF";
paths = (
{
closed = 1;
nodes = (
"869 -26 OFFCURVE",
"1084 160 OFFCURVE",
"1152 453 CURVE",
"1031 453 LINE",
"963 221 OFFCURVE",
"818 77 OFFCURVE",
"566 82 CURVE SMOOTH",
"504 83 OFFCURVE",
"448 98 OFFCURVE",
"399 125 CURVE",
"1042 1297 LINE",
"1117 1217 OFFCURVE",
"1128 1105 OFFCURVE",
"1127 1001 CURVE",
"1248 1000 LINE",
"1249 1151 OFFCURVE",
"1214 1301 OFFCURVE",
"1093 1401 CURVE",
"1192 1571 LINE",
"1091 1572 LINE",
"1017 1441 LINE",
"888 1488 OFFCURVE",
"665 1510 OFFCURVE",
"486 1385 CURVE SMOOTH",
"306 1260 OFFCURVE",
"198 1046 OFFCURVE",
"163 819 CURVE SMOOTH",
"134 637 LINE SMOOTH",
"107 441 OFFCURVE",
"128 218 OFFCURVE",
"276 73 CURVE",
"163 -124 LINE",
"263 -125 LINE",
"349 27 LINE",
"414 -4 OFFCURVE",
"485 -20 OFFCURVE",
"561 -21 CURVE SMOOTH"
);
},
{
closed = 1;
nodes = (
"243 483 OFFCURVE",
"245 562 OFFCURVE",
"256 636 CURVE SMOOTH",
"284 814 LINE SMOOTH",
"313 1002 OFFCURVE",
"396 1186 OFFCURVE",
"540 1295 CURVE SMOOTH",
"683 1404 OFFCURVE",
"871 1383 OFFCURVE",
"966 1344 CURVE",
"329 180 LINE",
"281 243 OFFCURVE",
"254 317 OFFCURVE",
"249 400 CURVE SMOOTH"
);
}
);
width = 1290;
}
);
note = uni023B;
unicode = 023B;
},
{
glyphname = uni023C;
lastChange = "2017-05-19 14:51:26 +0000";
layers = (
{
layerId = "4CEFE409-8F93-4A8D-8E3D-834274A593AF";
paths = (
{
closed = 1;
nodes = (
"662 -25 OFFCURVE",
"856 117 OFFCURVE",
"896 334 CURVE",
"784 334 LINE",
"763 255 OFFCURVE",
"722 193 OFFCURVE",
"662 147 CURVE SMOOTH",
"541 54 OFFCURVE",
"390 69 OFFCURVE",
"307 114 CURVE",
"774 950 LINE",
"831 897 OFFCURVE",
"857 820 OFFCURVE",
"851 718 CURVE",
"963 718 LINE",
"968 846 OFFCURVE",
"931 970 OFFCURVE",
"823 1049 CURVE",
"1054 1456 LINE",
"954 1456 LINE",
"744 1084 LINE",
"699 1097 OFFCURVE",
"656 1103 OFFCURVE",
"615 1104 CURVE SMOOTH",
"511 1105 OFFCURVE",
"422 1081 OFFCURVE",
"347 1030 CURVE SMOOTH",
"197 928 OFFCURVE",
"108 751 OFFCURVE",
"84 560 CURVE SMOOTH",
"79 517 LINE SMOOTH",
"62 361 OFFCURVE",
"72 188 OFFCURVE",
"184 67 CURVE",
"-89 -416 LINE",
"12 -416 LINE",
"255 19 LINE",
"314 -8 OFFCURVE",
"377 -21 OFFCURVE",
"443 -22 CURVE SMOOTH"
);
},
{
closed = 1;
nodes = (
"182 467 OFFCURVE",
"196 582 OFFCURVE",
"230 685 CURVE SMOOTH",
"297 891 OFFCURVE",
"426 1007 OFFCURVE",
"609 1003 CURVE SMOOTH",
"636 1002 OFFCURVE",
"664 998 OFFCURVE",
"695 990 CURVE",
"238 172 LINE",
"207 223 OFFCURVE",
"190 279 OFFCURVE",
"187 341 CURVE SMOOTH"
);
}
);
width = 1024;
}
);
note = uni023C;
unicode = 023C;
},
{
glyphname = uni023E;
lastChange = "2017-05-19 14:51:26 +0000";
layers = (
{
layerId = "4CEFE409-8F93-4A8D-8E3D-834274A593AF";
paths = (
{
closed = 1;
nodes = (
"548 691 LINE",
"53 -125 LINE",
"158 -125 LINE",
"507 450 LINE",
"428 0 LINE",
"549 0 LINE",
"676 730 LINE",
"1052 1351 LINE",
"1267 1351 LINE",
"1286 1456 LINE",
"1115 1456 LINE",
"1186 1572 LINE",
"1082 1571 LINE",
"1011 1456 LINE",
"197 1456 LINE",
"178 1351 LINE",
"663 1351 LINE"
);
},
{
closed = 1;
nodes = (
"717 971 LINE",
"784 1351 LINE",
"948 1351 LINE"
);
}
);
width = 1186;
}
);
note = uni023E;
unicode = 023E;
},
{
glyphname = uni023F;
lastChange = "2017-05-19 14:51:26 +0000";
layers = (
{
layerId = "4CEFE409-8F93-4A8D-8E3D-834274A593AF";
paths = (
{
closed = 1;
nodes = (
"704 139 OFFCURVE",
"546 80 OFFCURVE",
"418 81 CURVE SMOOTH",
"269 84 OFFCURVE",
"172 155 OFFCURVE",
"128 296 CURVE",
"32 255 LINE",
"165 -137 LINE",
"206 -244 OFFCURVE",
"246 -321 OFFCURVE",
"286 -366 CURVE SMOOTH",
"365 -458 OFFCURVE",
"492 -473 OFFCURVE",
"640 -332 CURVE",
"594 -257 LINE",
"534 -310 OFFCURVE",
"480 -336 OFFCURVE",
"433 -335 CURVE SMOOTH",
"349 -334 OFFCURVE",
"298 -227 OFFCURVE",
"267 -114 CURVE SMOOTH",
"231 13 LINE",
"343 -34 OFFCURVE",
"476 -35 OFFCURVE",
"605 9 CURVE SMOOTH",
"733 53 OFFCURVE",
"830 143 OFFCURVE",
"841 290 CURVE SMOOTH",
"854 483 OFFCURVE",
"681 560 OFFCURVE",
"521 602 CURVE SMOOTH",
"441 623 OFFCURVE",
"386 643 OFFCURVE",
"356 662 CURVE SMOOTH",
"296 701 OFFCURVE",
"280 741 OFFCURVE",
"287 805 CURVE SMOOTH",
"302 942 OFFCURVE",
"447 1001 OFFCURVE",
"570 1000 CURVE SMOOTH",
"703 997 OFFCURVE",
"814 919 OFFCURVE",
"803 779 CURVE",
"921 779 LINE",
"934 987 OFFCURVE",
"771 1098 OFFCURVE",
"576 1102 CURVE SMOOTH",
"453 1105 OFFCURVE",
"322 1061 OFFCURVE",
"238 971 CURVE SMOOTH",
"154 881 OFFCURVE",
"145 721 OFFCURVE",
"212 644 CURVE SMOOTH",
"276 569 OFFCURVE",
"383 532 OFFCURVE",
"492 503 CURVE SMOOTH",
"601 474 OFFCURVE",
"740 423 OFFCURVE",
"723 283 CURVE SMOOTH"
);
}
);
width = 1007;
}
);
leftKerningGroup = s;
note = uni023F;
unicode = 023F;
},
{
glyphname = uni0240;
lastChange = "2017-05-19 14:51:26 +0000";
layers = (
{
layerId = "4CEFE409-8F93-4A8D-8E3D-834274A593AF";
paths = (
{
closed = 1;
nodes = (
"-3 95 LINE",
"-20 0 LINE",
"220 0 LINE",
"349 -9 OFFCURVE",
"399 -112 OFFCURVE",
"440 -223 CURVE SMOOTH",
"460 -279 OFFCURVE",
"485 -328 OFFCURVE",
"516 -370 CURVE SMOOTH",
"577 -455 OFFCURVE",
"725 -469 OFFCURVE",
"865 -341 CURVE",
"822 -265 LINE",
"764 -313 OFFCURVE",
"712 -336 OFFCURVE",
"667 -335 CURVE SMOOTH",
"575 -332 OFFCURVE",
"535 -233 OFFCURVE",
"492 -121 CURVE SMOOTH",
"448 -9 OFFCURVE",
"387 93 OFFCURVE",
"258 100 CURVE",
"150 102 LINE",
"936 988 LINE",
"953 1082 LINE",
"187 1082 LINE",
"169 979 LINE",
"781 979 LINE"
);
}
);
width = 980;
}
);
leftKerningGroup = z;
note = uni0240;
unicode = 0240;
},
{
glyphname = uni0241;
lastChange = "2017-05-19 14:51:26 +0000";
layers = (
{
layerId = "4CEFE409-8F93-4A8D-8E3D-834274A593AF";
paths = (
{
closed = 1;
nodes = (
"476 323 LINE",
"763 358 OFFCURVE",
"919 590 OFFCURVE",
"958 862 CURVE SMOOTH",
"968 936 LINE SMOOTH",
"979 1023 OFFCURVE",
"974 1108 OFFCURVE",
"953 1190 CURVE SMOOTH",
"911 1353 OFFCURVE",
"799 1472 OFFCURVE",
"599 1476 CURVE SMOOTH",
"359 1483 OFFCURVE",
"178 1319 OFFCURVE",
"138 1087 CURVE",
"253 1087 LINE",
"274 1170 OFFCURVE",
"313 1238 OFFCURVE",
"372 1292 CURVE SMOOTH",
"488 1400 OFFCURVE",
"693 1389 OFFCURVE",
"771 1299 CURVE SMOOTH",
"849 1209 OFFCURVE",
"863 1066 OFFCURVE",
"847 937 CURVE SMOOTH",
"837 867 LINE SMOOTH",
"804 635 OFFCURVE",
"678 425 OFFCURVE",
"426 426 CURVE SMOOTH",
"364 427 LINE",
"297 0 LINE",
"415 0 LINE"
);
}
);
width = 1038;
}
);
note = uni0241;
unicode = 0241;
},
{
glyphname = uni0242;
lastChange = "2017-05-19 14:51:26 +0000";
layers = (
{
layerId = "4CEFE409-8F93-4A8D-8E3D-834274A593AF";
paths = (
{
closed = 1;
nodes = (
"456 347 LINE",
"665 371 OFFCURVE",
"819 491 OFFCURVE",
"838 710 CURVE SMOOTH",
"858 941 OFFCURVE",
"732 1097 OFFCURVE",
"496 1102 CURVE SMOOTH",
"255 1107 OFFCURVE",
"93 928 OFFCURVE",
"62 700 CURVE",
"179 701 LINE",
"208 861 OFFCURVE",
"310 1006 OFFCURVE",
"489 1002 CURVE SMOOTH",
"665 998 OFFCURVE",
"735 877 OFFCURVE",
"719 714 CURVE SMOOTH",
"699 529 OFFCURVE",
"579 428 OFFCURVE",
"395 428 CURVE SMOOTH",
"344 429 LINE",
"277 0 LINE",
"391 0 LINE"
);
}
);
width = 912;
}
);
note = uni0242;
unicode = 0242;
},
{
glyphname = uni0244;
lastChange = "2017-05-19 14:51:26 +0000";
layers = (
{
layerId = "4CEFE409-8F93-4A8D-8E3D-834274A593AF";
paths = (
{
closed = 1;
nodes = (
"951 -28 OFFCURVE",
"1178 171 OFFCURVE",
"1222 470 CURVE SMOOTH",
"1259 699 LINE",
"1468 699 LINE",
"1486 801 LINE",
"1277 801 LINE",
"1391 1456 LINE",
"1268 1456 LINE",
"1154 801 LINE",
"401 801 LINE",
"515 1456 LINE",
"394 1456 LINE",
"280 801 LINE",
"68 801 LINE",
"50 699 LINE",
"262 699 LINE",
"226 470 LINE SMOOTH",
"190 183 OFFCURVE",
"358 -16 OFFCURVE",
"647 -21 CURVE SMOOTH"
);
},
{
closed = 1;
nodes = (
"1136 699 LINE",
"1097 457 LINE SMOOTH",
"1058 230 OFFCURVE",
"891 77 OFFCURVE",
"654 84 CURVE SMOOTH",
"427 91 OFFCURVE",
"322 253 OFFCURVE",
"347 469 CURVE",
"384 699 LINE"
);
}
);
width = 1485;
}
);
note = uni0244;
unicode = 0244;
},
{
glyphname = uni0245;
lastChange = "2017-05-19 14:51:26 +0000";
layers = (
{
layerId = "4CEFE409-8F93-4A8D-8E3D-834274A593AF";
paths = (
{
closed = 1;
nodes = (
"725 1275 LINE",
"739 1307 LINE",
"741 1275 LINE",
"963 0 LINE",
"1091 0 LINE",
"818 1456 LINE",
"701 1456 LINE",
"-78 0 LINE",
"61 0 LINE"
);
}
);
width = 1226;
}
);
leftKerningGroup = A;
note = uni0245;
rightKerningGroup = A;
unicode = 0245;
},
{
glyphname = uni0246;
lastChange = "2017-05-19 14:51:26 +0000";
layers = (
{
layerId = "4CEFE409-8F93-4A8D-8E3D-834274A593AF";
paths = (
{
closed = 1;
nodes = (
"200 -125 LINE",
"300 -125 LINE",
"363 0 LINE",
"955 0 LINE",
"973 104 LINE",
"413 104 LINE",
"708 698 LINE",
"977 698 LINE",
"995 803 LINE",
"760 803 LINE",
"1031 1351 LINE",
"1184 1351 LINE",
"1203 1456 LINE",
"1083 1456 LINE",
"1141 1572 LINE",
"1042 1572 LINE",
"983 1456 LINE",
"327 1456 LINE",
"74 0 LINE",
"263 0 LINE"
);
},
{
closed = 1;
nodes = (
"932 1351 LINE",
"660 803 LINE",
"335 803 LINE",
"431 1351 LINE"
);
},
{
closed = 1;
nodes = (
"608 698 LINE",
"314 104 LINE",
"214 104 LINE",
"318 698 LINE"
);
}
);
width = 1130;
}
);
note = uni0246;
unicode = 0246;
},
